<svg version="1.1" xmlns="http://www.w3.org/2000/svg" xmlns:xlink="http://www.w3.org/1999/xlink" width="258.3px" height="200.47px" viewBox="0,0,256,198.67188"><g transform="translate(25.6,19.86719) scale(0.8,0.8)"><g fill="none" fill-rule="nonzero" stroke="#880425" stroke-width="none" stroke-linecap="none" stroke-linejoin="none" stroke-miterlimit="10" stroke-dasharray="" stroke-dashoffset="0" font-family="none" font-weight="none" font-size="none" text-anchor="none" style="mix-blend-mode: normal"><g transform="translate(1.13976,1.13376) scale(0.9911,0.9911)"><g id="SVGRepo_bgCarrier" fill="#880425" stroke-width="0" stroke-linecap="butt" stroke-linejoin="miter" font-family="Inter, apple-system, BlinkMacSystemFont, &quot;Helvetica Neue&quot;, &quot;Segoe UI&quot;, &quot;Fira Sans&quot;, Roboto, Oxygen, Ubuntu, &quot;Droid Sans&quot;, Arial, sans-serif" font-weight="400" font-size="16" text-anchor="start"></g><g id="SVGRepo_tracerCarrier" fill="#880425" stroke-width="2.304" stroke-linecap="round" stroke-linejoin="round" font-family="Inter, apple-system, BlinkMacSystemFont, &quot;Helvetica Neue&quot;, &quot;Segoe UI&quot;, &quot;Fira Sans&quot;, Roboto, Oxygen, Ubuntu, &quot;Droid Sans&quot;, Arial, sans-serif" font-weight="400" font-size="16" text-anchor="start"></g><g id="SVGRepo_iconCarrier" fill="#f3e600" stroke-width="2.304" stroke-linecap="butt" stroke-linejoin="miter"><g><path d="M216.85634,16.5966c-16.57134,-7.75332 -34.29019,-13.3881 -52.81477,-16.5966c-2.27504,4.11318 -4.93294,9.6455 -6.76547,14.04644c-19.6921,-2.96145 -39.20313,-2.96145 -58.53308,0c-1.83217,-4.40094 -4.55043,-9.93326 -6.84583,-14.04644c-18.54458,3.2085 -36.28379,8.86399 -52.85513,16.63766c-33.42454,50.50885 -42.48538,99.76315 -37.95495,148.31806c22.16891,16.55519 43.65325,26.61198 64.77502,33.19285c5.21508,-7.17745 9.86623,-14.80724 13.87308,-22.84831c-7.63119,-2.89969 -14.94024,-6.47806 -21.84643,-10.6323c1.83217,-1.35737 3.62434,-2.77651 5.3558,-4.23671c42.12282,19.70193 87.89034,19.70193 129.50993,0c1.75181,1.46019 3.54363,2.87933 5.3558,4.23671c-6.92654,4.17459 -14.25559,7.75297 -21.88678,10.653c4.00685,8.02037 8.638,15.67087 13.87308,22.84796c21.14212,-6.58088 42.6464,-16.63731 64.81533,-33.21321c5.3158,-56.28752 -9.08086,-105.08948 -38.05561,-148.35912zM85.47388,135.09489c-12.64485,0 -23.01465,-11.80473 -23.01465,-26.17999c0,-14.37525 10.14837,-26.20034 23.01465,-26.20034c12.86663,0 23.23609,11.80438 23.01465,26.20034c0.02,14.37525 -10.14802,26.17999 -23.01465,26.17999zM170.52524,135.09489c-12.64485,0 -23.01465,-11.80473 -23.01465,-26.17999c0,-14.37525 10.14802,-26.20034 23.01465,-26.20034c12.86628,0 23.23609,11.80438 23.01465,26.20034c0,14.37525 -10.14837,26.17999 -23.01465,26.17999z"></path></g></g></g></g></g></svg>