<svg version="1.1" xmlns="http://www.w3.org/2000/svg" xmlns:xlink="http://www.w3.org/1999/xlink" width="500px" height="500px" viewBox="0,0,256,256"><g transform="translate(-107.52,-107.52) scale(1.84,1.84)"><g fill="none" fill-rule="nonzero" stroke="none" stroke-width="none" stroke-linecap="none" stroke-linejoin="none" stroke-miterlimit="10" stroke-dasharray="" stroke-dashoffset="0" font-family="none" font-weight="none" font-size="none" text-anchor="none" style="mix-blend-mode: normal"><g transform="translate(39.76809,43.93362) scale(0.512,0.512)"><g transform="translate(77.10603,83.7297) scale(0.81,0.81)" stroke="#880425"><g><g transform="translate(-0.00044,-0.00688) scale(1,1.00007)"><g transform="translate(25.6,19.86719) scale(0.8,0.8)"><g><g transform="translate(1.13976,1.13376) scale(0.9911,0.9911)"><g id="SVGRepo_bgCarrier" fill="#880425" stroke-width="0" stroke-linecap="butt" stroke-linejoin="miter" font-family="Inter, apple-system, BlinkMacSystemFont, &quot;Helvetica Neue&quot;, &quot;Segoe UI&quot;, &quot;Fira Sans&quot;, Roboto, Oxygen, Ubuntu, &quot;Droid Sans&quot;, Arial, sans-serif" font-weight="400" font-size="16" text-anchor="start"></g><g id="SVGRepo_tracerCarrier" fill="#880425" stroke-width="2.304" stroke-linecap="round" stroke-linejoin="round" font-family="Inter, apple-system, BlinkMacSystemFont, &quot;Helvetica Neue&quot;, &quot;Segoe UI&quot;, &quot;Fira Sans&quot;, Roboto, Oxygen, Ubuntu, &quot;Droid Sans&quot;, Arial, sans-serif" font-weight="400" font-size="16" text-anchor="start"></g><g id="SVGRepo_iconCarrier" fill="#55ead4" stroke-width="2.304" stroke-linecap="butt" stroke-linejoin="miter"><g><path d="M216.85634,16.5966c-16.57134,-7.75332 -34.29019,-13.3881 -52.81477,-16.5966c-2.27504,4.11318 -4.93294,9.6455 -6.76547,14.04644c-19.6921,-2.96145 -39.20313,-2.96145 -58.53308,0c-1.83217,-4.40094 -4.55043,-9.93326 -6.84583,-14.04644c-18.54458,3.2085 -36.28379,8.86399 -52.85513,16.63766c-33.42454,50.50885 -42.48538,99.76315 -37.95495,148.31806c22.16891,16.55519 43.65325,26.61198 64.77502,33.19285c5.21508,-7.17745 9.86623,-14.80724 13.87308,-22.84831c-7.63119,-2.89969 -14.94024,-6.47806 -21.84643,-10.6323c1.83217,-1.35737 3.62434,-2.77651 5.3558,-4.23671c42.12282,19.70193 87.89034,19.70193 129.50993,0c1.75181,1.46019 3.54363,2.87933 5.3558,4.23671c-6.92654,4.17459 -14.25559,7.75297 -21.88678,10.653c4.00685,8.02037 8.638,15.67087 13.87308,22.84796c21.14212,-6.58088 42.6464,-16.63731 64.81533,-33.21321c5.3158,-56.28752 -9.08086,-105.08948 -38.05561,-148.35912zM85.47388,135.09489c-12.64485,0 -23.01465,-11.80473 -23.01465,-26.17999c0,-14.37525 10.14837,-26.20034 23.01465,-26.20034c12.86663,0 23.23609,11.80438 23.01465,26.20034c0.02,14.37525 -10.14802,26.17999 -23.01465,26.17999zM170.52524,135.09489c-12.64485,0 -23.01465,-11.80473 -23.01465,-26.17999c0,-14.37525 10.14802,-26.20034 23.01465,-26.20034c12.86628,0 23.23609,11.80438 23.01465,26.20034c0,14.37525 -10.14837,26.17999 -23.01465,26.17999z"></path></g></g></g></g></g></g></g></g><g transform="translate(146.97856,192.5406) scale(0.05174,0.05174)" id="Layer_1" stroke="none" stroke-width="1" stroke-linecap="butt" stroke-linejoin="miter"><g transform="translate(-1734.20142,-778.65967)"><g><g fill="#52bedc"><g><g><path d="M2170,1329.063l0.813,-1.063h1.187v1.063v0.75l-1,-0.625z"></path><path d="M2176,1328h1l0.938,0.906l-0.969,0.907h-0.969z"></path><path d="M2188,1328v2h1.875v-1l-0.937,-1z"></path><path d="M2188,1319v-3l-1,-0.75v-1.25h1v1l1,1.5v2.5z"></path><path d="M2222,1314h1l-0.014,1.875l-0.986,0.25z"></path><path d="M2188.906,1330.813l1.344,2.187h0.75v-2z"></path><path d="M2193,1328h2v2h-1l-1,-1z"></path><path d="M2220,1329l1.063,-1h0.937l-1,1.813l-0.312,1l-0.688,0.25z"></path><path d="M2221,1323v-1l1.007,-1.062l0.993,0.75v1.312z"></path><rect x="2256" y="1315" width="1" height="1.125"></rect><path d="M2259,1314h2l0.938,1.063l-1.063,2.031l-0.062,0.906h-1.813z"></path><path d="M2248,1330v-1l0.507,-1l0.368,1v1z"></path><path d="M2252,1330v-1l0.813,-1l0.937,1l-0.875,1z"></path><rect x="2254" y="1331" width="1" height="0.906"></rect><path d="M2258.188,1331.906l0.812,1.094l1,0.688v-1.782z"></path><path d="M2265,1329h1l1,1v1l-1,0.906l-1,-0.843z"></path><path d="M2270,1329h1l0.625,-1l1.313,1h1.062l1.625,-1h2.375l1,1v1l-1,1h-1l-0.125,-1h-2.875l-2.312,2.797l-0.563,-1.797h-1.125z"></path><path d="M2283.063,1329l0.437,-1l0.438,1v1h-0.875z"></path><path d="M2294,1314h3l1,0.938l-0.937,1.062h-1.063v1l-0.812,1h-1.188v-2l0.75,-0.437l-0.75,-0.875z"></path><path d="M2279.25,1316l0.688,-1l1,1.125l-0.844,0.75z"></path><path d="M2291,1316v-1h1.125l0.75,1.875h-1.875z"></path><path d="M2300.125,1318l0.938,1.938h0.875v-1.938z"></path><path d="M2303,1319h1l1,-1h1v1v1h-3z"></path><path d="M2298,1322v1h1.813l-0.563,-1z"></path><path d="M2302,1321h2l2,1l0.875,1h-3.875l-1.062,-1z"></path><path d="M2316.023,1328.801l1.207,-0.901l0.77,1.1v1h-1l-1.937,0.875z"></path><path d="M2294,1329h2v1.875l-1,-0.875h-1z"></path><path d="M2299,1329h2l1,1.875v1.125l-0.969,-0.094l-0.531,-1.906h-1.5z"></path><path d="M2324.438,1328l-0.438,1v1h1.063z"></path></g></g><path d="M2454,1301h-31.063l-30.937,31.057l-10,-0.057v-0.813l-1,-0.125l-1,0.938h-8.063l-0.438,-0.981l-0.375,1.069l-3.124,-0.088v-1.063l-1,1.063h-1.125l-0.875,-1v1h-2.875l0.875,-1v-0.956l1,-0.044v-2h-1.875l-1.125,2v2.088l-1,-0.088v-0.813l-0.813,0.9l-3.187,-0.087v-0.875l-1,0.875h-17.438l0.438,-1v-2l-1,1v0.875l-0.953,1.092l-62.047,0.094v-0.061l-1,0.063v1.937l-29.938,0.063l-0.188,0.938l-0.875,0.063v-1.064l-2.813,-0.125l2.688,-0.875l0.219,-0.938l2.907,-0.062v-1l-1,-0.813l0.813,-1.188l12,-14.938l0.187,-2.061l1.813,0.063l12.063,-15.938c0,0 2.813,-5.813 3.125,-12.188c0,0 1.313,-17.063 -14,-23.875c0,0 -6.875,-3.438 -13.5,-3.063c0,0 -8.5,-0.75 -17.5,9.125l-0.875,0.938l0.874,0.938l-0.188,1l-2.813,1.125c0,0 -3.25,4.875 -3,7.938l-0.014,5.063l12.857,0.125c0,0 1.453,-13.063 14.453,-12.188c0,0 9.852,0.469 10.727,13.094c0,0 -0.137,3.297 -3.012,6.672l-22.26,28.171h2.25l-0.063,1h-2.937l-11,13.188v0.812h3l-0.125,1h-0.875v1h-2l-1,-0.875v12.875h51v-13l8.516,-0.047l0.453,-0.516l3.031,0.047l0.484,0.547l0.516,-0.625l49.953,0.172l0.516,-0.516l0.594,0.516l4.896,-0.078l0.625,-0.583l0.542,0.375l36.917,0.208l0.958,-0.208l10.042,0.208l1.083,-0.438l7.813,-7.875l1,-0.188l0.125,-0.75l6.938,-7.063l1,-0.125l-0.063,-0.875l14.125,-14.063l0.813,-0.188l0.125,2l1.063,0.063l0.063,-2.063l27.75,0.063l0.25,3.063l0.872,1.939v-10.406z"></path><g><path d="M2337,1316v-1l1.035,0.5l0.965,0.5v1l-1,0.938l-1,-0.5z"></path><path d="M2349,1329.563l1,-0.563l1.031,-0.594l2.907,-0.406h1.062l0.969,1l-1.031,1h-3.938l-1.07,1.031l-0.93,-0.656z"></path><path d="M2369.844,1329.43l1.094,-1.43h2.062l2.5,1h3.5l1,-1h1l1,0.969v1.031h-12z"></path><path d="M2306.042,1331.995l0.896,-1.997l1.062,0.502v1.5z"></path><path d="M2386.969,1329.516l0.562,-0.516l0.438,0.516l-0.5,0.484z"></path><path d="M2401,1328h3l1,0.594v0.406l-0.875,1h-2.125l-1,-1z"></path><path d="M2427.063,1305.063l-1.063,1.125v0.812l1.063,1.063l0.937,-0.875v-1.188z"></path><path d="M2415.25,1316.125l-1.25,0.906v0.563l1.141,1.406h0.859l-0.219,-2.031z"></path><path d="M2422,1315h1l0.156,-1h4.844l0.969,1l-0.969,0.969l-0.437,0.937l0.437,1.032v1.062l-1,-0.187l-0.187,-0.75l-1.094,-1.063l-2.625,-0.125l-0.406,-0.906l-0.688,-0.063z"></path><path d="M2428.516,1320.438l-0.516,0.562v0.875l0.516,1.094l0.484,-0.844v-1.125z"></path><path d="M2432.375,1316.969l-0.344,0.969l0.344,1.062l0.594,-0.875z"></path><path d="M2434.961,1317.391l1.039,-1.391h1v0.969l0.125,1.031h0.875l0.969,-0.75l0.937,-0.25h3.094l1.875,0.766l-0.812,1.234h-1.063l-0.937,-1.016l-1.532,0.454l-0.5,0.562h-5.031l-0.008,-1h1.008z"></path><path d="M2446,1320.594l0.5,-0.469l0.438,0.313l-0.469,1.437z"></path><path d="M2449.141,1320.375l0.992,-1.406l0.277,-0.828l0.576,0.851l1.014,1.133v0.875l-0.937,0.875l-1,-0.875z"></path><path d="M2451.406,1322.969l-0.468,1.031l0.468,0.875l0.594,-0.844z"></path><path d="M2433.02,1326.672l0.787,-0.664l1.518,-1.113l1.963,1.146l2.633,-0.067l1.924,0.028l6.093,-0.938l1.047,0.968l1.015,-0.032v1v0l-4.781,0.563l-0.156,-1.125l-1.063,-0.237l-0.812,0.237l-0.25,0.718l-0.157,0.844h-3.781h-1h-3l-1.125,-1z"></path></g><g><path d="M2467.771,1316.826l1.052,1.087l1.099,0.429l1.018,-0.369l1.018,-0.973h2.042l0.792,1.042l1.208,-0.042v-1l0.865,-0.917l1.135,1.688v0.229l-1,0.938l-0.042,0.625l0.959,0.916l0.083,1.021l-0.437,0.417l-1.188,-1.021l-0.396,0.125l-0.937,-0.021l-0.042,-0.979l1.021,-0.521l-0.042,-0.5h-2.979h-1l-0.646,-0.458l-0.521,0.25l0.105,0.208l0.041,1.042l-1,0.979l-0.562,0.021l-0.438,-1.021l0.063,-1.021h-2.042z"></path><path d="M2477,1310h2l-0.104,2.042l-0.896,-1.021l-1,-0.563z"></path><path d="M2484,1307h1v1.979h-0.5l-0.5,-0.989z"></path><path d="M2484,1304l0.5,-0.958l0.5,1v0.958h-1z"></path><path d="M2481,1319v1l0.979,0.958l0.667,1.084l0.292,-1l1.062,-0.521l-0.958,-0.563l-0.125,-0.958z"></path><path d="M2485.938,1317.979l0.5,-0.916l0.52,0.916v1.021h-0.937z"></path><path d="M2490,1318.031l0.479,-0.968l0.521,0.875v1h-1z"></path><path d="M2470,1322h2l0.5,-0.937l0.5,0.937h2v1h-5z"></path></g><path d="M2480.5,1257c-13.874,0 -25.5,10.568 -25.5,23.604v44.129c0,4.081 1.14,7.919 3.13,11.268h2.87l0.906,1h-3.146c0.504,0.758 1.058,1.484 1.648,2.183l1.412,-0.058l0.262,0.844l1.98,-0.969h0.938l0.563,0.941l0.813,-0.941l0.5,0.156l0.625,0.314l1.844,-0.314l-0.313,0.785l-0.063,1.059l-0.344,1.906l-0.688,-0.844l-2,-0.031l-0.875,0.766l0.013,0.663c4.311,3.055 9.673,4.876 15.425,4.876c13.874,0 25.5,-10.568 25.5,-23.604v-44.129c0,-13.036 -11.626,-23.604 -25.5,-23.604zM2492,1302.059v1.299v20c0,2.512 -0.878,4.827 -2.338,6.71l0.338,1.932h-2.223c-2.105,1.71 -4.825,2.75 -7.777,2.75c-1.703,0 -3.328,-0.35 -4.805,-0.97l-1.195,1.126l-2.813,1.563l-0.187,1.531h-0.969l0.156,-2.734l1.813,-0.266v-1h0.813l1.002,-0.911c-3.464,-1.998 -5.815,-5.603 -5.815,-9.731v-20v-1.299v-20c0,-6.292 5.442,-11.392 12,-11.392c6.558,0 12,5.1 12,11.392z"></path><path d="M2504,1300h5l2.063,0.438l34.969,0.188l1.406,-0.625l1.438,0.313l38.688,0.313l1.436,-0.627c0,0 19,-0.188 19,0c0,0.188 0.531,0.906 0.531,0.906l0.438,-0.99l1.719,0.208l0.156,2.078l-0.219,0.797h-74.625l-1.094,1.953l-1.031,2.047h-0.875l-1,-0.688l1,-1.25l-0.094,-1.438l-1.125,-1.094l-11.781,-0.094l-1.031,0.531l-10.875,-0.063l-0.531,-0.238l-0.563,0.27l-3,0.031z"></path><g><path d="M2620.422,1312.755c-6.077,0 -11.021,-4.943 -11.021,-11.021c0,-6.078 4.944,-11.021 11.021,-11.021c6.077,0 11.021,4.943 11.021,11.021c0,6.078 -4.944,11.021 -11.021,11.021zM2620.422,1293.714c-4.423,0 -8.021,3.598 -8.021,8.021c0,4.423 3.599,8.021 8.021,8.021c4.422,0 8.021,-3.598 8.021,-8.021c0,-4.423 -3.598,-8.021 -8.021,-8.021z"></path></g><g><path d="M2630,1303h3h5.313l7.718,0.125l-1,0.938l-2.968,0.593l-10.063,0.344h-2.531l0.359,-1.219z"></path><path d="M2653,1301h-14l-3.062,-0.437l2.468,-1.157l14.594,-0.156z"></path><path d="M2654.016,1301.75l1.984,-1.75h3l0.953,-0.75l1.047,1.25v0.5l-1.875,1h-4.125z"></path><path d="M2666.016,1302.094l0.976,-2l1.473,-1.016l1.535,1.047v0.875l-1.984,2l-0.36,1l-0.656,-1h-1z"></path><path d="M2673.891,1300.852l2.203,-1.852h1.906l0.969,1l5.875,-0.031l0.937,-0.891l1.344,0.922l0.813,0.031l0.906,0.293l-1.688,1.676h-6.156h-1h-1h-1.031h-2.969z"></path><path d="M2675,1311.75l1.625,-1.609l3.328,0.367l1.039,1.215l-1.058,1.248l-1.903,1.029h-1.031l-1.133,-0.937l-0.867,-0.125z"></path><path d="M2670.844,1315.375l1.562,-1.375h2.594l1.063,1.031l4.781,-0.062l1.031,-0.969h4.125l2,1.125v0.875h-5l-0.406,-0.781l-0.563,0.781h-5.031l-1.062,1h-2.938l-0.781,-1h-1.219z"></path><path d="M2689.438,1312.07l-0.375,0.961l0.562,0.969l0.344,-0.965z"></path><path d="M2693.656,1312l-0.625,1l0.907,1h1.093l0.907,-1l-1,-1z"></path><path d="M2642,1316.156l-2,1.157v1.687h2l0.844,-0.906l0.156,-1.594z"></path><rect x="2625" y="1318" width="1" height="1"></rect><path d="M2608,1318.656l1.891,-2.281l0.976,-0.023l2.008,1.648h4.125l1.406,-1.633l1.188,1.633h1.406v1h-1l-5.523,-0.109l-0.821,0.109h-1.656h-1l-3,0.156z"></path><rect x="2606" y="1308" width="1" height="0.906"></rect><path d="M2604,1328.391l1.688,-1.391h6.312l1.75,1h5.25l1,0.656l-1.031,0.344l-9.969,-0.156l-0.75,-0.844l-1.227,0.844l-3.023,0.156z"></path><path d="M2599.031,1321.211l0.969,-2.211v-1l1.375,-1.844l1.25,1.598l-0.969,0.746l-0.656,0.813l-0.172,1.656z"></path><path d="M2587.063,1319.105l2.062,-1.105h2.875v-1l0.75,-0.844l1.125,1.344l-0.781,1.605l-4.063,0.051l-1.25,0.875z"></path><path d="M2581,1321.531l0.813,-0.32l1.125,0.16l-0.719,0.567z"></path><path d="M2572.906,1321.496l1.985,-1.785l0.179,-1.637l0.996,-0.896l0.934,1.666v1.156l-2.047,1.031l-0.797,0.907z"></path><path d="M2558.021,1328.542l3.104,-1.542h3.875h9h3l2.042,0.333l-2.042,1.667h-17z"></path><path d="M2553.146,1318.875l1.719,-1.739l1.135,0.932v0.932l-2,1.031z"></path><path d="M2562.125,1318.094l0.75,-0.916l1.25,0.916l-1,0.739z"></path><path d="M2544,1321.605l1.479,-3.496l0.573,1.93l0.948,1.172v0.789h-1z"></path><path d="M2537,1318h2l2.042,2.094l-1.042,0.906h-1l0.021,-0.885l-0.813,-1.115h-1.208z"></path><path d="M2533,1318.005l2,0.104l-1.521,1.946l-0.479,-0.805z"></path><path d="M2532.042,1321.574l0.958,-0.574l1,0.211v0.789h-1.167z"></path><path d="M2536,1311.667l0.792,-0.542l1.208,0.271l-0.583,0.479z"></path><path d="M2538,1308l0.479,-0.917h1.479v0.917l-0.479,0.979l-0.604,-0.948z"></path><path d="M2544.042,1310.052l0.958,1.073v0.875h-4l-1,-0.948v-1.052l1.042,-1.833l0.833,-0.136l1.583,-0.948l1.334,1.542l-1.209,0.354l-1.083,-0.521l-0.375,0.521l-1.083,1.104z"></path><path d="M2507.74,1318.005l1.151,-0.051l1.575,-0.844l0.871,0.794l3.163,-0.904h1.5l1.833,1.833l-0.833,1.198l-0.083,1.719l-0.334,0.25l-0.604,-1l0.021,-0.96l-1.083,-1.04h-2.917l-1.062,1.375l-0.125,0.625l-0.813,1h-1l-0.083,-1l-0.896,-0.945z"></path><path d="M2519.979,1321.5l0.917,-0.5l1.083,0.5l-1,0.604z"></path><path d="M2520.979,1318.109l0.459,-1.026l0.541,0.922l-0.5,1.025z"></path><path d="M2529.969,1305.031l0.531,-0.968l0.438,0.968l-0.485,0.938z"></path><path d="M2516.969,1305.016l1,-0.953l1.062,0.953l-0.875,0.953z"></path></g><path d="M2709.23,1257l-0.292,1.41l-1.188,0.66l-0.813,-0.617l-4.875,-0.484l-1.476,-0.969h-15.586v27l13.917,0.083l0.083,-13.083h13.639l1.611,-1h0.75l0.5,1h5.167l-15.131,38.761l0.349,1.041l-1.12,0.934l-0.588,1.507l0.773,0.228l-1.099,0.606l-12.851,32.923h2.729l0.438,-0.875l1.854,-0.042l0.77,0.917h10.126l30.083,-76v-14zM2716.625,1265.063l-0.438,-0.313l0.313,-0.5l0.563,0.5z"></path><path d="M2916,1257v18.057l1.25,0.38l-1.25,0.893v7.67l6.868,0.041l0.632,-1.166l0.611,1.174l5.805,0.035l0.084,-13.084h21.667l-22.955,58.806l1.288,0.194l-2.013,1.663l-5.987,15.337h7.851l0.649,-0.938l0.514,0.938h6.903l14.25,-36h-2.167v-1l2.375,-0.938l0.49,0.173l15.135,-38.235v-14zM2942,1316.938h-1.063l-0.875,-0.375l0.875,-1.396l1.063,0.396z"></path><path d="M2723.729,1299.021l100.302,0.573l1.386,-0.594h1.583l0.542,0.958l0.541,-0.958h0.917l0.5,0.958l0.75,-0.958h9.75l1.667,0.479l1.708,0.188l1.667,-0.667h3.958l0.917,1h3.083l1.125,-1h0.875l1.292,0.792l-0.375,1.083l-0.917,0.292l-1,0.833h-4l-0.833,-0.458l-25,-0.125l-1.125,0.583h-3.042l-0.625,-0.5l-3.458,-0.042l-0.834,0.542h-3.083l-1.25,-0.542l-9.5,0.042l-1.375,0.5h-1.875l-3.083,-0.875l-4,-0.167l-3.834,1.042l-0.875,-0.167l-1.208,-0.333l-4.875,0.042l-1,0.458h-58.125z"></path><path d="M2756.958,1296.729l1.084,-0.729h1.958v1h-2z"></path><path d="M2767.979,1296.5l1.063,-0.5h1l0.916,0.5l-0.916,0.5h-1.042z"></path><path d="M2781,1296v1h39l1.875,0.969l1.208,-0.969h9.917l1.5,0.977l1.5,-0.977h1l1.625,0.982l1.5,-0.982h0.875l1,-0.458l-1.042,-0.542z"></path><path d="M2843.958,1296.991l0.959,-0.991l1.125,0.991l-1.042,0.991z"></path><path d="M2718,1315h4h1l1,0.813l-1.125,1.187h-0.875l-1.375,-1h-1.625z"></path><path d="M2737.146,1316l0.937,-1h1.917l1,1l-1.167,1h-1.833z"></path><path d="M2749.979,1316l0.948,-1l1.12,1l-1.047,1h-1z"></path><path d="M2764,1315h5l-0.167,2h-1.833l-3,-0.375z"></path><path d="M2772.984,1316.5l0.974,-0.5h1.042v1h-1z"></path><path d="M2775.875,1316l1.167,-1h0.958l1.125,1l-1.625,1z"></path><rect x="2780" y="1316" width="1" height="1"></rect><path d="M2784,1316h1l1,0.5l-1,0.5h-1z"></path><path d="M2787.938,1316l1.187,-1h1.875l1.042,1h7.958l1.083,-1h0.917l0.958,1h9.042l0.917,-1h1.083l1.25,1h13.75l1.042,0.5l-0.959,0.5h-1.083l-1.083,0.917l-2.042,-0.917h-25.875l-1.042,0.917l-1,-0.459l-0.125,-0.458h-5.833h-2z"></path><path d="M2725.917,1316l1.125,-1l1,1l-1.063,1z"></path><path d="M2834,1316h5l0.5,1l0.417,-1h1.083l0.875,0.5l1.083,-0.5h8.042l3.25,0.5l2.708,-0.042l1,-0.458h6.042l1.792,1h3.208l0.958,-1h6.042l1.208,1l5.792,-0.292v-0.708h3l1.667,0.667l5.625,-0.167l0.833,-0.5h1.875l1.208,0.5l1.667,0.875l-0.958,0.625l-1.167,1l-1.667,-1.167l-4.083,0.167l-0.917,1l-1.166,-1.125l-12.709,0.083l-2.291,1.042h-1.917l-1.083,-0.958l-2.75,-0.042l-0.625,1l-0.709,-1l-0.77,-0.083l-2.063,-1.209v1.292l-1.958,0.042l-0.417,-1l-0.625,1l-0.958,0.083l-0.542,-1.125l-1.333,-0.042l-1.125,1.042l-9.042,-0.125l-1.083,-0.875h-1.917l-0.5,1h-2.5l-0.917,-1.042l-1.083,0.542l-0.167,0.583l-1.791,-0.166l-1.25,-0.917l-2.792,-0.042z"></path><path d="M2902,1314.042l0.875,-0.875l1.167,0.875l-1.021,0.791z"></path><path d="M2910.958,1318.042l1.521,-2.042l1.073,1.021l1.599,1.021l-1.193,0.958h-1.958z"></path><path d="M2913.055,1314.167l0.945,-1l1.151,1l-1.048,1z"></path><path d="M2916,1317.104l1.958,-1.104c0,0 0.917,0 1.042,0c0.125,0 2.917,0.542 2.917,0.542l1.083,0.979l-0.917,0.479h-1.083l-1.333,1l-1.896,-1.125l-1.771,0.125z"></path><path d="M2923,1314l1.625,-0.833l1.458,0.833l-1.333,0.833z"></path><path d="M2924.094,1318.063l2.974,-0.928l0.974,-1.135h3.958l0.75,0.938l1.292,0.562l-0.542,1.104l-1.042,0.396h-8.458z"></path><rect x="2899" y="1329" width="3" height="1"></rect><path d="M2898.125,1334.667l0.75,-0.542l0.875,0.271l-0.458,0.646z"></path><rect x="2901" y="1334" width="1" height="1.042"></rect><path d="M2904.042,1334.125l0.916,-1.042l1,1.042l-0.291,0.917h-1.625z"></path><path d="M2918,1325.542l0.417,-0.542l0.416,0.542l-0.416,0.583z"></path><g><path d="M2865.422,1311.755c-6.077,0 -11.021,-4.943 -11.021,-11.021c0,-6.078 4.944,-11.021 11.021,-11.021c6.077,0 11.021,4.943 11.021,11.021c0,6.078 -4.944,11.021 -11.021,11.021zM2865.422,1292.714c-4.423,0 -8.021,3.598 -8.021,8.021c0,4.423 3.599,8.021 8.021,8.021c4.422,0 8.021,-3.598 8.021,-8.021c0,-4.423 -3.598,-8.021 -8.021,-8.021z"></path></g><path d="M2771.75,1260.75"></path><path d="M2874,1296h4l6.167,0.667l58.708,-0.448l-0.875,1.781h-58l-1.594,-0.437l-7.312,-0.125z"></path><path d="M2876,1300h12l7.531,0.469l30.552,0.625l15.136,-0.188l1.656,0.032l-1.312,1.062h-1.563h-44l-7.281,-1.266l-0.813,0.266l-1.718,0.594l-4.688,-0.36l-2.656,-0.234h-2.844z"></path><path d="M2956,1297h3l0.625,1l1.438,-1h1.937l1.375,-1c0,0 1.125,0.938 1.375,1c0.25,0.062 1,0.5 1,0.5l0.25,0.5l1,-1h7l0.75,-1l1.438,1l0.938,1l0.875,-1h3l2.063,1l3.063,-1h3.873h22l1,1h1l1.344,-1l1.656,0.688v0.312h1v-1h3l1.125,1h38.875l4.938,1.219l-8.625,0.781h-17.313l-0.5,-0.781l-1.5,0.781h-2l-0.938,-0.875l-1,0.375l-5.813,0.188l-0.688,-0.375l-0.561,0.687h-4l-1.188,-0.688l-0.625,0.688h-3.187l-1.688,-1l-17.25,-0.063l-1.813,1.063h-1.249l-0.813,-1.125l-42.813,0.063z"></path><path d="M2951.438,1307.875l2.5,0.5l-4.375,0.688z"></path><path d="M2947.313,1316.375l3.5,1.438l-1.563,1.187h-3.25z"></path><path d="M2954.094,1300.688l17.906,0.312v1h-2l-1.375,1h-1.625l-1.562,-1h-6.438l-1.75,1l-1.25,-1l-2.312,-0.156z"></path><rect x="2984" y="1301" width="38" height="2"></rect><path d="M3024.031,1302.453l1.844,-0.414l1.094,-1.039h1.031v1.875v0.125h-3z"></path><path d="M3031.984,1302.625l0.985,-0.625h0.969l1.125,0.469l-0.969,0.531h-1.094z"></path><path d="M3045.141,1302l-0.141,1h19v-1z"></path><path d="M3069.708,1294.938l1.834,-0.938h1.458h29v1l-3.958,1l-0.917,-0.292l-0.667,-0.375l-10.416,0.125l-0.167,0.542h-0.875l-0.375,-0.458l-10.792,-0.542h-1.833l-0.583,1z"></path><rect x="3096" y="1299" width="0.875" height="2"></rect><path d="M3104,1296v-1l1.042,-1h3.958l0.917,1c0,0 -0.917,1.042 -1.042,1c-0.125,-0.042 -4.875,0 -4.875,0z"></path><path d="M3137,1318h3v1l-3,0.167z"></path><path d="M3187.042,1303l0.791,-0.958l1.084,0.958l-0.938,1z"></path><path d="M3211.167,1303.021l1.75,-0.979l1.916,0.979l-1.541,0.979z"></path><path d="M3234,1303.542l0.917,-0.521l1.041,0.521l-0.979,0.458z"></path><path d="M2961.453,1318.032l1.524,-1.047l0.777,-1.008l1.246,1.023h4l0.375,1h0.625l1.188,-1h1.812l1,-0.001l1.688,-1.024l2.437,1.025h3.875l0.875,1.025l1.063,-1.025h6.062l2,1h2l1.531,-1h4.469l1.188,1h7.812l1.031,-1.003l1.969,0.128l1,1.313l-1.156,0.562h-23.844l-1.531,-0.406l-3.469,0.406h-2l-0.937,-0.281l-1.125,0.281h-1.938l-0.781,-0.469l-3.844,0.157l-0.437,0.312h-1.938l-1.312,-0.312l-1.657,0.031l-1,0.281h-1.031l-3.969,-0.375z"></path><path d="M2963.031,1328.031l1,-0.968l0.875,0.968l-0.937,0.938z"></path><rect x="2973" y="1314" width="3" height="1"></rect><path d="M2989.031,1306.938l0.532,-0.969l0.343,0.969l-0.437,0.937z"></path><path d="M2995.969,1315l1,-1l1.031,1l-1.016,0.975z"></path><rect x="3000" y="1314" width="1.063" height="1"></rect><rect x="3003" y="1314" width="4" height="1"></rect></g><g fill="#52bedc"><path d="M601.625,1042.292l64.854,-29.396l57.927,-17.448l335.047,-135.724l84.773,-14.237l8.012,4.59l0.756,2.67l9.17,8.085l-25.082,13.334l-31.083,15l-37.916,-6l-5.917,-0.167l-299.416,165.751l37.188,-1.813l86.646,-2.854l128.417,-2.5l21,2.25l59.917,9l8,5.167l7.917,4.917l9.75,1.667l5.167,0.417l5.083,7.167l2.25,13.917c0,0 -9,9.542 -13,13.958c0,0 -16,17.958 -18.167,18.958h-3.918l-5.167,-4l-1.833,-0.917l-6.583,0.083l-7.333,1.917l-8.084,-0.084l-2,-1l-2.083,1l-28.333,1.083l-142.958,9.25l-106.293,5.667h-90.333c0,0 -38.833,5.333 -111.5,9h-3.5c0,0 -14.333,-3.833 -51,-19.833l-43.167,-20.667l5.5,-4.5l60.5,-27.667l7,-3.333l22.333,-6.833l18.667,-9l4.833,-1.833z"></path><path d="M1122.771,1030.083c0,0 -0.427,15.833 0.948,22.333c0,0 2.641,11.104 7.141,14.604c0,0 14.07,11.74 15.82,14.24c0,0 11.035,10.37 14.91,11.12l16.518,-10.253l-15.449,20.749l-6.162,1.958l-4.164,5.166l-8.457,16.75l-78.624,95.875l-5.083,2.167l-0.667,0.958l-0.75,9.875l-15.25,15.125l-3.75,2.375l-0.813,1.083l-2.939,13.292l-59.25,71l-5.75,11.625l-2.375,7.125c0,0 -8.625,12.125 -12.875,11.75l-8.125,11c0,0 -12.375,20 -20.375,27h1.75c0,0 10,-5.125 14.625,-10.125c0,0 41.125,-52.5 45.5,-55.75c0,0 7.5,-9.75 10.25,-9.75c0,0 3.875,-1.375 5.5,-3.25c0,0 6.375,-8.25 19.125,-9c0,0 20.375,-15.375 42,-20c0,0 3.75,-1 6.5,2.625l257.305,-312.345l10.323,-12.405h-13.128l-64.667,3.417l-88.583,65.583h-21.75l-14.5,-19.25l-6,-4.5z"></path><path d="M2108.375,1026.25l13.5,-6.375l-6.125,-9.375l-58.75,-30.5l-111.5,-1.375l-164.5,-5.25l-171.333,3.625l-20.667,8.667l-12.667,22.667l-29.333,-0.667l-106.333,-30.667l111.333,-134.25c0,0 4.875,-5 5.875,-12.375c0,0 1.25,-16.5 -4.75,-27.625l3.042,-19.583c0,0 4.167,-3.917 8.083,-15.167c0,0 1.917,-4.167 6.25,-6c0,0 2.583,-1.583 4.333,-5.417l17.167,-23.416c0,0 0.917,-3.75 -1.333,-2.25c0,0 -5.167,3.75 -12.833,15.833c0,0 -0.815,-3.917 -3.657,0.333c0,0 -2.509,5.333 -6.509,5.5c0,0 -8.917,11.25 -8.833,17.167c0,0 -4.083,10.5 -9.333,10.167l-17.502,43.833l-87.5,86.75l-86.25,106.25l-52.75,32.25l-13.852,8.734l-2.815,3.432l-1.917,18.833l-44,40.917l-3.917,5.167l7,4l-27.917,35.25l-4.833,8.5l25.75,17.5c0,0 37.667,26.417 46.667,30.917l71.333,-52.583l109.001,-80.667l70.5,-51.333l-0.833,6.167l-11.834,13.166l-2.833,1l-5.667,7.667l-6.25,20.833l-23.417,21.833l-0.75,0.667l-3,4.5l-9.917,13.667l-1.917,2.75l-1.333,2.083l4.333,4.25l1.25,1.75c0,0 -2.583,6.75 -1.417,8.833l29,22.917c0,0 2.583,2.917 6.25,1.083l10.835,-3.833l4.673,0.067c0,0 69.827,-23.567 178.827,-37.317c0,0 14.875,-26.125 17.5,-36.75h-8l-58.625,-1l-11.375,1l-13.5,3l-17.625,4.75l-46.875,6.375c0,0 15.125,-27.625 19,-31l134.625,-15.25c0,0 5.625,-5.375 11.625,-17.375c0,0 5.75,-7.875 7.75,-11.875v-1.625l-18,-0.125l-108,-5l6.5,-11.875l64.375,-2.875c0,0 4.125,-8.625 11.125,-9.125l83.875,1.125l10.625,-11.375l8.167,35.583c0,0 -34.667,40.333 -36.333,41.333c-1.667,1 -18,23.333 -18,23.333l-2.583,3l-15.875,35.375l1.125,2.375l-12.125,28l-15,38.625l-2,8.875c0,0 14.625,21.125 38,41.125c0,0 22.625,-51.625 25.125,-57.125l37.667,-81.375l40.208,16.5c0,0 48.625,21.125 49.875,22.25c0,0 53.5,19.875 58,21.375c0,0 70,27.5 95.625,31c0,0 18.5,-15.5 25,-23c0,0 11.75,-12.375 15.5,-14.375c0,0 5.375,-5.75 5.875,-9.625l-10.25,-3.875l-25.125,-20.875l-45.5,-15.25l-38.75,-13.125l-15.208,-8.875l-5.292,-2.375l-18,-3.625l-2.875,-3.625l80.875,-21.5c-0.001,0.001 72.749,-20.624 102.749,-34.624zM1414,1057l-6,3.833l-85.833,59.167l51.833,-62.833l29.833,-34l54.167,3zM1843.833,1055.667l-24.333,-14.833l14.833,-34.667c0,0 118.667,0 154.5,3.167l14.833,8.5z"></path><path d="M2648.75,988.5l-4.667,-8.5c-8.25,-11.333 -7.083,-22.917 -7.083,-22.917l5.917,-5.5c-0.917,-0.833 -1.833,-3.25 -1.833,-3.25c-0.833,-11 3.5,-26.25 3.5,-26.25l-3.667,-0.417l-4.917,1.334l-82.5,137.75l-18.75,22.25l-34.75,19.5l-26.25,20.25l-14.167,6.417l-25,15.667l-0.917,-3l15.833,-37.75c0.667,-2 8.5,-27.917 8.5,-27.917l-0.25,-7.917l-1.25,-2.833l0.167,-15.833l77.167,-27.583c4.5,-34.5 12.417,-61.583 12.417,-61.583c0.417,-1.083 2.75,-3.417 2.75,-3.417h-3.875l-2.531,0.094l-5.073,-1.573l-96.729,7.521l-186.958,6.542l-38.167,1.415l-38.5,44l-49.792,75l-1.375,2l-0.833,2l-37.333,17.333l-16.208,0.417l-2,1.125l4.375,9.458l-10,4.833l17,13c10.667,8.167 17,10.583 17,10.583l-3.625,6.75l-19.876,71.501l-68,126.167l-28.167,64.333l-7.167,16.5c4.667,-6.333 9.333,-7.833 9.333,-7.833c9.833,-3.5 13.167,-12.167 13.167,-12.167c16,-39.5 28.833,-57 28.833,-57c5.667,-0.667 10.833,-7 10.833,-7l5.667,-1.333c13.833,-14.833 38.333,-28.5 38.333,-28.5c10.333,-4.833 11.833,-10.167 11.833,-10.167l12,-24.5l53.333,-107.333c5.5,-14.167 16,-32.167 16,-32.167c3.167,-6.833 7,-6.667 7,-6.667l231.833,-75.5l-1.808,2.102l-1.358,3.065l2,2.333l-18.665,36.167l-3.167,6.667l-13.5,63.667c-3.667,5.333 -2.333,7.833 -2.333,7.833l34.167,26.5c7.167,-7.333 35.667,-27 35.667,-27c4.333,-2.5 40,-27 40,-27l19.833,-13.167c0,0 -8.167,29 -12.667,32.667c-4.5,3.667 -3.333,11.667 -3.333,11.667c7,-0.167 16.5,7.333 16.5,7.333l26.333,14.5l34,-68.333c8.167,-16 17.167,-29.167 17.167,-29.167c4.5,-13.5 19,-35.667 19,-35.667l25.667,-44.833l26.25,-44.333zM2330.167,1040.917l-75,20.833l-34.167,7.25l-9.5,2.667l4.5,-9.667v-2.167l10.167,-18.708c4.167,-8.75 11.917,-19.958 11.917,-19.958l179.917,-12.25z"></path><path d="M2642.094,915.875l8.281,-13.875h1.625l0.938,1.188l-3.25,9.687l-0.605,4.375l-4.02,-1.187z"></path><path d="M2583.458,1147.583l-8.229,20.5l-5.281,11.917l1.734,-0.833l11.075,-0.333c0,0 21.079,-4.5 41.163,-5.833l6.165,-0.917l1.833,-1.083l48.833,-85.833l23.25,96.083l44,-1.167l48.875,-87.083l59.124,-109.001h-13l-72.75,57.125l-10.625,8.5l-3.813,1.625l-1.563,2.625l-0.938,2.625l-9.063,31.625l-5.875,7.5l-10.75,1.625l-11.25,-14.625l-24.625,-17.875l-15.875,-4l-68.875,42.5l-6.924,5.229l-1.284,2.521l-0.792,5.375l-3.875,11.625z"></path><path d="M2956,961h8l-37.5,69.833l286.833,-133.5l27,-12.333l13,-6l6.167,-4h1.5v2l-6.917,10.833c0,0 -17.417,7.833 -23.833,21.167l-13.083,20.583c0,0 -1.75,2.417 -8.75,5.667l-75.583,36.917c0,0 -4,5.5 -13.5,11.333l-138.334,72.667l16,9.333l31.333,23l21,12.333l-0.5,1.5l9.167,6.667l-8.167,3.833l3.167,2.167l9.167,6.583l5.667,2.417c0,0 2.479,1.25 3.979,2.063c0.546,0.296 2.188,7.938 2.188,7.938l-0.625,3.75l74.333,43.5l199.291,114.124v6.625l7.5,6.375l0.333,1.625l2.167,2v3l4.063,13.75l0.938,1.375v6.875l3,4.438l-0.625,1.563h-1.376l-5.75,-4.5l-269.25,-142.501l-106.25,-57.5c0,0 -4.625,-3.25 -7.5,-7.5l-78,-43.125l-28.625,51.625l-25,44.375c0,0 -6.625,13.375 -6.625,15.75l-1.75,0.125c0,0 -36.25,-24.25 -44.875,-36c0,0 9.625,-24.625 25.75,-51.75l1.5,-2.5l10.75,-8.875l13.125,-42.75l-1.417,-3.708l2.85,-4.136l32.192,-27.405l41.625,-43.875l36.125,-20.625z"></path></g><g fill="#fff000"><path d="M1149,835.917l-13.167,-7.917l-0.833,-2l-28.917,-18h-4.083l-25.5,11l-3.75,-3l-1.208,0.625c0,0 -27.771,15.854 -43.771,20.521c0,0 -36.385,16.927 -48.719,25.927c0,0 -9.026,4.297 -13.026,7.964c0,0 -1.346,1.648 -13.68,7.982c0,0 -30.007,14.658 -41.34,20.658c0,0 -85.003,40.662 -97.337,45.995l-138.002,63.164l-9.002,4.164h7.335l-33.333,19.667c0,0 -4.333,-0.167 -6,2.5l-1.333,2.833h4.666c0,0 0.333,5 4.667,6h7.333l1.667,-1.5l1.521,0.375l5.563,0.063l0.25,-0.875l3,-0.063v1h4l2.125,2h2.874l2.125,2h3.875l0.875,-1.188l0.25,-1.75l0.875,0.063l0.938,0.875l5,0.063l1.25,1.938h4.812l1.125,-1.875l6.75,-0.125l0.125,2h6l1.063,-2l6,0.063l1.875,2.938h2.062l0.125,-0.875l3.813,-0.094l0.188,-2.031h4.874l1.938,2l1,0.125l0.125,0.875h2.937l0.938,5h17.062l-0.125,-2.938l1.188,-0.813l6.875,-0.031l0.125,4.781h16.937l0.063,-3.938l1.156,-1l19.781,-0.125v-0.938l5,-0.188l-0.063,-0.875l-20,0.125l-40.563,1l-0.438,-1.063l38.938,-21.063l0.063,-3.938l2.125,0.063l-0.063,2.875l0.938,0.063l274.563,-150.041l34.583,6.042h3.917v-1l68.667,-33.083c0,0 -0.417,-3.167 -13.667,-11zM657.917,1026h-0.917v-1h0.917zM669.833,1026h-0.833v-2h0.833zM684,1026h-1.042l-0.958,-1v-1.958l-0.958,-1l1.958,-0.042v2l1,1zM684.958,1021h-1.958v-1h1.958zM689,1027h-3v-1h3zM697,1026h-2v-3h1v2h1zM702,1027h-4v-1h4zM710.958,1026h-1.958v-1h1.958zM712.083,1020v1h-1.083l-0.042,-1zM716,1027h-5v-1h5zM728,1027h-2v-1h2zM733,1021h-1v-1h1zM740,1027h-1l-0.333,-1h-1.667v-4h2v4h1zM742.958,1024h-0.958v-1h0.958zM750,1027.913h-1v-1.913h2zM757,1023h-2v-1l0.833,-1h1.292l0.833,1.25zM763,1029h-2v-1l2,-0.087zM769.042,1021h-0.917l-0.167,-1h1.083v1zM775,1020.625h-1v-0.625h1zM782,1021h-3v-1h3z"></path><path d="M926.021,1113.875l17.969,-0.667l-11.948,1.792h-6.042z"></path><path d="M1085,1108h2v1h2v-1h4l-2.042,3h-1.958z"></path><path d="M1120,1056.167l-16.833,-0.333c-0.5,-0.833 -8.167,-6.167 -8.167,-6.167c-15,-15.167 -24.167,-20.167 -24.167,-20.167c-3.667,-2.667 -9.5,-1.167 -9.5,-1.167c-17.333,8.5 -36.5,9.667 -36.5,9.667l-160.833,6v1.938l5,-0.938h14.188l2.75,2l6.938,0.063l3.938,-1.125l1.186,-0.938l1.938,1.938l0.938,1.063l4.063,-0.063l1,-0.875l1.875,-0.125l1.186,-0.938h1.938l2.063,1h2v0.938l5,0.063v-1l0.938,-0.063l2.061,-1.938h1.875l2.125,1.938l1.875,0.125l0.063,0.875l5,0.063l3.063,-2h3l1.938,2l6,-0.125l3.061,-1.876h2.938l1.063,1.875l6.875,0.063l1.124,-1.938h3.938l1,0.969l2,-0.031l1,1l5.063,-0.063l0.125,-0.813l4.063,-0.063l2.875,2l2.875,0.063l3,-2.25l6.125,0.125l0.938,1.125l6.875,-0.25l4.938,-1.75l0.25,2l8.935,-0.062v-1h2.125l4.875,4h1.875l4.125,3h6.938l0.938,1.125l-0.876,0.875h-14.063l-0.938,1v0.938l-8.906,-1l-4.094,-0.063l-10.125,1.063l-1.875,0.875l-1,0.188v-0.938l-6.906,-1l-3.031,-0.063l-2.063,1v0.875l-4.969,0.125l-1.094,-0.938l-6.938,-0.125l-3.875,0.063l-1,0.875l-5.123,0.125v-1.125l-15,0.125v1h-1v-1.083l-13,0.083v0.833l-2,-0.75l-6.083,-0.167l-0.417,1.084l-0.5,-1h-9v1l-8.042,-0.167l-0.958,-0.833h-2l-1.083,0.958l-4.833,-0.125l-28,1.167l-1.333,1l-2.75,-0.167l-1,-1.833h-3.833l-1.417,0.792l-2.75,0.125l-2,-0.917l-2.833,0.083l-2.167,1.75l-1.083,0.083l-0.918,-0.916l-7,-1h-8l-2.083,0.625l-0.917,-1.625h-3.501l-1.665,1.125l-0.834,-0.125v-1.083l-0.875,0.083l-1.375,1.75l-1.833,0.083l-0.917,-0.833h-6l-0.667,0.917l-3.333,0.083v-4.917l-4,-0.083v4.083l-1.75,2l-1.333,-0.167l-0.917,-0.833l-9.333,-0.167l-0.667,-5.916h-2.917l-2.25,4.917l-0.833,0.083v0.917l-3.208,-0.167l-0.958,-0.75l-3.75,-0.083l-1,1.167l-1,-1.25l-2.084,0.166v1h-1.583l-0.667,-0.958l-11.75,-0.125l-0.917,-2.833l-4.167,-0.333l-2.916,3.249h-6l-1.417,1l-3.583,-5.083l-5.917,0.083l-1.083,4h-2l-0.583,1.917l-0.417,-2l-11,-0.083l-1.083,-3.833l-2.917,-0.083l-1,2.917l-1.083,0.917l-0.917,0.248v-1l-6,-0.083l-1.167,0.917l-3.917,0.167l-0.917,-5h-3l-1,1.083l-1,3.917h-1l-1,-0.917l-8.917,-0.167l-0.917,0.917l-1.165,0.166v-1l-0.875,-8.917l-15.042,-0.083l1.917,2h-18v-1.917l-22,-0.167l-1.833,-0.917l-1.167,0.833l-6.833,0.167l-1.167,-1h-2.917l-3.167,2.958l-4.916,1.043v2h-1v-1h-1.833l-0.167,-1.75l1,-0.25v-0.917l-0.25,-0.917l-30.917,10.917c-20.417,6.75 -27.667,10.917 -27.667,10.917c-17.417,7.5 -29.167,9 -29.167,9h-17.167l-6.87,-1.578c-5.25,1.5 -19.047,10.495 -19.047,10.495c35.844,19.01 96.333,43.336 96.333,43.336l2.333,-0.002c4.75,0.083 54.917,-2.25 54.917,-2.25c5.833,-0.583 69.5,-7 69.5,-7h68.083l82.854,-3.146l0.125,-8.854l39,0.063l-12.06,0.936v2.875l-1,0.125v-1h-14.125l-1.875,1h-6.063l-0.063,3l2,1l31.25,-0.938l41.876,-3.062v-0.938l-10.813,-1.563l16.479,-0.5l1.333,-1v-3h-1v-1l1.688,-0.042l1.229,1.042l0.083,3h1.792l0.208,1h0.833l1.542,-0.875l13.626,-0.124v1l79.021,-3.063l-0.021,-0.937h-15.375l1.375,-2h19.938l0.063,-1h60.667l25.667,-27.917zM558.162,1067h1.775v1.92h-1.775zM558,1075.188h1.05v0.75h-1.05zM548,1086h-1v-1h1zM554.838,1073.938h-1.676v-0.938h1.676zM558,1089v-3h3l1.188,3zM564,1080.813h-1v-0.813h1zM567,1068.25h-1v-1.25h1zM570.838,1073.938h-1.676v-0.938h1.676zM594.162,1063h1.15v0.938h-1.15zM594.162,1067h1.676v0.938h-1.676zM576.162,1062.455h1.338v1.465h-1.338zM577.875,1067v0.938h-0.813v-0.938zM575,1080h1v0.813h-1zM571.938,1067h-0.75v-0.938h0.75zM580,1089h-3.838l-2.068,-3h5.906zM587.938,1074.25h-0.75v-1.25h0.75zM600,1086.813l-2,1.188v1h-2.162l-2.025,-2.75l3.5,0.625l2.687,-0.876zM608,1073.938v0.062v1.188h-1.813v-1.188h-1.187v-1h3zM612.25,1089l-1.313,-5.938l2.063,-1.062v2.813l3,4.188h-3.75zM614,1067v2h-1v-2zM613,1063.938v-0.75h1v0.75zM617,1076h-1.063v1.125h-0.813v-1.125h-1.124v-1h3zM621,1088l-2,-1v-1h2zM619,1081v-1h0.813v1zM617,1058l-4,-4l0.083,-0.958l-2.083,-0.042v-2h9l2,2h1v4l-1.167,1zM627,1074v1h-3v-1h-1v-1h4zM633,1064h-2v-1h2zM633.333,1067v2h-1.083v-2zM632,1075v0.938h-1v-0.938zM631,1069.875h-2v-0.875h2zM634.688,1089h-3.688v-3h4zM639,1086.625l-0.5,0.188l-0.5,-0.813h1zM641,1056.969v2.031h-13.094l-0.938,-2h-1.968v-2h1.906l1,0.531l10.656,-0.531l2,0.031l0.438,0.969zM645,1075l-3,-1.063v-0.937h3zM654,1089h-5l-1,-2.75v-4.25h2l0.297,3.063l2.641,1.313l1.063,1.813v0.811zM647.938,1069.875v-1.5h0.813v1.5zM650.594,1067v2h-0.594v-2zM650,1063.92v-0.92h1.188v0.92zM652.75,1076.563l-1.75,0.563v-2.126h3zM657,1083h-1v-3h1zM646.969,1059h-2.969v-2l10.719,0.188l1.281,-2.188h0.875l3.125,4zM662.313,1075l-1.313,-1v-1h0.969l0.969,1zM670,1089h-3l0.031,-1l2.016,-1l0.953,1zM667,1064v-1l1,0.563zM668,1069.125v0.75h-0.875v-0.875zM668,1081v2l-1,-2zM671,1077l-1.5,-0.938l-1.5,-0.062v-0.781l2.063,0.078l0.938,0.766v0.937zM675,1086.813h-2v-0.813h2zM675,1059h-8l-2.313,0.5l-0.687,0.5v-3l3.719,0.156l0.281,-2.156h1v1l3.594,0.188l0.406,-0.188h2zM680,1075l-2.938,-1.063l0.938,-0.937h2zM683,1069h2l2.063,-1l0.938,1.125v0.875h-5v-1zM686,1075v0.938h-1v-0.938zM687,1089h-4v-2l1,-1h3zM689,1077h-1v-1l1,0.063zM691,1082.813v-1.813h1zM699,1075.75l-0.766,0.313l-2.078,-3.063h1.969l0.875,1zM707,1089h-5.125l0.125,-7h2l-0.688,1l-0.313,3h2.75l1.25,1v2zM707,1077h-3v-1h3zM701.875,1070l2.125,-2v-4h1l0.125,4.688l1.875,1.312zM711,1087l-1,-0.25v-0.75h1zM711,1083h-1v-2h1zM715,1075h-1v-2h1zM715.063,1065h-1.063v-1h1.063zM721,1064h3v1h-3zM720.281,1068.906l1.781,-0.906h0.938l1,1v1l-4,-0.125zM722.25,1083h-1.25v-2h1zM721,1089l-0.25,-2l-0.75,-0.25v-1.75h1v1.5l3,0.719l0.094,1.781zM725.063,1076.688l-1.938,0.313v-1l1.938,0.063zM728,1083.125l-1,-0.313v-0.812h1zM740,1064h2v1.25l-2,-0.25zM736,1076h-2v-2h2zM739.031,1069l1.016,-0.25l2.039,-0.75l0.914,1v1h-5zM742,1089h-2v-3h2zM744,1077h-4l-0.063,-1l4.063,0.063zM746.375,1083l-0.375,-2h2zM759,1064h1v1.25l-1,-0.25zM758,1069h3l0.938,1h-3.938zM752.063,1074l2.938,2h-3zM759,1089h-4v-1h4zM759,1083.125l-1,-0.313v-0.812h1zM761,1077v-1h1l-0.063,1zM764,1089h-1.688l-0.313,-1h2v1zM765.875,1083h-0.438l-0.438,-2l0.875,0.313v1.687zM766,1076.875h-1v-0.875h1zM771.125,1076v-2l0.813,2zM776.938,1089l-1.938,-1h3zM784,1088h-1l1,-1.938zM798.063,1089h-5.063l0.063,-1l3.375,-2h3.562l-2,2zM802,1089v-1h1zM804,1082.563l-1,0.563v-1.126h1zM820.563,1080l1.313,0.083l-1.313,0.917zM823,1087h-2l-0.875,2h-8.125l0.031,-1l4.094,-2h6.875zM842.75,1087.5l-4.063,1.5h-5.687v-3l4.938,-0.063l1.313,-0.938h2.749l1.063,1zM859.125,1087.938l-0.5,1.063h-6.625l0.125,-1.063l3.25,-1.938h4.625zM877.438,1080.083l0.25,-0.083l1.313,0.083v1.792l-2,-0.938zM879,1087.063v1.937h-8l0.016,-0.875l2.422,-2.125h6.562zM880,1115.75h-2v-0.75h2zM895.125,1089h-7.125v-1h3l3.375,-2h2.625l-1.938,2zM898,1081.125h-2v-1.125h2zM913,1087l-1,1v1h-5l0.219,-1l1.156,-2h7.625zM931,1089l-6,-0.25v-2.75h6zM935,1080.938l-1,1.188l-1,-2.125h2zM938,1108v-1h2zM951.987,1086.969l-2.987,0.281v1.75h-6l0.789,-0.875l3.773,-2.125h6.438zM968.188,1087.938l-0.125,1.063h-5.063l0.063,-1.063l3.437,-1.938h4.5zM980,1089v-2l0.625,-1l2.375,3zM988,1083.125v-2.125h1zM1008,1088l-0.813,1h-6.187l0.094,-1.156l0.906,-1.844h2l0.563,1h2.437l1,-1zM1080,1057h1v-1h2v1l-1.042,1h-1.958zM1072,1054h1.958l1.042,1v1h-3zM1053,1054h3v2h-2.042l-0.958,-1zM1018,1089v-2h6l1,2zM1034,1089v-1h4l0.375,1zM1044.875,1058h-0.875l-1,-1v-1h2.792l0.167,1zM1052.042,1085.5c0,0 17.125,-2.083 34.75,0c0,0 -27.375,1.667 -34.75,0zM1092,1055.708h-0.958v-0.708h-1.042v-1h2zM1100,1058h-0.958l-0.542,-1h-1.5v-1h1.917l1.083,1z"></path><path d="M1263.312,966.876l-36.813,30.001c-17.125,13.375 -52.418,44.001 -52.418,44.001l-3.96,1.378l3.954,-82.744c-3.25,-9.417 -7.758,-10.322 -7.758,-10.322c-5.667,1.75 -24.182,13.857 -24.182,13.857c-0.037,0.022 -21.115,16.63 -21.115,16.63c-4.979,45.844 5.313,72.323 5.313,72.323l2.333,3.167c9.833,13 32.5,27.167 32.5,27.167l34,-22.833c-3,6.833 -38.667,45.333 -38.667,45.333l28.167,0.333l2.334,4.833h-34.667l-18.833,21.25c-13.833,15.667 -45.333,58.25 -45.333,58.25l-28,35.292l66.708,0.333l35.289,-42.625l46.836,-56.5v-1h-2l-5.75,0.938l-0.25,-1.938h5.875l0.125,-3h-13.125l-0.125,-1.125l8.625,0.875l2.625,-0.75h8.875l48.125,-59h-54v-2h56l75,-91l1.128,-1.042zM1112,1171h-2v-1h2zM1113.75,1169h-0.75v-1h0.75zM1120.083,1169h-1.083v-1h1.083zM1125,1171h-2l2.313,-2.813l0.5,1.813zM1196,1125h1h1v3l-2,-1.5zM1194,1124h1v2h-1zM1184,1117v-1h2v2h-1.188zM1186.938,1151h-1.938v-2h3.125zM1201,1111.188l-0.853,-0.313l-0.147,-0.875h1zM1207,1111l-3,-0.406v-0.594h3z"></path><path d="M1118,1232l-1,-1h4.142l3.233,-3.875l-64.875,-1.375l-19.75,27.375l2.25,-0.125l-0.25,0.875l-2.813,0.333l-35.688,46.417l-56.125,70c-7,7 -17.5,23.375 -17.5,23.375c-5.25,3.125 -9.625,10.125 -9.625,10.125l16.875,-8.875l17.5,-22.625l16.25,-19.25c3.375,-3.375 21.125,-25 21.125,-25c1.625,-2 7.25,-1.375 7.25,-1.375l6.75,-9.125c10.875,-1.125 16,-4.25 16,-4.25l30.75,-17.5c6.875,1.125 17.125,-3.375 17.125,-3.375l50.683,-60.75zM1062,1254h-7v-1h7zM1069,1232h-8.833l0.958,-0.917l7.875,-0.083zM1075,1254v-1h2l1.125,1zM1082.875,1232h-0.875l-1,-1h3zM1096,1255l-1.583,-0.208l-1.083,-0.792h-1.334v-1h2l0.875,1h1.125zM1101,1232h-4v-1h4zM1109,1232v-1h5l0.958,1z"></path><path d="M2098.875,974c0,0 -2.375,-1.875 -5,-2c0,0 -172.125,-14.25 -250.875,-15.25l-40.5,-0.25c0,0 -4.833,7.5 -7.5,10.167l-207.333,-3.5c0,0 -18,22.167 -19.333,26.333c0,0 -5.833,9.667 -8.833,11.667l-14.667,-26l-108.667,-2.333l62,-76.5l54.833,-67.667c0,0 0.167,-15.667 -1.667,-25.667c0,0 -2.5,-19.5 0.167,-24.5c0,0 8.667,-12.833 9.5,-17.667c0,0 2.333,-3.5 5.5,-5c0,0 3,-1 4,-4.667c0,0 2.5,-4.5 5,-7c0,0 12,-15 13.167,-17.333c0,0 1,-4.167 -1.833,-2.5l-10.834,12.834l-4,-0.333c0,0 -5,6.833 -7.667,9c0,0 -9.833,11.333 -10,16.167c0,0 -2.5,7.667 -11.333,14.5c0,0 -8,8.167 -12.833,16c0,0 -8,16.667 -12.667,18c0,0 -1.167,6.5 -6.333,7.167c0,0 0.344,-3.359 2.667,-3.5c0,0 -7,-0.333 -12.333,7.167c0,0 -0.667,3.5 -5.5,3.667l-7.375,-0.375l-57.563,66.625l-61.594,70.563l-59.047,72.531l-19.574,24.367l73.414,-0.343l38.994,-45.871l65.122,4.627l-0.126,1.376l-56.251,39.875l70.875,-0.625l0.125,-3.937l2.75,4.188h8.25l54.625,-39.937l-28.126,39.934h11.5c0,0 20.375,21.125 24.375,22l5.375,1h11.25c0,0 6.125,-12.25 11,-16.125l134.125,-13c0,0 16.875,-30 22.625,-32.75l-133.75,4.875c0,0 8.875,-19.125 9.25,-20.75l63.75,-1.375c0,0 6.25,-10.75 9.875,-11l74.375,0.25l12.5,1c0,0 10.25,-12.75 14,-13.875l-52,115.75h35.25l45.75,-4.083l0.25,-0.833h1l0.083,1.083l6.005,-0.088l0.079,-1.078l7.167,0.083l54.667,0.083l2.125,2v-2.063l1.375,-0.021l1.333,1.5l0.091,-1.497l1.993,-0.086l0.333,0.917l49.375,-0.292l-29.625,-12l0.375,-3l3.625,1.125l33,-8.925v-0.825h0.75l0.146,0.583l13.318,-3.602l-0.151,-0.981h0.936l0.135,0.732l26.74,-7.232l77,-23c0,0 46.375,-13.125 50,-25c0,0 -19.375,-26.125 -23,-33.5zM1567,1050h11l-0.313,1h-10.687zM1565,1049l-1.063,-0.313l-0.625,-0.609l-1.063,-0.922l1.719,0.578l1.032,0.266zM1587,1054h-20v-1h20zM1851,1079h-1v-2h1zM1865,1077l-2,2v-3h2zM1878,1077h-2v-1h1v-2h1zM1891.125,1077h-1.125v-2h1.125zM1904,1078l-1,1h-1v-2h1v-3h1zM1955,1064h-1v-2h1zM1955.375,1057.938h-1.375v-0.938h2zM1958,1058.75h-1v-0.75h1zM1935.667,1023.833c-14.5,3 -93.5,24.167 -93.5,24.167c-4.5,-3.333 -25.167,-10.333 -25.167,-10.333l16.167,-39.833c59.833,-1.834 178.833,4.166 178.833,4.166c-4.5,2.833 -76.333,21.833 -76.333,21.833z"></path><path d="M1482.917,1065.167l-42.917,-1.167v-3h-32l-66.083,45c-5.917,3.667 -21.667,14.917 -21.667,14.917l1.75,0.083v1h-4.083l-3.833,2l0.75,2.75l-4.5,0.167l-0.334,1.083h-2l4.083,-6.125l-6.083,0.125v2.667l0.708,2.167l-1.792,-1l-0.167,-2.917l-2.667,-1.083l-0.082,-0.834h10.917l49.083,-60h-73l-46.083,59.917l5.083,0.083v-1h1.833l0.167,1h4.083l-0.167,-0.75l1,-0.25l0.083,1h9.667l1.417,-0.833l1,0.75l16.833,0.167l-1.667,1.5l1.751,3.416h-4.083l-40.917,0.125l-27.167,36.625l26.25,18.333c9.083,6.917 43.75,28.75 43.75,28.75c3.167,1.917 4.083,1.333 4.083,1.333l28,-20.333l34,-25l0.084,-0.833h-5l-1.917,1.042l-0.167,-1.208l-8.667,0.167l-12.083,0.917l-0.167,2l-3,0.083v7h-17.833l-0.25,-2.083l-2.833,-1.833l2.833,-0.333l0.167,-1.75l-6.167,-0.167l-2.916,1.165h-44.917l-4,-1.042l2.083,-1.875l9.834,-0.083v1h2l0.917,-0.917l19.083,-0.083v1h2.833l1.167,-1h9.583l1.417,-3h8.75l-0.75,-1.5l1,-1.5h19.917l4.833,-1.042l0.25,-3.958h-3.75l11.75,-4l3.167,-0.083l3.833,4.083h7.958l0.083,-4.958l0.917,-0.167l0.042,1.125h9v-1.083l0.896,0.083l0.104,1h2.25l0.75,-0.917l-0.167,-2l-0.833,-1.083h2.833l0.167,3h5.75l6.25,-5h-7l0.083,-0.875l4.917,-1.125h4.583l17.25,-12.958l-18.917,-0.292l0.084,-0.75h20l8.833,-6.458l-2.833,1.458h-16.5l-9.75,1.833l-26.667,-0.083l-4.667,-4.75l-6.167,-0.917l5.833,-1.25l10.418,-0.833l1.5,0.917l3,-0.083l1,-0.833h2.25l1.75,1h1.75l1.083,-0.958l4.5,0.125l1.5,0.75l37.083,-0.083l10.083,-7.667l-53,-0.25l0.25,-0.833l2.751,-2.085l35.75,0.917l19,-0.917l54.5,-40.75l-39.083,-1l40.667,-0.25zM1274,1112.833l-1,1.167h-2v-2l1,-1h2zM1277,1099h-1v-2h1zM1232.833,1144h-0.833v-1h0.833zM1235.75,1170.5l-0.75,0.5v-1h0.75zM1298,1179.917l7.25,-0.917h6.75l2.833,0.917l0.875,-0.917l0.292,0.917v1.083l-18,-0.25zM1258,1152h-1l-1,-1h-14v-1.833l1.958,-0.75l12.958,-0.333l0.083,2.125l1,0.792v0.999zM1262,1152v-1h4.917l1.083,1zM1271.833,1152h-1.833l1,-1h0.833zM1276,1150v1l-0.313,1.026l-1.813,-1.932l0.875,-1.073l1.251,-0.021zM1295.083,1121h1.917v1h-1.917zM1292,1126.083l2.146,-1.083h1.854v2h-4zM1287,1152h-5.083l1.614,-1.508l0.511,-0.492h1.542l1.417,1v1zM1290,1122h-1.833l0.917,-1h0.916zM1291,1152v-2l2,1.013l3,-0.013l1.667,-0.958l1.25,1.984zM1299.833,1127h-0.458l-0.458,-1l0.917,-1v2zM1306,1152h-4l0.75,-1.969l0.667,0.984l2.583,-0.015zM1311.917,1152h-1.917v-1l1.917,0.016zM1323,1127h-2v-1h2zM1352,1144h4l-0.833,2h-4.167zM1352,1148h1v1h-2zM1360,1111.917h-1v-0.917h1zM1364.75,1112h-2.75v-1h4z"></path><path d="M1515,1065h15c0,0 6.833,0.75 9.833,4.833l15.042,15.833l9.125,0.417v0.917h6l-3,5h-3l-2.25,-2.083l-6.75,0.167l-0.75,-1l-2,0.833l-5.583,1.083l-4.167,-0.083l-0.75,-0.917h-23.75l-0.083,4.125l-0.75,0.875h0.833l-0.083,3.583l-2.792,1.729l0.938,1.625l1.938,0.146l-0.167,6.75l-32.917,0.167z"></path><path d="M1651,1094l0.917,-1l2.083,1h62l6,-15.083l-60,9.083l-54,9.083l-48,10.083l0.667,-3.25l-13.833,-0.167l0.167,8.333l-11.083,-0.083l-1.333,-1.083l-1.667,1l-24.75,0.208l-2.168,0.876h-23.75l-2.218,3.097l0.051,1.153l27.917,-1.167v3.917h3l0.75,-0.917l2.167,1.917h39.083v-2l3,2v3l-3.25,1h-66.75l-1.083,1.583l-12.917,0.625l-1.917,2.792h4.917v2h-6.25l-1.5,1.75l38.333,29.25h2.417c0,0 19.917,-7 34.833,-10.083l15.583,-4.083l-10.583,-2l-13.583,-0.083l0.667,-0.75h24.083v-1l3,-0.083v1.082l10.917,0.083l19.125,-5.083l1.958,-4.083v-6.917l2.083,-1.083l6.75,0.167l3.167,1.083l-3.25,2.667l0.25,5.375l1.333,0.792h1.667l9.833,-2.083l2.167,-0.75l4.75,-0.167l-2.5,-1l-9,0.083l0.667,-2.083l0.25,-4l9,-0.083l-0.167,-3.833l-1.583,-1.167l21.583,0.167v7.915c0,0 21,-4.75 29,-5.167v-0.833l-4,-0.333v-2.667l1.563,-0.917l3.146,-0.083l2.292,1.917v2.083c0,0 14,-2.417 30,-7.167v-0.833l-1.875,-1l-4.125,-0.167v-1.833l7.917,-0.042l5.082,-9.958h-20l0.167,1.667l0.583,1.333h-1.75v-3h-19l0.083,1h-26.083l-0.917,3l-2.75,3l-0.417,-7h-14.916l1.083,-3h13.917l0.25,-4h4.75l-1,0.833l0.083,2.917l1.833,1.333l45,-0.083l0.917,0.917l18.917,0.125l4.25,-9.042h-2l-1.083,0.833l-2,-0.167l-0.917,-0.666h-4l-1.25,1l-23.667,-0.083l-0.167,1.083l-3.917,-0.125l-1.333,-0.875h-19.666l-0.833,1.75l-2.667,0.25l-0.583,-0.917l-4.917,-0.25v-2.833zM1575,1136l-2,1.125v2.875h-3l-2,-1.063v-0.937l3,-1.125v-1.875l3,-0.125l-1,-2.875h2zM1584,1130h-1v10l1,1.688l-2.063,-0.75l-0.938,-0.188v-11.75h3v1zM1594,1127l-8,-0.188v-0.812h3l1.375,-1h1.625l2,1.25zM1594,1122l-3.063,0.313l-0.875,0.688l-5.063,-0.188v-1.813h9v1zM1607,1126.813h-2v-1.813h2zM1701.938,1106h0.938l1,1l-0.875,1h-1.063l-0.875,-0.938zM1690,1115h3v2l-1.5,1l-1.5,-1.438zM1682,1115h2l1,1.563v1.437h-1l-1.063,-1l-0.938,-0.125v-1.875zM1654,1127h-2l-0.969,-1l2.969,-0.094zM1670,1116.813v1.187h-2l-0.719,-1.813l1.703,-1.063zM1664,1111h4v1l-4,-0.031zM1652,1110.125v0.875h4l-2,3h-1l-2,-2.031l-0.063,-2.031zM1651,1099h5l-2.125,3h-1.875l-1,-1.188z"></path><g><path d="M2050.375,1129.25l-4.25,0.375l-0.21,-1.87l-26.785,-8.977l-1.463,1.222l-4.917,-0.833l-3.333,-0.417l0.5,-0.833l5.865,-0.261c0,0 -38.448,-13.906 -49.782,-19.322l-15.083,-6.333h-123.917h-16h-8l-13.25,2.5l-0.625,1.375l-4.25,0.125l-0.75,-1h-1.125l-1.5,0.875l-3.25,-0.125l-0.375,-0.75h-3.875l-1.625,0.875l-3.625,-0.25l-1,-0.625h-4.75l-0.188,1l-1.5,-0.125l-0.25,-0.875h-5.062l-0.938,0.938l-8.938,0.125l-1.063,0.625l-0.125,-0.563l-7.031,-0.245l-0.469,1.12h6.564v2l-7.45,-0.098l-0.949,2.115l3.399,-0.018v2l-4.29,0.003l-0.522,0.997h4.812l-0.25,1h-4.936l-4.901,11h5.087l0.958,2h-6.958l-3.162,6.955l3.162,1.003v1.042h-3l-0.644,-0.925l-1.481,3.3c0,0 -29.25,58 -29.875,67.5c0,0 6.75,7.25 21.125,24.625l12.5,13.625l2.125,1.5l2.25,-1.5l2.875,-0.125l18,-42.125l19.375,-42.625c0,0 9.75,-22.125 11.125,-25.75c0,0 1.625,-4.75 2.625,-5.25v-1.25h-5l-1.063,-1.188l-0.875,0.313l-0.188,0.875h-0.874v-2l3.875,0.125l1.25,0.75l3.75,-0.063c0,0 0.313,-0.938 1.188,-2.688l-2.063,-0.124l0.875,-1l1.938,-0.063c0,0 3.75,-11.125 7.938,-12.125l20.5,8.25l19.938,7.938l13.813,0.063v0.937l-4,0.063l-0.25,0.875l-1.752,-0.938h-3l0.188,0.938c0,0 9.281,3.438 15.906,7.75l13.906,7.438v-2.126l1,0.25v2.75c0,0 47.625,21.625 108.25,40c0,0 49.5,14.5 57.375,17.125c0,0 44.75,-38.25 48.25,-48.875zM1716,1159v-1h2v0.021l1,0.979zM1730,1159v-1h1.208l0.792,1zM1731.125,1133.083l-2.125,-0.292v-0.791h1l0.833,-0.958l0.333,0.958h0.834zM1772.042,1113h0.917l1.292,1h-3.167zM1765.917,1107h0.917l1.208,0.5l-0.958,0.5h-1.084l-0.896,-0.5zM1758.958,1113h1l0.958,-0.833l-0.833,1.875l-1.958,-0.292zM1755,1107v1h-2l-1,-1zM1746,1113h1.042v1.042h-1.958zM1741,1107l0.958,1l-2.792,-0.208l-0.166,-0.792zM1736,1125h2.083l1.792,1l0.292,0.833l-4.167,0.167zM1742.125,1159h-1l-0.125,-1.167l1.125,0.167zM1743,1132v1h-3v-1h1l1.208,-1.167l0.792,0.208zM1739,1118v-2l1.917,-0.833l0.083,0.833h8l-1,2zM1749,1127v-3h0.917l3.083,2v0.833zM1756,1159h-3l1,-1h2zM1754,1133v-1l2.083,-0.083l0.917,1.083zM1766,1127h-4.313l1.313,-2h1l0.167,1h1.833zM1768,1154h-1v-1h1zM1768,1133v-1l0.875,0.063l0.208,0.938h-1.083zM1771.083,1117l-1.083,1h-19v-2l3,0.208l1,-1.208v1h17.125l0.875,1h2v1h-3v-1zM1779,1126l-1.292,1.917l-0.917,-0.917h-1.791v-1h1l1,-1v0.75zM1780.792,1107.792h-1.792v-0.792h2zM1806,1096v-2h1v1.042l1.042,0.958zM1819,1108.917h-1v-1.917h1zM1820,1096h-1v-1h2zM1833,1108.917h-2v-0.917h2zM1833.875,1095.75h-1.875v-0.75h1l0.875,-1zM1837,1114.125v-1.208l0.958,0.25l1.208,0.75zM1843.958,1108.917h-1.917v-0.917l1.042,-0.042l0.875,-0.958zM1843.958,1096v-2l2,2zM1972,1108h1v3l-1,-0.167zM1966,1114l1,0.583v0.417h-2l-1,-1zM1958,1109l1,-1h1v1l-2,1.833zM1948,1108l-0.5,2l-0.5,-2zM1935,1108l-0.833,1.75l-0.167,-1.75zM1926.938,1114l1.125,0.5l-1.031,0.5l-1.031,-0.5zM1922,1096l1.042,-1h0.958v1h-0.958l-1.042,2zM1921,1108h1l1,0.833l-0.833,0.917l-1.167,-0.75zM1909,1096h1v1l-1,0.208zM1908,1108h2v1h-2zM1894.917,1108l0.083,-1h2v2l-1,0.125l-1,0.625l-0.792,-0.75zM1869,1108.208v-0.208h1v1.125h-1zM1857.833,1119h-0.833l-2.042,-1l-0.958,-1h5zM1857.125,1097h-1.125v-2h3zM1864,1118h-1v-1h1zM1869,1128h-1l-1,1h-1l-0.083,-0.958l-0.917,0.042v-2.084h3l1,1zM1872,1119l-1.5,-0.25l-0.5,-0.75h-2v-1h4zM1872,1096h-0.792l-0.333,1l-1.875,1v-2l2.188,-1.917l0.812,-0.083zM1878,1128v-2h2l1,0.917l1,0.354l1,0.729zM1882.792,1110h-0.792v-2h2zM1885,1096h-0.979l-1.021,1h-1v-1l2.104,-2h0.896zM1894.833,1128.708l-3.625,0.292l-0.208,-3c0.167,0.125 1.563,0 1.563,0l0.479,1h1.958zM1902,1123.958h-1.917v-0.958l0.792,-0.917h1.125zM1902,1119h-6l-0.792,-1h-1.208v-1h3v1h5zM1905.792,1128.625l-0.708,0.375l-1.083,-1.25v-0.75h4zM1911,1133.813h-1v-0.813h1zM1916,1119h-8v-1h8zM1921,1128l-1,1l-1,-0.25l-2,-0.75v-1h4zM1929,1119h-9v-2h2l0.958,0.792l6.042,0.208zM1930.5,1127h1.375v1h-1.875zM1933,1148.813l-1.125,-0.375l1.125,-0.375l1,0.188zM1938,1120v2.083l-1.104,1.708l-1.833,0.292l-0.063,0.917h-1l-1,-1v-7.917l4.115,-2.938l0.948,-0.188l-0.063,5.043h4.958l0.167,1.073l-4.042,-0.073zM1945.792,1128.104l-0.792,0.896h-1l-1,-1v-1h3zM1951,1160h-3v-1h3zM1948,1133.406l0.75,-0.406h1.25v0.813l-1,0.188zM1949,1119l-0.417,0.906l-0.583,-0.906h-3v-1h8l0.167,1zM1957,1129h-2l-0.833,-1l0.833,-1h2l1,1.167zM1960.406,1160l-0.469,-0.5l0.438,-0.5l0.5,0.5zM1971,1130h-2l-2,-2v-1h4zM1974.125,1119l-0.542,0.906l-1.083,-0.906l-11.375,-0.047l-0.625,0.953l-1.125,-0.906h-2.375v-1h3l0.583,-1l0.458,1h18.959l-0.208,0.953zM1980,1124l0.833,0.167l0.208,1.708h-0.75zM1984,1130l-2.958,-2.208l-0.042,-0.792h3zM1984,1118h-1v-1h1zM1984,1109.417l1.333,-1.417h0.542c0,0 0.042,2.063 0.167,2.063c0.125,0 -2.042,0.937 -2.042,0.937zM1987.75,1134.188l-1.875,0.813h-0.875l0.125,-1l1.188,-1h1.687zM1988.042,1120h-1.042l-0.953,-1l-1.023,-0.047l-0.024,-0.953h13v1h-9zM1993.917,1128l-0.917,-1h4l2,2.208v0.792l-5,-0.167zM2000.938,1136h-0.938l-1,-1l-0.063,-1.031l1.031,-0.953l1.891,1.898zM2006,1119h-1l-0.125,1l-0.917,-0.094l-1.083,-0.953l-1.75,0.094l-0.708,0.953h-1.417v-1v-1h7zM2011,1130h-3v-3h2l1,1zM2020,1127h2l2,0.917v2.083l-4,-0.25zM2027,1136h-1l-2,-1v-1h3zM2037,1129l-1.292,1h-2.708v-3h4zM2040,1134.188h-2v-1.188h2zM2053,1162h-2v-2h2z"></path><path d="M1731,1236h2v1.063l-1,0.937h-2z"></path></g><path d="M2496.25,949c0,0 -2.25,6.25 -29.5,5l-47.125,4l-10.375,-0.125l-10.125,-1.875l-6.875,0.125c0,0 -53.125,5.375 -74.25,6l-131,6.125l-22.375,47.688l-37.892,74.996l53.267,-0.934l17.875,-20.875l9.625,0.094c0,0 13.625,-28.297 16.625,-33.672c0,0 7.313,-14.398 7.938,-16.648c0,0 2.906,-6.637 6.531,-7.387l92.016,-7.631l117.39,-6.756v0.875l-54.125,18l-74.125,24l-98.75,29h150c0,0 13.375,-5.5 22.5,-7.875l17.5,-5.375l-1.875,-2.5l2.625,-0.125l1.5,1.75l119.75,-43l12.125,-65.875zM2357,1049h-1.75l-0.75,-0.917l-4.417,-0.083l-1.083,1h-1.167l-0.833,-1h-29v-1h36.417l2.583,1zM2386,1052h-3v-1h3zM2396,1052h-6v-1h6zM2404,1052h-1.583l-0.667,-1h2.25z"></path><path d="M2212.167,1071l-5.167,2v-2h-6.917l-18.083,21h-56l-54.375,19.75l0.375,4.25h-0.75l-1.625,-3.125l-6.125,1.375l-0.125,1.75c1.25,3.25 30.375,23.875 30.375,23.875l1.5,-3l13.75,0.25l-2.75,2.75l-6.25,0.125v2.625l1.688,1.75l0.188,6.5l-3.875,-0.125l-2.75,5c1,-1 6.75,-0.75 6.75,-0.75v4.75l-1.813,-0.125l-5.813,-2.125c-2.614,3.984 -12.841,28.578 -26.042,57.25c-1.038,2.254 -4.31,7.548 -5.375,9.833c-0.73,1.569 -0.397,4.14 -1.167,5.667c-12.583,24.958 -23.042,46.375 -23.042,46.375l-39.875,85l-33.875,70.25c2.75,-0.25 4,-1.625 4,-1.625c3.375,-5.875 13.125,-9.625 13.125,-9.625c6,-3.125 7.5,-8.625 7.5,-8.625l20.625,-44c5.125,-10.125 9.75,-14 9.75,-14h2.375c4.75,-6 9,-6.625 9,-6.625l3.375,-0.625c3.625,-5.125 18.125,-15.875 18.125,-15.875l30.126,-19.625c1.875,-1.5 2.875,-3.25 2.875,-3.25l21,-43.25l47,-94.875c5.5,-11.5 18.375,-35.125 18.375,-35.125l70.583,-23l1.5,-1.667l0.667,0.833l57.5,-17.917c27.917,-6.833 62.5,-22 62.5,-22h-152.833zM2081.083,1258h-1.083v-1h1.083zM2109.083,1257h-1.083v-1h1.083zM2225.917,1090h-1.917v-1h1.917zM2257.917,1099l2.083,-4.625v-0.375h6.583l1.583,2.708l2.834,2.292z"></path><path d="M2409.34,1064.25l28.66,-14.417v3.167l1.5,1l18.417,-5.917l-1.084,20.917h-49.833z"></path><path d="M2632,960.25c-0.125,-6.125 7,-11.625 7,-11.625l-3.25,-7.25l6.25,-18.375v-6l-3.125,2.375l-5.875,1.625h-1.875l-9.5,15.75l-45,71.5l-40.25,64l-6.125,5.625l-21.375,12.875l-40,27.625l-38.875,25.625h-2v-2.875l4.906,-4.188l0.469,-2.75l-1.438,-1.438l25.063,-61.749h-51l-18.522,42.756l13.022,0.369l-2.375,3.375l-4.375,-0.625l-7.417,-0.708l-21.333,54.833v3l10.875,9.125c10.125,8.625 26.5,19.125 26.5,19.125c5.25,-2.25 24.875,-19.125 24.875,-19.125c2.5,-1.5 24.25,-14.875 24.25,-14.875l38.625,-27.25c8.375,-6.5 10.875,-5.875 10.875,-5.875c-1.375,4.375 -20.75,43 -20.75,43c0.75,2.25 5.125,2.75 5.125,2.75c6.125,0.5 17.875,9.875 17.875,9.875c22.5,15 22.5,12.125 22.5,12.125l40,-74.75l-38.625,-0.25l-1.125,-1.875h17.625l1.5,0.813l4.75,-0.063l1.125,-0.75h13.125l0.625,0.813l1.875,0.313l8.125,-16l-38.875,-0.375l2.5,-1.625l2,-0.125l0.625,1h4.875l1.375,-0.875l1.875,-0.25l1.125,1.25l14.75,-0.126l2.25,-1.25l9,-0.5l32.75,-59c3.875,-5.25 13.25,-25.5 13.25,-25.5c2.75,-5 6.625,-7.25 6.625,-7.25c-0.125,-2.25 15.5,-29.25 15.5,-29.25c-4,-4.125 -12.375,-27 -12.375,-27zM2434,1088h1.958l0.042,1h1.958l1.042,1h-5zM2411,1088h1h3l1.042,0.875l-5.042,0.167zM2421,1116h-7l-1.125,-1.042l-5.833,-0.042l-0.083,-1l-3.958,0.042l0.125,-0.958l0.917,-1l-0.125,-3.042l-2.708,-0.208l0.79,-0.75h11v1l-0.917,2h3.917l2.167,3h2.833zM2423,1130.958h-1v-0.958h1zM2421,1089v-1h9.917l-1,1.042l-1.083,-0.042l0.167,1h-1v-1zM2462,1130.979l-1.208,0.979h-0.792v-1.958h2zM2474,1130.75l-0.792,0.229l-0.208,-0.979h1zM2501.25,1131.958l-0.25,-1.958h1zM2511,1135h1v1.75h-1zM2511,1143h0.875l0.125,1l0.75,1.813l-0.75,2.187h-1zM2511,1152h2l-1,1h-1zM2524,1162h-4l-0.875,2.063l2.688,3l0.375,0.938h-4.188l-1,1h-3l-1.031,0.875l-2.969,-2.25v-4.626l1,-0.063l-0.063,-5.875l2.031,1.688l9.922,0.469l1.109,0.719v2.062zM2533,1175h-2v-1h2zM2531,1153h-16l-1,-1v-1h21zM2517,1145h6.75l0.438,1.875l-1.188,1.125h-3.875zM2550.703,1142.914l-1.641,-0.914h-3.062l-0.438,0.914l-0.594,-1.039l-28.969,0.188v-2.094l36.031,0.359zM2558,1134l-1.938,2.75l-15.063,0.375l-1.25,-1.125h-1.749l-0.938,1h-2.062l-1.125,-1h-0.875l-0.5,1.125l-9.5,-0.188l-0.813,-1.375l0.813,-1.562z"></path><path d="M2681.188,960.063c0,0 -20.219,35.188 -27.469,51.188c0,0 -17.672,34.5 -23.172,41.75l-30.471,55.479l6.811,-0.792l0.988,1.313h4.125v-1l1.125,-0.125l1,1.125h12.875l1,-1.125l4.875,0.25l1.25,0.875h27.875l18.75,-31.75l7.75,32.75h3.5l1.5,-1.125l12.125,0.25l1.625,0.875h73.75l31.875,-57.875l-6.625,-0.125l-11,2l-41,-0.125l-23.125,40.124c0,0 -18.375,-81.625 -31.5,-115.75l-16.625,-0.25c0,0 0.75,-5.5 -3.125,-8l0.125,-1.75l4,-6.5l0.375,-3.625z"></path><path d="M2836.875,973l-15.875,1h-20.125c-12.375,16 -45.063,77.25 -45.063,77.25l6.813,-0.5l1.375,1.25h15.625l1,-0.75l1.375,0.75h3l14,-0.75l15.125,-1.5l41.875,-76.75zM2778,1048h-11v-1h11z"></path><path d="M2598.792,1111c0,0 -22.708,42 -30.125,59h2.333l1.167,-1h3.833h4c0,0 24.417,-5.167 50.083,-7.083l1.917,-1l17.083,-31.083l-21.917,-1l-2.083,-1.75l26.167,-0.167l8.667,-14.833l-44.917,-0.396l-0.25,-0.688z"></path><path d="M2759.749,1148.877c0,0 17.251,-31.877 19.251,-35.877h-49l-7.167,-0.104l-1.5,-0.896h-4.333l0.167,1h-1.167v-1h-3l-1.25,1l-4.833,-0.083l-0.917,-0.917h-5l-0.75,0.917l-1.417,-0.917l-9.875,0.146l14.938,58.844l44.01,-0.953l9.755,-18.102l-9.497,-0.176l0.585,-0.838c0,0 4.084,-1.294 11,-2.044zM2744.5,1152l-0.5,-1h1z"></path><path d="M3262.375,861.625l-64.75,33l-53.875,25.5l-58.875,28.376l-161.292,79.168l-1.417,0.086l41.832,-78.495l-55.92,2.51l-4.589,-0.896l-3.762,-6.042l-1.44,-0.583l-37.297,69.083l-19.056,36.697l5.65,-0.03l1.417,1l7.917,-0.167l1.082,-0.832h3.167l1.083,1l4.583,-0.167l0.167,-0.833h2.25l0.75,0.875l25.75,0.208l6.917,5l0.333,1.917l4.5,0.083l4.5,2.917l3.167,0.083l7.417,5.083l3.5,3.583l3.917,0.333l7.083,3.917l-0.083,3h-2.167l-1.25,-0.958l-21.417,-11.792l-2.667,-0.5l-2.25,-1.583l-1.917,-0.25l-0.25,-0.75l-2.583,-0.166l-0.417,-0.75l-2.083,-2.083l-2,-0.25l-3,-2.917h-1.917l-1.25,-0.958l-5.75,0.042l-1.083,0.916h-7.917l-1.083,-1h-1.833l-1.167,1.042l-6.833,-0.208l-1.5,-0.833l-25.583,0.167l-26.084,48.832v0.833l3,6.167h42.417l1.583,-1h2.667l1.333,1h14l9.167,-17c3.917,-6.583 9.583,-15 9.583,-15l27.917,15c15.083,8.083 31,18.083 31,18.083l1.667,-1.167l2.583,-0.083l-0.75,-3.833l3.833,4h38.333l0.917,1l2.667,-0.167l0.833,-0.75l1.333,-0.083l0.917,0.833l12.083,0.25l2.333,1.75l2.584,-1.833h4.917l0.917,-1l4.083,0.083l1.083,0.917h9.167l-0.167,-0.875c-3.667,0.167 2.5,-5.042 2.5,-5.042c5.083,-3.167 10.583,-6 10.583,-6l-0.083,-0.917l-16.75,-11l-25.833,-15.166l-15.833,-9.75l-16.584,-9.25h-6.917l-0.083,-2h3.25l-2.083,-3.125l79.167,-41.542l63.916,-33.333c2.083,-1.167 4.5,-3.333 4.5,-3.333c3.5,-4.25 10.333,-8.75 10.333,-8.75l14.75,-7.083l60.167,-29.834c6.875,-3.125 10.875,-9.188 10.875,-9.188l12.125,-18.874c9,-14.188 20.563,-18.25 20.563,-18.25l10.688,-14.625c1.187,-3.375 -1.876,-1.438 -1.876,-1.438zM2923,1048h-8v-1h9zM2942,1073v1h-1l-0.063,-1h-0.937v-1h3l1,1zM2993,1072h2v1h-2zM2993,1076h2v-2h1l1.063,2h1.937v2h-7zM2988,1073h0.813v1h-0.813z"></path><path d="M2877,1111h-12.625l-1.375,1h-46c4.625,9.563 3.938,14 3.938,14l1.563,1l1.438,-1.125l0.063,2.188l-18.188,35.75l-1.814,2.187v1.75l30,22.25h0.938c1.125,-4 12.063,-23.844 12.063,-23.844l17.313,-30.719l-2.314,1.563h-27l-0.188,-0.813l26.188,-1.187h3.688l3.313,-6h-31.813l-0.188,-2h32.875zM2839,1150l0.125,-1l-4.167,-0.125l0.042,0.917l-1.875,0.292l-1.25,1.917h-12.875l1.958,-1.875l0.125,-3.917l-0.979,-0.699l2.823,-0.421l0.953,0.727l3.081,0.239l1.206,-1.053h3.833l1,1h2v2h5v1h2l1,1h-4zM2837,1141l1,-1h2v1l5,-0.167l1.167,-0.833h7.833v2l-1.125,0.958l-28.625,-0.229l3.833,-1.729z"></path><path d="M3355.5,1304.083l-10.417,-6.25c-3.25,-1.75 -24.167,-13.667 -24.167,-13.667l-1.917,-0.083l-8,2.917h-5l-29.083,-16.708l-1.25,0.542l-4.666,0.166v1h-1.75l-1.417,-0.75l-3.667,-0.5l1.667,-4.5l2,-0.75l-62.167,-34.25l-1.666,0.75v-1.583l-69.583,-37.917l-13.542,-7.542l-40.833,-22.833l-0.917,-2.25l-5.125,-25.875h-26.917l0.042,0.896l-4.042,0.146l-1.083,0.958h-2l-1.238,-0.896l-4.762,-0.271l-2,-1.833h8.125l-0.125,-3h-11h-28l-1,-1h16.042l3.958,-5h47.833l-14.833,-9h-24v-1h-34.958l-0.208,-1.167l-3.834,0.167v1h-0.708l-0.198,-0.781l-28.906,-0.031l14.438,7.813c3.75,7.125 8.375,9 8.375,9l252.333,134.917l5.666,0.082v0.75l-1.833,0.833l5.917,3.333l0.75,0.167l0.167,-3.917l-1.833,-0.25l0.832,-0.916l4,0.083l1.083,0.833l2.75,0.25l-1.833,3l-0.083,1.667l-0.917,0.167v-1h-2.917l-0.083,0.917l75,40.083h1.917l1.083,-1h29.833l1.083,-2.708zM3254,1260.75h-1.667l-0.333,-0.75h2zM3255,1265h2v1.167l-2,-0.583zM3259,1270h-1.333l-0.667,1h-1v-1l1,-1h2z"></path><path d="M3327,1312h30c0,0 4,4.167 6,5v1l-1,1.75l0.083,3.167l0.917,3.833v2.25l4.667,4h-1.667l-39,-20.333z"></path></g></g></g></g></g></g></g></svg>