<?xml version="1.0" encoding="utf-8"?>
<svg xmlns="http://www.w3.org/2000/svg" viewBox="0 0 500 500" xmlns:bx="https://boxy-svg.com" width="500px" height="500px"><defs><bx:export><bx:file format="svg"/></bx:export></defs><g id="SVGRepo_bgCarrier" stroke-width="0" transform="matrix(1, 0, 0, 1, 100.820969, 76.461388)"/><g id="SVGRepo_tracerCarrier" stroke-linecap="round" stroke-linejoin="round" transform="matrix(1, 0, 0, 1, 100.820969, 76.461388)"/><g id="SVGRepo_iconCarrier" transform="matrix(1, 0, 0, 1, 110.924057, 64.433899)"><g><path d="M216.856339,16.5966031 C200.285002,8.84328665 182.566144,3.2084988 164.041564,0 C161.766523,4.11318106 159.108624,9.64549908 157.276099,14.0464379 C137.583995,11.0849896 118.072967,11.0849896 98.7430163,14.0464379 C96.9108417,9.64549908 94.1925838,4.11318106 91.8971895,0 C73.3526068,3.2084988 55.6133949,8.86399117 39.0420583,16.6376612 C5.61752293,67.146514 -3.4433191,116.400813 1.08711069,164.955721 C23.2560196,181.510915 44.7403634,191.567697 65.8621325,198.148576 C71.0772151,190.971126 75.7283628,183.341335 79.7352139,175.300261 C72.104019,172.400575 64.7949724,168.822202 57.8887866,164.667963 C59.7209612,163.310589 61.5131304,161.891452 63.2445898,160.431257 C105.36741,180.133187 151.134928,180.133187 192.754523,160.431257 C194.506336,161.891452 196.298154,163.310589 198.110326,164.667963 C191.183787,168.842556 183.854737,172.420929 176.223542,175.320965 C180.230393,183.341335 184.861538,190.991831 190.096624,198.16893 C211.238746,191.588051 232.743023,181.531619 254.911949,164.955721 C260.227747,108.668201 245.831087,59.8662432 216.856339,16.5966031 Z M85.4738752,135.09489 C72.8290281,135.09489 62.4592217,123.290155 62.4592217,108.914901 C62.4592217,94.5396472 72.607595,82.7145587 85.4738752,82.7145587 C98.3405064,82.7145587 108.709962,94.5189427 108.488529,108.914901 C108.508531,123.290155 98.3405064,135.09489 85.4738752,135.09489 Z M170.525237,135.09489 C157.88039,135.09489 147.510584,123.290155 147.510584,108.914901 C147.510584,94.5396472 157.658606,82.7145587 170.525237,82.7145587 C183.391518,82.7145587 193.761324,94.5189427 193.539891,108.914901 C193.539891,123.290155 183.391518,135.09489 170.525237,135.09489 Z" fill="#BD00FF" fill-rule="nonzero"/></g></g><g id="Layer_1" style="transform-origin: 117.789px 292.67px;" transform="matrix(0.134708, 0, 0, 0.134708, 122.983917, -77.700745)"><g transform="matrix(1, 0, 0, 1, -1802.001587, -787.299255)"><g><g><g><g><polygon fill="#52BEDC" points="2170,1329.063 2170.813,1328 2172,1328 2172,1329.063 2172,1329.813 2171,1329.188 &#9;&#9;&#9;&#9;&#9;&#9;"/><polygon fill="#52BEDC" points="2176,1328 2177,1328 2177.938,1328.906 2176.969,1329.813 2176,1329.813 &#9;&#9;&#9;&#9;&#9;&#9;"/><polygon fill="#52BEDC" points="2188,1328 2188,1330 2189.875,1330 2189.875,1329 2188.938,1328 &#9;&#9;&#9;&#9;&#9;&#9;"/><polygon fill="#52BEDC" points="2188,1319 2188,1316 2187,1315.25 2187,1314 2188,1314 2188,1315 2189,1316.5 2189,1319 &#10;&#9;&#9;&#9;&#9;&#9;&#9;&#9;&#9;&#9;&#9;&#9;&#9;&#9;"/><polygon fill="#52BEDC" points="2222,1314 2223,1314 2222.986,1315.875 2222,1316.125 &#9;&#9;&#9;&#9;&#9;&#9;"/><polygon fill="#52BEDC" points="2188.906,1330.813 2190.25,1333 2191,1333 2191,1331 &#9;&#9;&#9;&#9;&#9;&#9;"/><polygon fill="#52BEDC" points="2193,1328 2195,1328 2195,1330 2194,1330 2193,1329 &#9;&#9;&#9;&#9;&#9;&#9;"/><polygon fill="#52BEDC" points="2220,1329 2221.063,1328 2222,1328 2221,1329.813 2220.688,1330.813 2220,1331.063 &#9;&#9;&#9;&#9;&#9;&#9;"/><polygon fill="#52BEDC" points="2221,1323 2221,1322 2222.007,1320.938 2223,1321.688 2223,1323 &#9;&#9;&#9;&#9;&#9;&#9;"/><rect x="2256" y="1315" fill="#52BEDC" width="1" height="1.125"/><polygon fill="#52BEDC" points="2259,1314 2261,1314 2261.938,1315.063 2260.875,1317.094 2260.813,1318 2259,1318 &#9;&#9;&#9;&#9;&#9;&#9;"/><polygon fill="#52BEDC" points="2248,1330 2248,1329 2248.507,1328 2248.875,1329 2248.875,1330 &#9;&#9;&#9;&#9;&#9;&#9;"/><polygon fill="#52BEDC" points="2252,1330 2252,1329 2252.813,1328 2253.75,1329 2252.875,1330 &#9;&#9;&#9;&#9;&#9;&#9;"/><rect x="2254" y="1331" fill="#52BEDC" width="1" height="0.906"/><polygon fill="#52BEDC" points="2258.188,1331.906 2259,1333 2260,1333.688 2260,1331.906 &#9;&#9;&#9;&#9;&#9;&#9;"/><polygon fill="#52BEDC" points="2265,1329 2266,1329 2267,1330 2267,1331 2266,1331.906 2265,1331.063 &#9;&#9;&#9;&#9;&#9;&#9;"/><polygon fill="#52BEDC" points="2270,1329 2271,1329 2271.625,1328 2272.938,1329 2274,1329 2275.625,1328 2278,1328 &#10;&#9;&#9;&#9;&#9;&#9;&#9;&#9;2279,1329 2279,1330 2278,1331 2277,1331 2276.875,1330 2274,1330 2271.688,1332.797 2271.125,1331 2270,1331 &#9;&#9;&#9;&#9;&#9;&#9;"/><polygon fill="#52BEDC" points="2283.063,1329 2283.5,1328 2283.938,1329 2283.938,1330 2283.063,1330 &#9;&#9;&#9;&#9;&#9;&#9;"/><polygon fill="#52BEDC" points="2294,1314 2297,1314 2298,1314.938 2297.063,1316 2296,1316 2296,1317 2295.188,1318 &#10;&#9;&#9;&#9;&#9;&#9;&#9;&#9;2294,1318 2294,1316 2294.75,1315.563 2294,1314.688 &#9;&#9;&#9;&#9;&#9;&#9;"/><polygon fill="#52BEDC" points="2279.25,1316 2279.938,1315 2280.938,1316.125 2280.094,1316.875 &#9;&#9;&#9;&#9;&#9;&#9;"/><polygon fill="#52BEDC" points="2291,1316 2291,1315 2292.125,1315 2292.875,1316.875 2291,1316.875 &#9;&#9;&#9;&#9;&#9;&#9;"/><polygon fill="#52BEDC" points="2300.125,1318 2301.063,1319.938 2301.938,1319.938 2301.938,1318 &#9;&#9;&#9;&#9;&#9;&#9;"/><polygon fill="#52BEDC" points="2303,1319 2304,1319 2305,1318 2306,1318 2306,1319 2306,1320 2303,1320 &#9;&#9;&#9;&#9;&#9;&#9;"/><polygon fill="#52BEDC" points="2298,1322 2298,1323 2299.813,1323 2299.25,1322 &#9;&#9;&#9;&#9;&#9;&#9;"/><polygon fill="#52BEDC" points="2302,1321 2304,1321 2306,1322 2306.875,1323 2303,1323 2301.938,1322 &#9;&#9;&#9;&#9;&#9;&#9;"/><polygon fill="#52BEDC" points="2316.023,1328.801 2317.23,1327.9 2318,1329 2318,1330 2317,1330 2315.063,1330.875 &#9;&#9;&#9;&#9;&#9;&#9;"/><polygon fill="#52BEDC" points="2294,1329 2296,1329 2296,1330.875 2295,1330 2294,1330 &#9;&#9;&#9;&#9;&#9;&#9;"/><polygon fill="#52BEDC" points="2299,1329 2301,1329 2302,1330.875 2302,1332 2301.031,1331.906 2300.5,1330 2299,1330 &#9;&#9;&#9;&#9;&#9;&#9;&#10;&#9;&#9;&#9;&#9;&#9;&#9;&#9;"/><polygon fill="#52BEDC" points="2324.438,1328 2324,1329 2324,1330 2325.063,1330 &#9;&#9;&#9;&#9;&#9;&#9;"/></g></g><path fill="#52BEDC" d="M2454,1301h-31.063L2392,1332.057l-10-0.057v-0.813l-1-0.125l-1,0.938h-8.063l-0.438-0.981l-0.375,1.069 L2368,1332v-1.063l-1,1.063h-1.125l-0.875-1v1h-2.875l0.875-1v-0.956l1-0.044v-2h-1.875l-1.125,2v2.088l-1-0.088v-0.813 l-0.813,0.9L2356,1332v-0.875l-1,0.875h-17.438l0.438-1v-2l-1,1v0.875l-0.953,1.092l-62.047,0.094V1332l-1,0.063V1334 l-29.938,0.063l-0.188,0.938l-0.875,0.063V1334l-2.813-0.125l2.688-0.875l0.219-0.938L2245,1332v-1l-1-0.813l0.813-1.188 l12-14.938L2257,1312l1.813,0.063l12.063-15.938c0,0,2.813-5.813,3.125-12.188c0,0,1.313-17.063-14-23.875 c0,0-6.875-3.438-13.5-3.063c0,0-8.5-0.75-17.5,9.125l-0.875,0.938L2229,1268l-0.188,1l-2.813,1.125c0,0-3.25,4.875-3,7.938 l-0.014,5.063l12.857,0.125c0,0,1.453-13.063,14.453-12.188c0,0,9.852,0.469,10.727,13.094c0,0-0.137,3.297-3.012,6.672 L2235.75,1319h2.25l-0.063,1H2235l-11,13.188V1334h3l-0.125,1H2226v1h-2l-1-0.875V1348h51v-13l8.516-0.047l0.453-0.516 l3.031,0.047l0.484,0.547l0.516-0.625l49.953,0.172l0.516-0.516l0.594,0.516l4.896-0.078l0.625-0.583l0.542,0.375l36.917,0.208 l0.958-0.208l10.042,0.208l1.083-0.438l7.813-7.875l1-0.188l0.125-0.75l6.938-7.063l1-0.125l-0.063-0.875l14.125-14.063 l0.813-0.188l0.125,2l1.063,0.063l0.063-2.063l27.75,0.063l0.25,3.063L2455,1308v-10.406L2454,1301z"/><g><polygon fill="#52BEDC" points="2337,1316 2337,1315 2338.035,1315.5 2339,1316 2339,1317 2338,1317.938 2337,1317.438 &#9;&#9;&#9;&#9;&#9;&#10;&#9;&#9;&#9;&#9;&#9;&#9;"/><polygon fill="#52BEDC" points="2349,1329.563 2350,1329 2351.031,1328.406 2353.938,1328 2355,1328 2355.969,1329 &#10;&#9;&#9;&#9;&#9;&#9;&#9;2354.938,1330 2351,1330 2349.93,1331.031 2349,1330.375 &#9;&#9;&#9;&#9;&#9;"/><polygon fill="#52BEDC" points="2369.844,1329.43 2370.938,1328 2373,1328 2375.5,1329 2379,1329 2380,1328 2381,1328 &#10;&#9;&#9;&#9;&#9;&#9;&#9;2382,1328.969 2382,1330 2370,1330 &#9;&#9;&#9;&#9;&#9;"/><polygon fill="#52BEDC" points="2306.042,1331.995 2306.938,1329.998 2308,1330.5 2308,1332 &#9;&#9;&#9;&#9;&#9;"/><polygon fill="#52BEDC" points="2386.969,1329.516 2387.531,1329 2387.969,1329.516 2387.469,1330 &#9;&#9;&#9;&#9;&#9;"/><polygon fill="#52BEDC" points="2401,1328 2404,1328 2405,1328.594 2405,1329 2404.125,1330 2402,1330 2401,1329 &#9;&#9;&#9;&#9;&#9;"/><polygon fill="#52BEDC" points="2427.063,1305.063 2426,1306.188 2426,1307 2427.063,1308.063 2428,1307.188 2428,1306 &#9;&#9;&#9;&#9;&#9;&#10;&#9;&#9;&#9;&#9;&#9;&#9;"/><polygon fill="#52BEDC" points="2415.25,1316.125 2414,1317.031 2414,1317.594 2415.141,1319 2416,1319 2415.781,1316.969 &#10;&#9;&#9;&#9;&#9;&#9;&#9;&#9;&#9;&#9;&#9;&#9;"/><polygon fill="#52BEDC" points="2422,1315 2423,1315 2423.156,1314 2428,1314 2428.969,1315 2428,1315.969 2427.563,1316.906 &#10;&#9;&#9;&#9;&#9;&#9;&#9;2428,1317.938 2428,1319 2427,1318.813 2426.813,1318.063 2425.719,1317 2423.094,1316.875 2422.688,1315.969 2422,1315.906 &#10;&#9;&#9;&#9;&#9;&#9;&#9;&#9;&#9;&#9;&#9;&#9;"/><polygon fill="#52BEDC" points="2428.516,1320.438 2428,1321 2428,1321.875 2428.516,1322.969 2429,1322.125 2429,1321 &#9;&#9;&#9;&#9;&#9;&#10;&#9;&#9;&#9;&#9;&#9;&#9;"/><polygon fill="#52BEDC" points="2432.375,1316.969 2432.031,1317.938 2432.375,1319 2432.969,1318.125 &#9;&#9;&#9;&#9;&#9;"/><polygon fill="#52BEDC" points="2434.961,1317.391 2436,1316 2437,1316 2437,1316.969 2437.125,1318 2438,1318 &#10;&#9;&#9;&#9;&#9;&#9;&#9;2438.969,1317.25 2439.906,1317 2443,1317 2444.875,1317.766 2444.063,1319 2443,1319 2442.063,1317.984 2440.531,1318.438 &#10;&#9;&#9;&#9;&#9;&#9;&#9;2440.031,1319 2435,1319 2434.992,1318 2436,1318 &#9;&#9;&#9;&#9;&#9;"/><polygon fill="#52BEDC" points="2446,1320.594 2446.5,1320.125 2446.938,1320.438 2446.469,1321.875 &#9;&#9;&#9;&#9;&#9;"/><polygon fill="#52BEDC" points="2449.141,1320.375 2450.133,1318.969 2450.41,1318.141 2450.986,1318.992 2452,1320.125 &#10;&#9;&#9;&#9;&#9;&#9;&#9;2452,1321 2451.063,1321.875 2450.063,1321 &#9;&#9;&#9;&#9;&#9;"/><polygon fill="#52BEDC" points="2451.406,1322.969 2450.938,1324 2451.406,1324.875 2452,1324.031 &#9;&#9;&#9;&#9;&#9;"/><polygon fill="#52BEDC" points="2433.02,1326.672 2433.807,1326.008 2435.325,1324.895 2437.288,1326.041 2439.921,1325.974 &#10;&#9;&#9;&#9;&#9;&#9;&#9;2441.845,1326.002 2447.938,1325.064 2448.985,1326.032 2450,1326 2450,1327 2450,1327 2445.219,1327.563 2445.063,1326.438 &#10;&#9;&#9;&#9;&#9;&#9;&#9;2444,1326.201 2443.188,1326.438 2442.938,1327.156 2442.781,1328 2439,1328 2438,1328 2435,1328 2433.875,1327 &#9;&#9;&#9;&#9;&#9;"/></g><g><polygon fill="#52BEDC" points="2467.771,1316.826 2468.823,1317.913 2469.922,1318.342 2470.94,1317.973 2471.958,1317 &#10;&#9;&#9;&#9;&#9;&#9;&#9;2474,1317 2474.792,1318.042 2476,1318 2476,1317 2476.865,1316.083 2478,1317.771 2478,1318 2477,1318.938 2476.958,1319.563 &#10;&#9;&#9;&#9;&#9;&#9;&#9;2477.917,1320.479 2478,1321.5 2477.563,1321.917 2476.375,1320.896 2475.979,1321.021 2475.042,1321 2475,1320.021 &#10;&#9;&#9;&#9;&#9;&#9;&#9;2476.021,1319.5 2475.979,1319 2473,1319 2472,1319 2471.354,1318.542 2470.833,1318.792 2470.938,1319 2470.979,1320.042 &#10;&#9;&#9;&#9;&#9;&#9;&#9;2469.979,1321.021 2469.417,1321.042 2468.979,1320.021 2469.042,1319 2467,1319 &#9;&#9;&#9;&#9;&#9;"/><polygon fill="#52BEDC" points="2477,1310 2479,1310 2478.896,1312.042 2478,1311.021 2477,1310.458 &#9;&#9;&#9;&#9;&#9;"/><polygon fill="#52BEDC" points="2484,1307 2485,1307 2485,1308.979 2484.5,1308.979 2484,1307.99 &#9;&#9;&#9;&#9;&#9;"/><polygon fill="#52BEDC" points="2484,1304 2484.5,1303.042 2485,1304.042 2485,1305 2484,1305 &#9;&#9;&#9;&#9;&#9;"/><polygon fill="#52BEDC" points="2481,1319 2481,1320 2481.979,1320.958 2482.646,1322.042 2482.938,1321.042 2484,1320.521 &#10;&#9;&#9;&#9;&#9;&#9;&#9;2483.042,1319.958 2482.917,1319 &#9;&#9;&#9;&#9;&#9;"/><polygon fill="#52BEDC" points="2485.938,1317.979 2486.438,1317.063 2486.958,1317.979 2486.958,1319 2486.021,1319 &#9;&#9;&#9;&#9;&#9;"/><polygon fill="#52BEDC" points="2490,1318.031 2490.479,1317.063 2491,1317.938 2491,1318.938 2490,1318.938 &#9;&#9;&#9;&#9;&#9;"/><polygon fill="#52BEDC" points="2470,1322 2472,1322 2472.5,1321.063 2473,1322 2475,1322 2475,1323 2470,1323 &#9;&#9;&#9;&#9;&#9;"/></g><path fill="#52BEDC" d="M2480.5,1257c-13.874,0-25.5,10.568-25.5,23.604v44.129c0,4.081,1.14,7.919,3.13,11.268h2.87l0.906,1 h-3.146c0.504,0.758,1.058,1.484,1.648,2.183l1.412-0.058l0.262,0.844l1.98-0.969H2465l0.563,0.941l0.813-0.941l0.5,0.156 l0.625,0.314l1.844-0.314l-0.313,0.785l-0.063,1.059l-0.344,1.906l-0.688-0.844l-2-0.031l-0.875,0.766l0.013,0.663 c4.311,3.055,9.673,4.876,15.425,4.876c13.874,0,25.5-10.568,25.5-23.604v-44.129C2506,1267.568,2494.374,1257,2480.5,1257z M2492,1302.059v1.299v20c0,2.512-0.878,4.827-2.338,6.71L2490,1332h-2.223c-2.105,1.71-4.825,2.75-7.777,2.75 c-1.703,0-3.328-0.35-4.805-0.97l-1.195,1.126l-2.813,1.563L2471,1338h-0.969l0.156-2.734L2472,1335v-1h0.813l1.002-0.911 c-3.464-1.998-5.815-5.603-5.815-9.731v-20v-1.299v-20c0-6.292,5.442-11.392,12-11.392s12,5.1,12,11.392V1302.059z"/><path fill="#52BEDC" d="M2504,1300h5l2.063,0.438l34.969,0.188l1.406-0.625l1.438,0.313l38.688,0.313L2589,1300 c0,0,19-0.188,19,0s0.531,0.906,0.531,0.906l0.438-0.99l1.719,0.208l0.156,2.078l-0.219,0.797H2536l-1.094,1.953l-1.031,2.047 H2533l-1-0.688l1-1.25l-0.094-1.438l-1.125-1.094l-11.781-0.094l-1.031,0.531l-10.875-0.063l-0.531-0.238l-0.563,0.27l-3,0.031 V1300z"/><g><path fill="#52BEDC" d="M2620.422,1312.755c-6.077,0-11.021-4.943-11.021-11.021s4.944-11.021,11.021-11.021 s11.021,4.943,11.021,11.021S2626.499,1312.755,2620.422,1312.755z M2620.422,1293.714c-4.423,0-8.021,3.598-8.021,8.021 s3.599,8.021,8.021,8.021s8.021-3.598,8.021-8.021S2624.845,1293.714,2620.422,1293.714z"/></g><g><polygon fill="#52BEDC" points="2630,1303 2633,1303 2638.313,1303 2646.031,1303.125 2645.031,1304.063 2642.063,1304.656 &#10;&#9;&#9;&#9;&#9;&#9;&#9;2632,1305 2629.469,1305 2629.828,1303.781 &#9;&#9;&#9;&#9;&#9;"/><polygon fill="#52BEDC" points="2653,1301 2639,1301 2635.938,1300.563 2638.406,1299.406 2653,1299.25 &#9;&#9;&#9;&#9;&#9;"/><polygon fill="#52BEDC" points="2654.016,1301.75 2656,1300 2659,1300 2659.953,1299.25 2661,1300.5 2661,1301 2659.125,1302 &#10;&#9;&#9;&#9;&#9;&#9;&#9;2655,1302 &#9;&#9;&#9;&#9;&#9;"/><polygon fill="#52BEDC" points="2666.016,1302.094 2666.992,1300.094 2668.465,1299.078 2670,1300.125 2670,1301 &#10;&#9;&#9;&#9;&#9;&#9;&#9;2668.016,1303 2667.656,1304 2667,1303 2666,1303 &#9;&#9;&#9;&#9;&#9;"/><polygon fill="#52BEDC" points="2673.891,1300.852 2676.094,1299 2678,1299 2678.969,1300 2684.844,1299.969 &#10;&#9;&#9;&#9;&#9;&#9;&#9;2685.781,1299.078 2687.125,1300 2687.938,1300.031 2688.844,1300.324 2687.156,1302 2681,1302 2680,1302 2679,1302 &#10;&#9;&#9;&#9;&#9;&#9;&#9;2677.969,1302 2675,1302 &#9;&#9;&#9;&#9;&#9;"/><polygon fill="#52BEDC" points="2675,1311.75 2676.625,1310.141 2679.953,1310.508 2680.992,1311.723 2679.934,1312.971 &#10;&#9;&#9;&#9;&#9;&#9;&#9;2678.031,1314 2677,1314 2675.867,1313.063 2675,1312.938 &#9;&#9;&#9;&#9;&#9;"/><polygon fill="#52BEDC" points="2670.844,1315.375 2672.406,1314 2675,1314 2676.063,1315.031 2680.844,1314.969 &#10;&#9;&#9;&#9;&#9;&#9;&#9;2681.875,1314 2686,1314 2688,1315.125 2688,1316 2683,1316 2682.594,1315.219 2682.031,1316 2677,1316 2675.938,1317 &#10;&#9;&#9;&#9;&#9;&#9;&#9;2673,1317 2672.219,1316 2671,1316 &#9;&#9;&#9;&#9;&#9;"/><polygon fill="#52BEDC" points="2689.438,1312.07 2689.063,1313.031 2689.625,1314 2689.969,1313.035 &#9;&#9;&#9;&#9;&#9;"/><polygon fill="#52BEDC" points="2693.656,1312 2693.031,1313 2693.938,1314 2695.031,1314 2695.938,1313 2694.938,1312 &#9;&#9;&#9;&#9;&#9;&#10;&#9;&#9;&#9;&#9;&#9;&#9;"/><polygon fill="#52BEDC" points="2642,1316.156 2640,1317.313 2640,1319 2642,1319 2642.844,1318.094 2643,1316.5 &#9;&#9;&#9;&#9;&#9;"/><rect x="2625" y="1318" fill="#52BEDC" width="1" height="1"/><polygon fill="#52BEDC" points="2608,1318.656 2609.891,1316.375 2610.867,1316.352 2612.875,1318 2617,1318 &#10;&#9;&#9;&#9;&#9;&#9;&#9;2618.406,1316.367 2619.594,1318 2621,1318 2621,1319 2620,1319 2614.477,1318.891 2613.656,1319 2612,1319 2611,1319 &#10;&#9;&#9;&#9;&#9;&#9;&#9;2608,1319.156 &#9;&#9;&#9;&#9;&#9;"/><rect x="2606" y="1308" fill="#52BEDC" width="1" height="0.906"/><polygon fill="#52BEDC" points="2604,1328.391 2605.688,1327 2612,1327 2613.75,1328 2619,1328 2620,1328.656 2618.969,1329 &#10;&#9;&#9;&#9;&#9;&#9;&#9;2609,1328.844 2608.25,1328 2607.023,1328.844 2604,1329 &#9;&#9;&#9;&#9;&#9;"/><polygon fill="#52BEDC" points="2599.031,1321.211 2600,1319 2600,1318 2601.375,1316.156 2602.625,1317.754 2601.656,1318.5 &#10;&#9;&#9;&#9;&#9;&#9;&#9;2601,1319.313 2600.828,1320.969 &#9;&#9;&#9;&#9;&#9;"/><polygon fill="#52BEDC" points="2587.063,1319.105 2589.125,1318 2592,1318 2592,1317 2592.75,1316.156 2593.875,1317.5 &#10;&#9;&#9;&#9;&#9;&#9;&#9;2593.094,1319.105 2589.031,1319.156 2587.781,1320.031 &#9;&#9;&#9;&#9;&#9;"/><polygon fill="#52BEDC" points="2581,1321.531 2581.813,1321.211 2582.938,1321.371 2582.219,1321.938 &#9;&#9;&#9;&#9;&#9;"/><polygon fill="#52BEDC" points="2572.906,1321.496 2574.891,1319.711 2575.07,1318.074 2576.066,1317.178 2577,1318.844 &#10;&#9;&#9;&#9;&#9;&#9;&#9;2577,1320 2574.953,1321.031 2574.156,1321.938 &#9;&#9;&#9;&#9;&#9;"/><polygon fill="#52BEDC" points="2558.021,1328.542 2561.125,1327 2565,1327 2574,1327 2577,1327 2579.042,1327.333 2577,1329 &#10;&#9;&#9;&#9;&#9;&#9;&#9;2560,1329 &#9;&#9;&#9;&#9;&#9;"/><polygon fill="#52BEDC" points="2553.146,1318.875 2554.865,1317.136 2556,1318.068 2556,1319 2554,1320.031 &#9;&#9;&#9;&#9;&#9;"/><polygon fill="#52BEDC" points="2562.125,1318.094 2562.875,1317.178 2564.125,1318.094 2563.125,1318.833 &#9;&#9;&#9;&#9;&#9;"/><polygon fill="#52BEDC" points="2544,1321.605 2545.479,1318.109 2546.052,1320.039 2547,1321.211 2547,1322 2546,1322 &#9;&#9;&#9;&#9;&#9;&#10;&#9;&#9;&#9;&#9;&#9;&#9;"/><polygon fill="#52BEDC" points="2537,1318 2539,1318 2541.042,1320.094 2540,1321 2539,1321 2539.021,1320.115 2538.208,1319 &#10;&#9;&#9;&#9;&#9;&#9;&#9;2537,1319 &#9;&#9;&#9;&#9;&#9;"/><polygon fill="#52BEDC" points="2533,1318.005 2535,1318.109 2533.479,1320.055 2533,1319.25 &#9;&#9;&#9;&#9;&#9;"/><polygon fill="#52BEDC" points="2532.042,1321.574 2533,1321 2534,1321.211 2534,1322 2532.833,1322 &#9;&#9;&#9;&#9;&#9;"/><polygon fill="#52BEDC" points="2536,1311.667 2536.792,1311.125 2538,1311.396 2537.417,1311.875 &#9;&#9;&#9;&#9;&#9;"/><polygon fill="#52BEDC" points="2538,1308 2538.479,1307.083 2539.958,1307.083 2539.958,1308 2539.479,1308.979 &#10;&#9;&#9;&#9;&#9;&#9;&#9;2538.875,1308.031 &#9;&#9;&#9;&#9;&#9;"/><polygon fill="#52BEDC" points="2544.042,1310.052 2545,1311.125 2545,1312 2541,1312 2540,1311.052 2540,1310 &#10;&#9;&#9;&#9;&#9;&#9;&#9;2541.042,1308.167 2541.875,1308.031 2543.458,1307.083 2544.792,1308.625 2543.583,1308.979 2542.5,1308.458 &#10;&#9;&#9;&#9;&#9;&#9;&#9;2542.125,1308.979 2541.042,1310.083 &#9;&#9;&#9;&#9;&#9;"/><polygon fill="#52BEDC" points="2507.74,1318.005 2508.891,1317.954 2510.466,1317.11 2511.337,1317.904 2514.5,1317 &#10;&#9;&#9;&#9;&#9;&#9;&#9;2516,1317 2517.833,1318.833 2517,1320.031 2516.917,1321.75 2516.583,1322 2515.979,1321 2516,1320.04 2514.917,1319 &#10;&#9;&#9;&#9;&#9;&#9;&#9;2512,1319 2510.938,1320.375 2510.813,1321 2510,1322 2509,1322 2508.917,1321 2508.021,1320.055 &#9;&#9;&#9;&#9;&#9;"/><polygon fill="#52BEDC" points="2519.979,1321.5 2520.896,1321 2521.979,1321.5 2520.979,1322.104 &#9;&#9;&#9;&#9;&#9;"/><polygon fill="#52BEDC" points="2520.979,1318.109 2521.438,1317.083 2521.979,1318.005 2521.479,1319.03 &#9;&#9;&#9;&#9;&#9;"/><polygon fill="#52BEDC" points="2529.969,1305.031 2530.5,1304.063 2530.938,1305.031 2530.453,1305.969 &#9;&#9;&#9;&#9;&#9;"/><polygon fill="#52BEDC" points="2516.969,1305.016 2517.969,1304.063 2519.031,1305.016 2518.156,1305.969 &#9;&#9;&#9;&#9;&#9;"/></g><path fill="#52BEDC" d="M2709.23,1257l-0.292,1.41l-1.188,0.66l-0.813-0.617l-4.875-0.484l-1.476-0.969H2685v27l13.917,0.083 L2699,1271h13.639l1.611-1h0.75l0.5,1h5.167l-15.131,38.761l0.349,1.041l-1.12,0.934l-0.588,1.507l0.773,0.228l-1.099,0.606 L2691,1347h2.729l0.438-0.875l1.854-0.042l0.77,0.917h10.126l30.083-76v-14H2709.23z M2716.625,1265.063l-0.438-0.313l0.313-0.5 l0.563,0.5L2716.625,1265.063z"/><path fill="#52BEDC" d="M2916,1257v18.057l1.25,0.38l-1.25,0.893V1284l6.868,0.041l0.632-1.166l0.611,1.174l5.805,0.035 L2930,1271h21.667l-22.955,58.806L2930,1330l-2.013,1.663L2922,1347h7.851l0.649-0.938l0.514,0.938h6.903l14.25-36H2950v-1 l2.375-0.938l0.49,0.173L2968,1271v-14H2916z M2942,1316.938h-1.063l-0.875-0.375l0.875-1.396l1.063,0.396V1316.938z"/><polygon fill="#52BEDC" points="2723.729,1299.021 2824.031,1299.594 2825.417,1299 2827,1299 2827.542,1299.958 2828.083,1299 &#10;&#9;&#9;&#9;&#9;&#9;2829,1299 2829.5,1299.958 2830.25,1299 2840,1299 2841.667,1299.479 2843.375,1299.667 2845.042,1299 2849,1299 2849.917,1300 &#10;&#9;&#9;&#9;&#9;&#9;2853,1300 2854.125,1299 2855,1299 2856.292,1299.792 2855.917,1300.875 2855,1301.167 2854,1302 2850,1302 2849.167,1301.542 &#10;&#9;&#9;&#9;&#9;&#9;2824.167,1301.417 2823.042,1302 2820,1302 2819.375,1301.5 2815.917,1301.458 2815.083,1302 2812,1302 2810.75,1301.458 &#10;&#9;&#9;&#9;&#9;&#9;2801.25,1301.5 2799.875,1302 2798,1302 2794.917,1301.125 2790.917,1300.958 2787.083,1302 2786.208,1301.833 2785,1301.5 &#10;&#9;&#9;&#9;&#9;&#9;2780.125,1301.542 2779.125,1302 2721,1302 &#9;&#9;&#9;&#9;"/><polygon fill="#52BEDC" points="2756.958,1296.729 2758.042,1296 2760,1296 2760,1297 2758,1297 &#9;&#9;&#9;&#9;"/><polygon fill="#52BEDC" points="2767.979,1296.5 2769.042,1296 2770.042,1296 2770.958,1296.5 2770.042,1297 2769,1297 &#9;&#9;&#9;&#9;"/><polygon fill="#52BEDC" points="2781,1296 2781,1297 2820,1297 2821.875,1297.969 2823.083,1297 2833,1297 2834.5,1297.977 &#10;&#9;&#9;&#9;&#9;&#9;2836,1297 2837,1297 2838.625,1297.982 2840.125,1297 2841,1297 2842,1296.542 2840.958,1296 &#9;&#9;&#9;&#9;"/><polygon fill="#52BEDC" points="2843.958,1296.991 2844.917,1296 2846.042,1296.991 2845,1297.982 &#9;&#9;&#9;&#9;"/><polygon fill="#52BEDC" points="2718,1315 2722,1315 2723,1315 2724,1315.813 2722.875,1317 2722,1317 2720.625,1316 2719,1316 &#10;&#9;&#9;&#9;&#9;&#9;&#9;&#9;&#9;&#9;"/><polygon fill="#52BEDC" points="2737.146,1316 2738.083,1315 2740,1315 2741,1316 2739.833,1317 2738,1317 &#9;&#9;&#9;&#9;"/><polygon fill="#52BEDC" points="2749.979,1316 2750.927,1315 2752.047,1316 2751,1317 2750,1317 &#9;&#9;&#9;&#9;"/><polygon fill="#52BEDC" points="2764,1315 2769,1315 2768.833,1317 2767,1317 2764,1316.625 &#9;&#9;&#9;&#9;"/><polygon fill="#52BEDC" points="2772.984,1316.5 2773.958,1316 2775,1316 2775,1317 2774,1317 &#9;&#9;&#9;&#9;"/><polygon fill="#52BEDC" points="2775.875,1316 2777.042,1315 2778,1315 2779.125,1316 2777.5,1317 &#9;&#9;&#9;&#9;"/><rect x="2780" y="1316" fill="#52BEDC" width="1" height="1"/><polygon fill="#52BEDC" points="2784,1316 2785,1316 2786,1316.5 2785,1317 2784,1317 &#9;&#9;&#9;&#9;"/><polygon fill="#52BEDC" points="2787.938,1316 2789.125,1315 2791,1315 2792.042,1316 2800,1316 2801.083,1315 2802,1315 &#10;&#9;&#9;&#9;&#9;&#9;2802.958,1316 2812,1316 2812.917,1315 2814,1315 2815.25,1316 2829,1316 2830.042,1316.5 2829.083,1317 2828,1317 &#10;&#9;&#9;&#9;&#9;&#9;2826.917,1317.917 2824.875,1317 2799,1317 2797.958,1317.917 2796.958,1317.458 2796.833,1317 2791,1317 2789,1317 &#9;&#9;&#9;&#9;"/><polygon fill="#52BEDC" points="2725.917,1316 2727.042,1315 2728.042,1316 2726.979,1317 &#9;&#9;&#9;&#9;"/><polygon fill="#52BEDC" points="2834,1316 2839,1316 2839.5,1317 2839.917,1316 2841,1316 2841.875,1316.5 2842.958,1316 &#10;&#9;&#9;&#9;&#9;&#9;2851,1316 2854.25,1316.5 2856.958,1316.458 2857.958,1316 2864,1316 2865.792,1317 2869,1317 2869.958,1316 2876,1316 &#10;&#9;&#9;&#9;&#9;&#9;2877.208,1317 2883,1316.708 2883,1316 2886,1316 2887.667,1316.667 2893.292,1316.5 2894.125,1316 2896,1316 2897.208,1316.5 &#10;&#9;&#9;&#9;&#9;&#9;2898.875,1317.375 2897.917,1318 2896.75,1319 2895.083,1317.833 2891,1318 2890.083,1319 2888.917,1317.875 2876.208,1317.958 &#10;&#9;&#9;&#9;&#9;&#9;2873.917,1319 2872,1319 2870.917,1318.042 2868.167,1318 2867.542,1319 2866.833,1318 2866.063,1317.917 2864,1316.708 &#10;&#9;&#9;&#9;&#9;&#9;2864,1318 2862.042,1318.042 2861.625,1317.042 2861,1318.042 2860.042,1318.125 2859.5,1317 2858.167,1316.958 2857.042,1318 &#10;&#9;&#9;&#9;&#9;&#9;2848,1317.875 2846.917,1317 2845,1317 2844.5,1318 2842,1318 2841.083,1316.958 2840,1317.5 2839.833,1318.083 &#10;&#9;&#9;&#9;&#9;&#9;2838.042,1317.917 2836.792,1317 2834,1316.958 &#9;&#9;&#9;&#9;"/><polygon fill="#52BEDC" points="2902,1314.042 2902.875,1313.167 2904.042,1314.042 2903.021,1314.833 &#9;&#9;&#9;&#9;"/><polygon fill="#52BEDC" points="2910.958,1318.042 2912.479,1316 2913.552,1317.021 2915.151,1318.042 2913.958,1319 2912,1319 &#10;&#9;&#9;&#9;&#9;&#9;&#9;&#9;&#9;&#9;"/><polygon fill="#52BEDC" points="2913.055,1314.167 2914,1313.167 2915.151,1314.167 2914.103,1315.167 &#9;&#9;&#9;&#9;"/><path fill="#52BEDC" d="M2916,1317.104l1.958-1.104c0,0,0.917,0,1.042,0s2.917,0.542,2.917,0.542l1.083,0.979l-0.917,0.479H2921 l-1.333,1l-1.896-1.125L2916,1318V1317.104z"/><polygon fill="#52BEDC" points="2923,1314 2924.625,1313.167 2926.083,1314 2924.75,1314.833 &#9;&#9;&#9;&#9;"/><polygon fill="#52BEDC" points="2924.094,1318.063 2927.068,1317.135 2928.042,1316 2932,1316 2932.75,1316.938 &#10;&#9;&#9;&#9;&#9;&#9;2934.042,1317.5 2933.5,1318.604 2932.458,1319 2924,1319 &#9;&#9;&#9;&#9;"/><rect x="2899" y="1329" fill="#52BEDC" width="3" height="1"/><polygon fill="#52BEDC" points="2898.125,1334.667 2898.875,1334.125 2899.75,1334.396 2899.292,1335.042 &#9;&#9;&#9;&#9;"/><rect x="2901" y="1334" fill="#52BEDC" width="1" height="1.042"/><polygon fill="#52BEDC" points="2904.042,1334.125 2904.958,1333.083 2905.958,1334.125 2905.667,1335.042 2904.042,1335.042 &#10;&#9;&#9;&#9;&#9;&#9;&#9;&#9;&#9;&#9;"/><polygon fill="#52BEDC" points="2918,1325.542 2918.417,1325 2918.833,1325.542 2918.417,1326.125 &#9;&#9;&#9;&#9;"/><g><path fill="#52BEDC" d="M2865.422,1311.755c-6.077,0-11.021-4.943-11.021-11.021s4.944-11.021,11.021-11.021 s11.021,4.943,11.021,11.021S2871.499,1311.755,2865.422,1311.755z M2865.422,1292.714c-4.423,0-8.021,3.598-8.021,8.021 s3.599,8.021,8.021,8.021s8.021-3.598,8.021-8.021S2869.845,1292.714,2865.422,1292.714z"/></g><path fill="#52BEDC" d="M2771.75,1260.75"/><polygon fill="#52BEDC" points="2874,1296 2878,1296 2884.167,1296.667 2942.875,1296.219 2942,1298 2884,1298 &#10;&#9;&#9;&#9;&#9;&#9;2882.406,1297.563 2875.094,1297.438 &#9;&#9;&#9;&#9;"/><polygon fill="#52BEDC" points="2876,1300 2888,1300 2895.531,1300.469 2926.083,1301.094 2941.219,1300.906 2942.875,1300.938 &#10;&#9;&#9;&#9;&#9;&#9;2941.563,1302 2940,1302 2896,1302 2888.719,1300.734 2887.906,1301 2886.188,1301.594 2881.5,1301.234 2878.844,1301 &#10;&#9;&#9;&#9;&#9;&#9;2876,1301 &#9;&#9;&#9;&#9;"/><path fill="#52BEDC" d="M2956,1297h3l0.625,1l1.438-1H2963l1.375-1c0,0,1.125,0.938,1.375,1s1,0.5,1,0.5l0.25,0.5l1-1h7l0.75-1 l1.438,1l0.938,1l0.875-1h3l2.063,1l3.063-1H2991h22l1,1h1l1.344-1l1.656,0.688V1298h1v-1h3l1.125,1H3062l4.938,1.219 l-8.625,0.781H3041l-0.5-0.781L3039,1300h-2l-0.938-0.875l-1,0.375l-5.813,0.188l-0.688-0.375L3028,1300h-4l-1.188-0.688 l-0.625,0.688H3019l-1.688-1l-17.25-0.063l-1.813,1.063H2997l-0.813-1.125l-42.813,0.063L2956,1297z"/><polygon fill="#52BEDC" points="2951.438,1307.875 2953.938,1308.375 2949.563,1309.063 &#9;&#9;&#9;&#9;"/><polygon fill="#52BEDC" points="2947.313,1316.375 2950.813,1317.813 2949.25,1319 2946,1319 &#9;&#9;&#9;&#9;"/><polygon fill="#52BEDC" points="2954.094,1300.688 2972,1301 2972,1302 2970,1302 2968.625,1303 2967,1303 2965.438,1302 &#10;&#9;&#9;&#9;&#9;&#9;2959,1302 2957.25,1303 2956,1302 2953.688,1301.844 &#9;&#9;&#9;&#9;"/><rect x="2984" y="1301" fill="#52BEDC" width="38" height="2"/><polygon fill="#52BEDC" points="3024.031,1302.453 3025.875,1302.039 3026.969,1301 3028,1301 3028,1302.875 3028,1303 &#10;&#9;&#9;&#9;&#9;&#9;3025,1303 &#9;&#9;&#9;&#9;"/><polygon fill="#52BEDC" points="3031.984,1302.625 3032.969,1302 3033.938,1302 3035.063,1302.469 3034.094,1303 3033,1303 &#9;&#9;&#9;&#9;&#10;&#9;&#9;&#9;&#9;&#9;"/><polygon fill="#52BEDC" points="3045.141,1302 3045,1303 3064,1303 3064,1302 &#9;&#9;&#9;&#9;"/><polygon fill="#52BEDC" points="3069.708,1294.938 3071.542,1294 3073,1294 3102,1294 3102,1295 3098.042,1296 &#10;&#9;&#9;&#9;&#9;&#9;3097.125,1295.708 3096.458,1295.333 3086.042,1295.458 3085.875,1296 3085,1296 3084.625,1295.542 3073.833,1295 3072,1295 &#10;&#9;&#9;&#9;&#9;&#9;3071.417,1296 &#9;&#9;&#9;&#9;"/><rect x="3096" y="1299" fill="#52BEDC" width="0.875" height="2"/><path fill="#52BEDC" d="M3104,1296v-1l1.042-1H3109l0.917,1c0,0-0.917,1.042-1.042,1S3104,1296,3104,1296z"/><polygon fill="#52BEDC" points="3137,1318 3140,1318 3140,1319 3137,1319.167 &#9;&#9;&#9;&#9;"/><polygon fill="#52BEDC" points="3187.042,1303 3187.833,1302.042 3188.917,1303 3187.979,1304 &#9;&#9;&#9;&#9;"/><polygon fill="#52BEDC" points="3211.167,1303.021 3212.917,1302.042 3214.833,1303.021 3213.292,1304 &#9;&#9;&#9;&#9;"/><polygon fill="#52BEDC" points="3234,1303.542 3234.917,1303.021 3235.958,1303.542 3234.979,1304 &#9;&#9;&#9;&#9;"/><polygon fill="#52BEDC" points="2961.453,1318.032 2962.977,1316.985 2963.754,1315.977 2965,1317 2969,1317 2969.375,1318 &#10;&#9;&#9;&#9;&#9;&#9;2970,1318 2971.188,1317 2973,1317 2974,1316.999 2975.688,1315.975 2978.125,1317 2982,1317 2982.875,1318.025 2983.938,1317 &#10;&#9;&#9;&#9;&#9;&#9;2990,1317 2992,1318 2994,1318 2995.531,1317 3000,1317 3001.188,1318 3009,1318 3010.031,1316.997 3012,1317.125 &#10;&#9;&#9;&#9;&#9;&#9;3013,1318.438 3011.844,1319 2988,1319 2986.469,1318.594 2983,1319 2981,1319 2980.063,1318.719 2978.938,1319 2977,1319 &#10;&#9;&#9;&#9;&#9;&#9;2976.219,1318.531 2972.375,1318.688 2971.938,1319 2970,1319 2968.688,1318.688 2967.031,1318.719 2966.031,1319 2965,1319 &#10;&#9;&#9;&#9;&#9;&#9;2961.031,1318.625 &#9;&#9;&#9;&#9;"/><polygon fill="#52BEDC" points="2963.031,1328.031 2964.031,1327.063 2964.906,1328.031 2963.969,1328.969 &#9;&#9;&#9;&#9;"/><rect x="2973" y="1314" fill="#52BEDC" width="3" height="1"/><polygon fill="#52BEDC" points="2989.031,1306.938 2989.563,1305.969 2989.906,1306.938 2989.469,1307.875 &#9;&#9;&#9;&#9;"/><polygon fill="#52BEDC" points="2995.969,1315 2996.969,1314 2998,1315 2996.984,1315.975 &#9;&#9;&#9;&#9;"/><rect x="3000" y="1314" fill="#52BEDC" width="1.063" height="1"/><rect x="3003" y="1314" fill="#52BEDC" width="4" height="1"/></g><g><path fill="#52BEDC" d="M601.625,1042.292l64.854-29.396l57.927-17.448l335.047-135.724l84.773-14.237l8.012,4.59l0.756,2.67 l9.17,8.085l-25.082,13.334l-31.083,15l-37.916-6l-5.917-0.167L762.75,1048.75l37.188-1.813l86.646-2.854l128.417-2.5l21,2.25 l59.917,9l8,5.167l7.917,4.917l9.75,1.667l5.167,0.417l5.083,7.167l2.25,13.917c0,0-9,9.542-13,13.958 c0,0-16,17.958-18.167,18.958H1099l-5.167-4l-1.833-0.917l-6.583,0.083l-7.333,1.917L1070,1116l-2-1l-2.083,1l-28.333,1.083 l-142.958,9.25L788.333,1132H698c0,0-38.833,5.333-111.5,9H583c0,0-14.333-3.833-51-19.833l-43.167-20.667l5.5-4.5l60.5-27.667 l7-3.333l22.333-6.833l18.667-9l4.833-1.833L601.625,1042.292z"/><path fill="#52BEDC" d="M1122.771,1030.083c0,0-0.427,15.833,0.948,22.333c0,0,2.641,11.104,7.141,14.604 c0,0,14.07,11.74,15.82,14.24c0,0,11.035,10.37,14.91,11.12l16.518-10.253l-15.449,20.749l-6.162,1.958l-4.164,5.166 l-8.457,16.75l-78.624,95.875l-5.083,2.167l-0.667,0.958l-0.75,9.875l-15.25,15.125l-3.75,2.375l-0.813,1.083L1036,1267.5 l-59.25,71l-5.75,11.625l-2.375,7.125c0,0-8.625,12.125-12.875,11.75l-8.125,11c0,0-12.375,20-20.375,27H929 c0,0,10-5.125,14.625-10.125c0,0,41.125-52.5,45.5-55.75c0,0,7.5-9.75,10.25-9.75c0,0,3.875-1.375,5.5-3.25 c0,0,6.375-8.25,19.125-9c0,0,20.375-15.375,42-20c0,0,3.75-1,6.5,2.625l257.305-312.345L1340.128,977H1327l-64.667,3.417 L1173.75,1046H1152l-14.5-19.25l-6-4.5L1122.771,1030.083z"/><path fill="#52BEDC" d="M2108.375,1026.25l13.5-6.375l-6.125-9.375L2057,980l-111.5-1.375l-164.5-5.25L1609.667,977 L1589,985.667l-12.667,22.667l-29.333-0.667L1440.667,977L1552,842.75c0,0,4.875-5,5.875-12.375c0,0,1.25-16.5-4.75-27.625 l3.042-19.583c0,0,4.167-3.917,8.083-15.167c0,0,1.917-4.167,6.25-6c0,0,2.583-1.583,4.333-5.417L1592,733.167 c0,0,0.917-3.75-1.333-2.25c0,0-5.167,3.75-12.833,15.833c0,0-0.815-3.917-3.657,0.333c0,0-2.509,5.333-6.509,5.5 c0,0-8.917,11.25-8.833,17.167c0,0-4.083,10.5-9.333,10.167L1532,823.75l-87.5,86.75l-86.25,106.25L1305.5,1049l-13.852,8.734 l-2.815,3.432l-1.917,18.833l-44,40.917l-3.917,5.167l7,4l-27.917,35.25l-4.833,8.5l25.75,17.5c0,0,37.667,26.417,46.667,30.917 l71.333-52.583L1466,1089l70.5-51.333l-0.833,6.167L1523.833,1057l-2.833,1l-5.667,7.667l-6.25,20.833l-23.417,21.833 l-0.75,0.667l-3,4.5l-9.917,13.667l-1.917,2.75l-1.333,2.083l4.333,4.25l1.25,1.75c0,0-2.583,6.75-1.417,8.833l29,22.917 c0,0,2.583,2.917,6.25,1.083L1519,1167l4.673,0.067c0,0,69.827-23.567,178.827-37.317c0,0,14.875-26.125,17.5-36.75h-8 l-58.625-1l-11.375,1l-13.5,3l-17.625,4.75l-46.875,6.375c0,0,15.125-27.625,19-31l134.625-15.25c0,0,5.625-5.375,11.625-17.375 c0,0,5.75-7.875,7.75-11.875V1030l-18-0.125l-108-5l6.5-11.875l64.375-2.875c0,0,4.125-8.625,11.125-9.125l83.875,1.125 l10.625-11.375l8.167,35.583c0,0-34.667,40.333-36.333,41.333c-1.667,1-18,23.333-18,23.333l-2.583,3l-15.875,35.375 l1.125,2.375l-12.125,28l-15,38.625l-2,8.875c0,0,14.625,21.125,38,41.125c0,0,22.625-51.625,25.125-57.125l37.667-81.375 l40.208,16.5c0,0,48.625,21.125,49.875,22.25c0,0,53.5,19.875,58,21.375c0,0,70,27.5,95.625,31c0,0,18.5-15.5,25-23 c0,0,11.75-12.375,15.5-14.375c0,0,5.375-5.75,5.875-9.625l-10.25-3.875l-25.125-20.875l-45.5-15.25l-38.75-13.125 l-15.208-8.875l-5.292-2.375l-18-3.625l-2.875-3.625l80.875-21.5C2005.625,1060.875,2078.375,1040.25,2108.375,1026.25z M1414,1057l-6,3.833L1322.167,1120l51.833-62.833l29.833-34l54.167,3L1414,1057z M1843.833,1055.667l-24.333-14.833 l14.833-34.667c0,0,118.667,0,154.5,3.167l14.833,8.5L1843.833,1055.667z"/><path fill="#52BEDC" d="M2648.75,988.5l-4.667-8.5c-8.25-11.333-7.083-22.917-7.083-22.917l5.917-5.5 c-0.917-0.833-1.833-3.25-1.833-3.25c-0.833-11,3.5-26.25,3.5-26.25l-3.667-0.417L2636,923l-82.5,137.75l-18.75,22.25 l-34.75,19.5l-26.25,20.25l-14.167,6.417l-25,15.667l-0.917-3l15.833-37.75c0.667-2,8.5-27.917,8.5-27.917l-0.25-7.917 l-1.25-2.833l0.167-15.833l77.167-27.583c4.5-34.5,12.417-61.583,12.417-61.583c0.417-1.083,2.75-3.417,2.75-3.417h-3.875 l-2.531,0.094l-5.073-1.573l-96.729,7.521l-186.958,6.542L2215.667,971l-38.5,44l-49.792,75l-1.375,2l-0.833,2l-37.333,17.333 l-16.208,0.417l-2,1.125l4.375,9.458l-10,4.833l17,13c10.667,8.167,17,10.583,17,10.583l-3.625,6.75L2074.5,1229l-68,126.167 l-28.167,64.333l-7.167,16.5c4.667-6.333,9.333-7.833,9.333-7.833c9.833-3.5,13.167-12.167,13.167-12.167 c16-39.5,28.833-57,28.833-57c5.667-0.667,10.833-7,10.833-7l5.667-1.333c13.833-14.833,38.333-28.5,38.333-28.5 c10.333-4.833,11.833-10.167,11.833-10.167l12-24.5l53.333-107.333c5.5-14.167,16-32.167,16-32.167c3.167-6.833,7-6.667,7-6.667 l231.833-75.5l-1.808,2.102l-1.358,3.065l2,2.333L2389.5,1109.5l-3.167,6.667l-13.5,63.667 c-3.667,5.333-2.333,7.833-2.333,7.833l34.167,26.5c7.167-7.333,35.667-27,35.667-27c4.333-2.5,40-27,40-27l19.833-13.167 c0,0-8.167,29-12.667,32.667s-3.333,11.667-3.333,11.667c7-0.167,16.5,7.333,16.5,7.333l26.333,14.5l34-68.333 c8.167-16,17.167-29.167,17.167-29.167c4.5-13.5,19-35.667,19-35.667l25.667-44.833l26.25-44.333L2648.75,988.5z M2330.167,1040.917l-75,20.833L2221,1069l-9.5,2.667l4.5-9.667v-2.167l10.167-18.708c4.167-8.75,11.917-19.958,11.917-19.958 l179.917-12.25L2330.167,1040.917z"/><polygon fill="#52BEDC" points="2642.094,915.875 2650.375,902 2652,902 2652.938,903.188 2649.688,912.875 2649.083,917.25 &#10;&#9;&#9;&#9;&#9;&#9;2645.063,916.063 &#9;&#9;&#9;&#9;"/><path fill="#52BEDC" d="M2583.458,1147.583l-8.229,20.5l-5.281,11.917l1.734-0.833l11.075-0.333c0,0,21.079-4.5,41.163-5.833 l6.165-0.917l1.833-1.083l48.833-85.833l23.25,96.083l44-1.167l48.875-87.083L2856,984h-13l-72.75,57.125l-10.625,8.5 l-3.813,1.625l-1.563,2.625l-0.938,2.625l-9.063,31.625l-5.875,7.5l-10.75,1.625l-11.25-14.625l-24.625-17.875l-15.875-4 l-68.875,42.5l-6.924,5.229l-1.284,2.521l-0.792,5.375l-3.875,11.625L2583.458,1147.583z"/><path fill="#52BEDC" d="M2956,961h8l-37.5,69.833l286.833-133.5l27-12.333l13-6l6.167-4h1.5v2l-6.917,10.833 c0,0-17.417,7.833-23.833,21.167l-13.083,20.583c0,0-1.75,2.417-8.75,5.667l-75.583,36.917c0,0-4,5.5-13.5,11.333L2981,1056.167 l16,9.333l31.333,23l21,12.333l-0.5,1.5L3058,1109l-8.167,3.833L3053,1115l9.167,6.583l5.667,2.417c0,0,2.479,1.25,3.979,2.063 c0.546,0.296,2.188,7.938,2.188,7.938l-0.625,3.75l74.333,43.5L3347,1295.375V1302l7.5,6.375l0.333,1.625l2.167,2v3l4.063,13.75 l0.938,1.375V1337l3,4.438l-0.625,1.563H3363l-5.75-4.5L3088,1196l-106.25-57.5c0,0-4.625-3.25-7.5-7.5l-78-43.125 l-28.625,51.625l-25,44.375c0,0-6.625,13.375-6.625,15.75l-1.75,0.125c0,0-36.25-24.25-44.875-36c0,0,9.625-24.625,25.75-51.75 l1.5-2.5l10.75-8.875l13.125-42.75l-1.417-3.708l2.85-4.136l32.192-27.405l41.625-43.875l36.125-20.625L2956,961z"/></g><g><path fill="#FFF000" d="M1149,835.917L1135.833,828l-0.833-2l-28.917-18H1102l-25.5,11l-3.75-3l-1.208,0.625 c0,0-27.771,15.854-43.771,20.521c0,0-36.385,16.927-48.719,25.927c0,0-9.026,4.297-13.026,7.964c0,0-1.346,1.648-13.68,7.982 c0,0-30.007,14.658-41.34,20.658c0,0-85.003,40.662-97.337,45.995l-138.002,63.164l-9.002,4.164H674l-33.333,19.667 c0,0-4.333-0.167-6,2.5l-1.333,2.833H638c0,0,0.333,5,4.667,6H650l1.667-1.5l1.521,0.375l5.563,0.063l0.25-0.875l3-0.063v1h4 l2.125,2H671l2.125,2H677l0.875-1.188l0.25-1.75l0.875,0.063l0.938,0.875l5,0.063l1.25,1.938H691l1.125-1.875l6.75-0.125 l0.125,2h6l1.063-2l6,0.063l1.875,2.938H716l0.125-0.875l3.813-0.094l0.188-2.031H725l1.938,2l1,0.125l0.125,0.875H731l0.938,5 H749l-0.125-2.938l1.188-0.813l6.875-0.031l0.125,4.781H774l0.063-3.938l1.156-1l19.781-0.125V1048l5-0.188l-0.063-0.875 l-20,0.125l-40.563,1l-0.438-1.063l38.938-21.063l0.063-3.938l2.125,0.063l-0.063,2.875l0.938,0.063L1055.5,874.958 l34.583,6.042H1094v-1l68.667-33.083C1162.667,846.917,1162.25,843.75,1149,835.917z M657.917,1026H657v-1h0.917V1026z M669.833,1026H669v-2h0.833V1026z M684,1026h-1.042l-0.958-1v-1.958l-0.958-1L683,1022v2l1,1V1026z M684.958,1021H683v-1h1.958 V1021z M689,1027h-3v-1h3V1027z M697,1026h-2v-3h1v2h1V1026z M702,1027h-4v-1h4V1027z M710.958,1026H709v-1h1.958V1026z M712.083,1020v1H711l-0.042-1H712.083z M716,1027h-5v-1h5V1027z M728,1027h-2v-1h2V1027z M733,1021h-1v-1h1V1021z M740,1027h-1 l-0.333-1H737v-4h2v4h1V1027z M742.958,1024H742v-1h0.958V1024z M750,1027.913h-1V1026h2L750,1027.913z M757,1023h-2v-1l0.833-1 h1.292l0.833,1.25L757,1023z M763,1029h-2v-1l2-0.087V1029z M769.042,1021h-0.917l-0.167-1h1.083V1021z M775,1020.625h-1V1020h1 V1020.625z M782,1021h-3v-1h3V1021z"/><polygon fill="#FFF000" points="926.021,1113.875 943.99,1113.208 932.042,1115 926,1115 &#9;&#9;&#9;&#9;"/><polygon fill="#FFF000" points="1085,1108 1087,1108 1087,1109 1089,1109 1089,1108 1093,1108 1090.958,1111 1089,1111 &#9;&#9;&#9;&#9;"/><path fill="#FFF000" d="M1120,1056.167l-16.833-0.333c-0.5-0.833-8.167-6.167-8.167-6.167 c-15-15.167-24.167-20.167-24.167-20.167c-3.667-2.667-9.5-1.167-9.5-1.167c-17.333,8.5-36.5,9.667-36.5,9.667L864,1044v1.938 l5-0.938h14.188l2.75,2l6.938,0.063l3.938-1.125L898,1045l1.938,1.938l0.938,1.063l4.063-0.063l1-0.875l1.875-0.125L909,1046 h1.938l2.063,1h2v0.938l5,0.063v-1l0.938-0.063L923,1045h1.875l2.125,1.938l1.875,0.125l0.063,0.875l5,0.063l3.063-2h3l1.938,2 l6-0.125L951,1046h2.938l1.063,1.875l6.875,0.063L963,1046h3.938l1,0.969l2-0.031l1,1l5.063-0.063l0.125-0.813l4.063-0.063 l2.875,2l2.875,0.063l3-2.25l6.125,0.125l0.938,1.125l6.875-0.25l4.938-1.75l0.25,2L1017,1048v-1h2.125l4.875,4h1.875l4.125,3 h6.938l0.938,1.125L1037,1056h-14.063l-0.938,1v0.938l-8.906-1l-4.094-0.063l-10.125,1.063l-1.875,0.875l-1,0.188v-0.938 l-6.906-1l-3.031-0.063l-2.063,1v0.875l-4.969,0.125l-1.094-0.938l-6.938-0.125l-3.875,0.063l-1,0.875L961,1059v-1.125L946,1058 v1h-1v-1.083L932,1058v0.833l-2-0.75l-6.083-0.167L923.5,1059l-0.5-1h-9v1l-8.042-0.167L905,1058h-2l-1.083,0.958l-4.833-0.125 l-28,1.167l-1.333,1l-2.75-0.167l-1-1.833h-3.833l-1.417,0.792l-2.75,0.125l-2-0.917l-2.833,0.083l-2.167,1.75l-1.083,0.083 L847,1060l-7-1h-8l-2.083,0.625L829,1058h-3.501l-1.665,1.125L823,1059v-1.083l-0.875,0.083l-1.375,1.75l-1.833,0.083L818,1059 h-6l-0.667,0.917L808,1060v-4.917l-4-0.083v4.083l-1.75,2l-1.333-0.167l-0.917-0.833l-9.333-0.167L790,1054h-2.917l-2.25,4.917 L784,1059v0.917l-3.208-0.167l-0.958-0.75l-3.75-0.083l-1,1.167l-1-1.25L772,1059v1h-1.583l-0.667-0.958l-11.75-0.125 l-0.917-2.833l-4.167-0.333L750,1059h-6l-1.417,1l-3.583-5.083l-5.917,0.083l-1.083,4h-2l-0.583,1.917l-0.417-2l-11-0.083 l-1.083-3.833l-2.917-0.083l-1,2.917l-1.083,0.917L711,1059v-1l-6-0.083l-1.167,0.917l-3.917,0.167l-0.917-5h-3l-1,1.083 l-1,3.917h-1l-1-0.917l-8.917-0.167l-0.917,0.917L681,1059v-1l-0.875-8.917L665.083,1049l1.917,2h-18v-1.917l-22-0.167 l-1.833-0.917l-1.167,0.833l-6.833,0.167l-1.167-1h-2.917l-3.167,2.958L605,1052v2h-1v-1h-1.833l-0.167-1.75l1-0.25v-0.917 l-0.25-0.917l-30.917,10.917c-20.417,6.75-27.667,10.917-27.667,10.917c-17.417,7.5-29.167,9-29.167,9h-17.167l-6.87-1.578 c-5.25,1.5-19.047,10.495-19.047,10.495c35.844,19.01,96.333,43.336,96.333,43.336l2.333-0.002 c4.75,0.083,54.917-2.25,54.917-2.25c5.833-0.583,69.5-7,69.5-7h68.083l82.854-3.146l0.125-8.854l39,0.063L873,1112v2.875 l-1,0.125v-1h-14.125l-1.875,1h-6.063l-0.063,3l2,1l31.25-0.938L925,1115v-0.938l-10.813-1.563l16.479-0.5l1.333-1v-3h-1v-1 l1.688-0.042l1.229,1.042l0.083,3h1.792l0.208,1h0.833l1.542-0.875L952,1111v1l79.021-3.063L1031,1108h-15.375l1.375-2h19.938 l0.063-1h60.667l25.667-27.917L1120,1056.167z M558.162,1067h1.775v1.92h-1.775V1067z M558,1075.188h1.05v0.75H558V1075.188z M548,1086h-1v-1h1V1086z M554.838,1073.938h-1.676V1073h1.676V1073.938z M558,1089v-3h3l1.188,3H558z M564,1080.813h-1V1080h1 V1080.813z M567,1068.25h-1V1067h1V1068.25z M570.838,1073.938h-1.676V1073h1.676V1073.938z M594.162,1063h1.15v0.938h-1.15 V1063z M594.162,1067h1.676v0.938h-1.676V1067z M576.162,1062.455h1.338v1.465h-1.338V1062.455z M577.875,1067v0.938h-0.813 V1067H577.875z M575,1080h1v0.813h-1V1080z M571.938,1067h-0.75v-0.938h0.75V1067z M580,1089h-3.838l-2.068-3H580V1089z M587.938,1074.25h-0.75V1073h0.75V1074.25z M600,1086.813l-2,1.188v1h-2.162l-2.025-2.75l3.5,0.625L600,1086V1086.813z M608,1073.938V1074v1.188h-1.813V1074H605v-1h3V1073.938z M612.25,1089l-1.313-5.938L613,1082v2.813l3,4.188H612.25z M614,1067 v2h-1v-2H614z M613,1063.938v-0.75h1v0.75H613z M617,1076h-1.063v1.125h-0.813V1076H614v-1h3V1076z M621,1088l-2-1v-1h2V1088z M619,1081v-1h0.813v1H619z M617,1058l-4-4l0.083-0.958L611,1053v-2h9l2,2h1v4l-1.167,1H617z M627,1074v1h-3v-1h-1v-1h4V1074z M633,1064h-2v-1h2V1064z M633.333,1067v2h-1.083v-2H633.333z M632,1075v0.938h-1V1075H632z M631,1069.875h-2V1069h2V1069.875z M634.688,1089H631v-3h4L634.688,1089z M639,1086.625l-0.5,0.188L638,1086h1V1086.625z M641,1056.969V1059h-13.094l-0.938-2H625 v-2h1.906l1,0.531l10.656-0.531l2,0.031L641,1056V1056.969z M645,1075l-3-1.063V1073h3V1075z M654,1089h-5l-1-2.75V1082h2 l0.297,3.063l2.641,1.313l1.063,1.813V1089z M647.938,1069.875v-1.5h0.813v1.5H647.938z M650.594,1067v2H650v-2H650.594z M650,1063.92V1063h1.188v0.92H650z M652.75,1076.563l-1.75,0.563V1075h3L652.75,1076.563z M657,1083h-1v-3h1V1083z M646.969,1059H644v-2l10.719,0.188L656,1055h0.875l3.125,4H646.969z M662.313,1075l-1.313-1v-1h0.969l0.969,1L662.313,1075z M670,1089h-3l0.031-1l2.016-1l0.953,1V1089z M667,1064v-1l1,0.563L667,1064z M668,1069.125v0.75h-0.875V1069L668,1069.125z M668,1081v2l-1-2H668z M671,1077l-1.5-0.938L668,1076v-0.781l2.063,0.078l0.938,0.766V1077z M675,1086.813h-2V1086h2V1086.813z M675,1059h-8l-2.313,0.5L664,1060v-3l3.719,0.156L668,1055h1v1l3.594,0.188L673,1056h2V1059z M680,1075l-2.938-1.063L678,1073 h2V1075z M683,1069h2l2.063-1l0.938,1.125V1070h-5V1069z M686,1075v0.938h-1V1075H686z M687,1089h-4v-2l1-1h3V1089z M689,1077 h-1v-1l1,0.063V1077z M691,1082.813V1081h1L691,1082.813z M699,1075.75l-0.766,0.313l-2.078-3.063h1.969l0.875,1V1075.75z M707,1089h-5.125l0.125-7h2l-0.688,1l-0.313,3h2.75l1.25,1V1089z M707,1077h-3v-1h3V1077z M701.875,1070l2.125-2v-4h1 l0.125,4.688L707,1070H701.875z M711,1087l-1-0.25V1086h1V1087z M711,1083h-1v-2h1V1083z M715,1075h-1v-2h1V1075z M715.063,1065 H714v-1h1.063V1065z M721,1064h3v1h-3V1064z M720.281,1068.906l1.781-0.906H723l1,1v1l-4-0.125L720.281,1068.906z M722.25,1083 H721v-2h1L722.25,1083z M721,1089l-0.25-2l-0.75-0.25V1085h1v1.5l3,0.719l0.094,1.781H721z M725.063,1076.688l-1.938,0.313v-1 l1.938,0.063V1076.688z M728,1083.125l-1-0.313V1082h1V1083.125z M740,1064h2v1.25l-2-0.25V1064z M736,1076h-2v-2h2V1076z M739.031,1069l1.016-0.25l2.039-0.75l0.914,1v1h-5L739.031,1069z M742,1089h-2v-3h2V1089z M744,1077h-4l-0.063-1l4.063,0.063 V1077z M746.375,1083l-0.375-2h2L746.375,1083z M759,1064h1v1.25l-1-0.25V1064z M758,1069h3l0.938,1H758V1069z M752.063,1074 l2.938,2h-3L752.063,1074z M759,1089h-4v-1h4V1089z M759,1083.125l-1-0.313V1082h1V1083.125z M761,1077v-1h1l-0.063,1H761z M764,1089h-1.688l-0.313-1h2V1089z M765.875,1083h-0.438l-0.438-2l0.875,0.313V1083z M766,1076.875h-1V1076h1V1076.875z M771.125,1076v-2l0.813,2H771.125z M776.938,1089l-1.938-1h3L776.938,1089z M784,1088h-1l1-1.938V1088z M798.063,1089H793 l0.063-1l3.375-2H800l-2,2L798.063,1089z M802,1089v-1h1L802,1089z M804,1082.563l-1,0.563V1082h1V1082.563z M820.563,1080 l1.313,0.083l-1.313,0.917V1080z M823,1087h-2l-0.875,2H812l0.031-1l4.094-2H823V1087z M842.75,1087.5l-4.063,1.5H833v-3 l4.938-0.063l1.313-0.938H842l1.063,1L842.75,1087.5z M859.125,1087.938l-0.5,1.063H852l0.125-1.063l3.25-1.938H860 L859.125,1087.938z M877.438,1080.083l0.25-0.083l1.313,0.083v1.792l-2-0.938L877.438,1080.083z M879,1087.063V1089h-8 l0.016-0.875l2.422-2.125H880L879,1087.063z M880,1115.75h-2V1115h2V1115.75z M895.125,1089H888v-1h3l3.375-2H897l-1.938,2 L895.125,1089z M898,1081.125h-2V1080h2V1081.125z M913,1087l-1,1v1h-5l0.219-1l1.156-2H916L913,1087z M931,1089l-6-0.25V1086h6 V1089z M935,1080.938l-1,1.188l-1-2.125h2V1080.938z M938,1108v-1h2L938,1108z M951.987,1086.969L949,1087.25v1.75h-6 l0.789-0.875l3.773-2.125H954L951.987,1086.969z M968.188,1087.938l-0.125,1.063H963l0.063-1.063L966.5,1086h4.5 L968.188,1087.938z M980,1089v-2l0.625-1l2.375,3H980z M988,1083.125V1081h1L988,1083.125z M1008,1088l-0.813,1H1001 l0.094-1.156L1002,1086h2l0.563,1H1007l1-1V1088z M1080,1057h1v-1h2v1l-1.042,1H1080V1057z M1072,1054h1.958l1.042,1v1h-3V1054z M1053,1054h3v2h-2.042l-0.958-1V1054z M1018,1089v-2h6l1,2H1018z M1034,1089v-1h4l0.375,1H1034z M1044.875,1058H1044l-1-1v-1 h2.792l0.167,1L1044.875,1058z M1052.042,1085.5c0,0,17.125-2.083,34.75,0C1086.792,1085.5,1059.417,1087.167,1052.042,1085.5z M1092,1055.708h-0.958V1055H1090v-1h2V1055.708z M1100,1058h-0.958l-0.542-1h-1.5v-1h1.917l1.083,1V1058z"/><path fill="#FFF000" d="M1263.312,966.876l-36.813,30.001c-17.125,13.375-52.418,44.001-52.418,44.001l-3.96,1.378l3.954-82.744 c-3.25-9.417-7.758-10.322-7.758-10.322c-5.667,1.75-24.182,13.857-24.182,13.857c-0.037,0.022-21.115,16.63-21.115,16.63 c-4.979,45.844,5.313,72.323,5.313,72.323l2.333,3.167c9.833,13,32.5,27.167,32.5,27.167l34-22.833 c-3,6.833-38.667,45.333-38.667,45.333l28.167,0.333L1187,1110h-34.667l-18.833,21.25c-13.833,15.667-45.333,58.25-45.333,58.25 l-28,35.292l66.708,0.333l35.289-42.625L1209,1126v-1h-2l-5.75,0.938L1201,1124h5.875l0.125-3h-13.125l-0.125-1.125l8.625,0.875 L1205,1120h8.875l48.125-59h-54v-2h56l75-91l1.128-1.042L1263.312,966.876z M1112,1171h-2v-1h2V1171z M1113.75,1169H1113v-1 h0.75V1169z M1120.083,1169H1119v-1h1.083V1169z M1125,1171h-2l2.313-2.813l0.5,1.813L1125,1171z M1196,1125h1h1v3l-2-1.5V1125z M1194,1124h1v2h-1V1124z M1184,1117v-1h2v2h-1.188L1184,1117z M1186.938,1151H1185v-2h3.125L1186.938,1151z M1201,1111.188 l-0.853-0.313L1200,1110h1V1111.188z M1207,1111l-3-0.406V1110h3V1111z"/><path fill="#FFF000" d="M1118,1232l-1-1h4.142l3.233-3.875l-64.875-1.375l-19.75,27.375L1042,1253l-0.25,0.875l-2.813,0.333 l-35.688,46.417l-56.125,70c-7,7-17.5,23.375-17.5,23.375c-5.25,3.125-9.625,10.125-9.625,10.125l16.875-8.875l17.5-22.625 l16.25-19.25c3.375-3.375,21.125-25,21.125-25c1.625-2,7.25-1.375,7.25-1.375l6.75-9.125c10.875-1.125,16-4.25,16-4.25 l30.75-17.5c6.875,1.125,17.125-3.375,17.125-3.375l50.683-60.75H1118z M1062,1254h-7v-1h7V1254z M1069,1232h-8.833l0.958-0.917 L1069,1231V1232z M1075,1254v-1h2l1.125,1H1075z M1082.875,1232H1082l-1-1h3L1082.875,1232z M1096,1255l-1.583-0.208 l-1.083-0.792H1092v-1h2l0.875,1H1096V1255z M1101,1232h-4v-1h4V1232z M1109,1232v-1h5l0.958,1H1109z"/><path fill="#FFF000" d="M2098.875,974c0,0-2.375-1.875-5-2c0,0-172.125-14.25-250.875-15.25l-40.5-0.25 c0,0-4.833,7.5-7.5,10.167l-207.333-3.5c0,0-18,22.167-19.333,26.333c0,0-5.833,9.667-8.833,11.667l-14.667-26l-108.667-2.333 l62-76.5L1553,828.667c0,0,0.167-15.667-1.667-25.667c0,0-2.5-19.5,0.167-24.5c0,0,8.667-12.833,9.5-17.667c0,0,2.333-3.5,5.5-5 c0,0,3-1,4-4.667c0,0,2.5-4.5,5-7c0,0,12-15,13.167-17.333c0,0,1-4.167-1.833-2.5L1576,737.167l-4-0.333c0,0-5,6.833-7.667,9 c0,0-9.833,11.333-10,16.167c0,0-2.5,7.667-11.333,14.5c0,0-8,8.167-12.833,16c0,0-8,16.667-12.667,18 c0,0-1.167,6.5-6.333,7.167c0,0,0.344-3.359,2.667-3.5c0,0-7-0.333-12.333,7.167c0,0-0.667,3.5-5.5,3.667l-7.375-0.375 l-57.563,66.625l-61.594,70.563l-59.047,72.531l-19.574,24.367l73.414-0.343l38.994-45.871l65.122,4.627l-0.126,1.376 l-56.251,39.875l70.875-0.625l0.125-3.937l2.75,4.188h8.25l54.625-39.937L1520.5,1058h11.5c0,0,20.375,21.125,24.375,22l5.375,1 H1573c0,0,6.125-12.25,11-16.125l134.125-13c0,0,16.875-30,22.625-32.75L1607,1024c0,0,8.875-19.125,9.25-20.75l63.75-1.375 c0,0,6.25-10.75,9.875-11l74.375,0.25l12.5,1c0,0,10.25-12.75,14-13.875l-52,115.75H1774l45.75-4.083l0.25-0.833l1,0 l0.083,1.083l6.005-0.088l0.079-1.078l7.167,0.083l54.667,0.083l2.125,2v-2.063l1.375-0.021l1.333,1.5l0.091-1.497l1.993-0.086 l0.333,0.917l49.375-0.292l-29.625-12l0.375-3l3.625,1.125l33-8.925V1066h0.75l0.146,0.583l13.318-3.602l-0.151-0.981H1968 l0.135,0.732l26.74-7.232l77-23c0,0,46.375-13.125,50-25C2121.875,1007.5,2102.5,981.375,2098.875,974z M1567,1050h11l-0.313,1 H1567V1050z M1565,1049l-1.063-0.313l-0.625-0.609l-1.063-0.922l1.719,0.578L1565,1048V1049z M1587,1054h-20v-1h20V1054z M1851,1079h-1v-2h1V1079z M1865,1077l-2,2v-3h2V1077z M1878,1077h-2v-1h1v-2h1V1077z M1891.125,1077H1890v-2h1.125V1077z M1904,1078l-1,1h-1v-2h1v-3h1V1078z M1955,1064h-1v-2h1V1064z M1955.375,1057.938H1954V1057h2L1955.375,1057.938z M1958,1058.75h-1V1058h1V1058.75z M1935.667,1023.833c-14.5,3-93.5,24.167-93.5,24.167c-4.5-3.333-25.167-10.333-25.167-10.333 l16.167-39.833C1893,996,2012,1002,2012,1002C2007.5,1004.833,1935.667,1023.833,1935.667,1023.833z"/><path fill="#FFF000" d="M1482.917,1065.167L1440,1064v-3h-32l-66.083,45c-5.917,3.667-21.667,14.917-21.667,14.917L1322,1121v1 h-4.083l-3.833,2l0.75,2.75l-4.5,0.167L1310,1128h-2l4.083-6.125L1306,1122v2.667l0.708,2.167l-1.792-1l-0.167-2.917 l-2.667-1.083L1302,1121h10.917l49.083-60h-73l-46.083,59.917L1248,1121v-1h1.833l0.167,1h4.083l-0.167-0.75l1-0.25l0.083,1 h9.667l1.417-0.833l1,0.75l16.833,0.167l-1.667,1.5L1284,1126h-4.083l-40.917,0.125l-27.167,36.625l26.25,18.333 c9.083,6.917,43.75,28.75,43.75,28.75c3.167,1.917,4.083,1.333,4.083,1.333l28-20.333l34-25L1348,1165h-5l-1.917,1.042 l-0.167-1.208l-8.667,0.167l-12.083,0.917l-0.167,2l-3,0.083v7h-17.833l-0.25-2.083l-2.833-1.833l2.833-0.333l0.167-1.75 l-6.167-0.167L1290,1170h-44.917l-4-1.042l2.083-1.875L1253,1167v1h2l0.917-0.917L1275,1167v1h2.833l1.167-1h9.583l1.417-3h8.75 l-0.75-1.5l1-1.5h19.917l4.833-1.042L1324,1156h-3.75l11.75-4l3.167-0.083L1339,1156h7.958l0.083-4.958l0.917-0.167L1348,1152h9 v-1.083l0.896,0.083l0.104,1h2.25l0.75-0.917l-0.167-2L1360,1148h2.833l0.167,3h5.75l6.25-5h-7l0.083-0.875L1373,1144h4.583 l17.25-12.958l-18.917-0.292L1376,1130h20l8.833-6.458L1402,1125h-16.5l-9.75,1.833l-26.667-0.083l-4.667-4.75l-6.167-0.917 l5.833-1.25L1354.5,1119l1.5,0.917l3-0.083l1-0.833h2.25l1.75,1h1.75l1.083-0.958l4.5,0.125l1.5,0.75l37.083-0.083l10.083-7.667 l-53-0.25l0.25-0.833L1370,1109l35.75,0.917l19-0.917l54.5-40.75l-39.083-1l40.667-0.25L1482.917,1065.167z M1274,1112.833 l-1,1.167h-2v-2l1-1h2V1112.833z M1277,1099h-1v-2h1V1099z M1232.833,1144H1232v-1h0.833V1144z M1235.75,1170.5l-0.75,0.5v-1 h0.75V1170.5z M1298,1179.917l7.25-0.917h6.75l2.833,0.917l0.875-0.917l0.292,0.917V1181l-18-0.25V1179.917z M1258,1152h-1l-1-1 h-14v-1.833l1.958-0.75l12.958-0.333l0.083,2.125l1,0.792V1152z M1262,1152v-1h4.917l1.083,1H1262z M1271.833,1152H1270l1-1 h0.833V1152z M1276,1150v1l-0.313,1.026l-1.813-1.932l0.875-1.073L1276,1149V1150z M1295.083,1121H1297v1h-1.917V1121z M1292,1126.083l2.146-1.083H1296v2h-4V1126.083z M1287,1152h-5.083l1.614-1.508l0.511-0.492h1.542l1.417,1V1152z M1290,1122 h-1.833l0.917-1H1290V1122z M1291,1152v-2l2,1.013l3-0.013l1.667-0.958l1.25,1.984L1291,1152z M1299.833,1127h-0.458l-0.458-1 l0.917-1V1127z M1306,1152h-4l0.75-1.969l0.667,0.984L1306,1151V1152z M1311.917,1152H1310v-1l1.917,0.016V1152z M1323,1127h-2 v-1h2V1127z M1352,1144h4l-0.833,2H1351L1352,1144z M1352,1148h1v1h-2L1352,1148z M1360,1111.917h-1V1111h1V1111.917z M1364.75,1112H1362v-1h4L1364.75,1112z"/><path fill="#FFF000" d="M1515,1065h15c0,0,6.833,0.75,9.833,4.833l15.042,15.833l9.125,0.417V1087h6l-3,5h-3l-2.25-2.083 l-6.75,0.167l-0.75-1l-2,0.833l-5.583,1.083l-4.167-0.083l-0.75-0.917H1518l-0.083,4.125l-0.75,0.875H1518l-0.083,3.583 l-2.792,1.729l0.938,1.625l1.938,0.146l-0.167,6.75l-32.917,0.167L1515,1065z"/><path fill="#FFF000" d="M1651,1094l0.917-1l2.083,1h62l6-15.083l-60,9.083l-54,9.083l-48,10.083l0.667-3.25l-13.833-0.167 l0.167,8.333l-11.083-0.083l-1.333-1.083l-1.667,1l-24.75,0.208L1506,1113h-23.75l-2.218,3.097l0.051,1.153l27.917-1.167V1120h3 l0.75-0.917l2.167,1.917H1553v-2l3,2v3l-3.25,1H1486l-1.083,1.583l-12.917,0.625l-1.917,2.792H1475v2h-6.25l-1.5,1.75 l38.333,29.25H1508c0,0,19.917-7,34.833-10.083l15.583-4.083l-10.583-2l-13.583-0.083l0.667-0.75H1559v-1l3-0.083V1146 l10.917,0.083l19.125-5.083l1.958-4.083V1130l2.083-1.083l6.75,0.167l3.167,1.083l-3.25,2.667l0.25,5.375l1.333,0.792H1606 l9.833-2.083l2.167-0.75l4.75-0.167l-2.5-1l-9,0.083l0.667-2.083l0.25-4l9-0.083l-0.167-3.833l-1.583-1.167l21.583,0.167V1132 c0,0,21-4.75,29-5.167V1126l-4-0.333V1123l1.563-0.917l3.146-0.083l2.292,1.917V1126c0,0,14-2.417,30-7.167V1118l-1.875-1 l-4.125-0.167V1115l7.917-0.042L1710,1105h-20l0.167,1.667l0.583,1.333H1689v-3h-19l0.083,1H1644l-0.917,3l-2.75,3l-0.417-7 H1625l1.083-3H1640l0.25-4h4.75l-1,0.833l0.083,2.917l1.833,1.333l45-0.083l0.917,0.917l18.917,0.125L1715,1095h-2l-1.083,0.833 l-2-0.167L1709,1095h-4l-1.25,1l-23.667-0.083l-0.167,1.083l-3.917-0.125l-1.333-0.875H1655l-0.833,1.75l-2.667,0.25 l-0.583-0.917l-4.917-0.25V1094H1651z M1575,1136l-2,1.125V1140h-3l-2-1.063V1138l3-1.125V1135l3-0.125l-1-2.875h2V1136z M1584,1130h-1v10l1,1.688l-2.063-0.75l-0.938-0.188V1129h3V1130z M1594,1127l-8-0.188V1126h3l1.375-1H1592l2,1.25V1127z M1594,1122l-3.063,0.313l-0.875,0.688l-5.063-0.188V1121h9V1122z M1607,1126.813h-2V1125h2V1126.813z M1701.938,1106h0.938l1,1 l-0.875,1h-1.063l-0.875-0.938L1701.938,1106z M1690,1115h3v2l-1.5,1l-1.5-1.438V1115z M1682,1115h2l1,1.563V1118h-1l-1.063-1 l-0.938-0.125V1115z M1654,1127h-2l-0.969-1l2.969-0.094V1127z M1670,1116.813V1118h-2l-0.719-1.813l1.703-1.063L1670,1116.813z M1664,1111h4v1l-4-0.031V1111z M1652,1110.125V1111h4l-2,3h-1l-2-2.031l-0.063-2.031L1652,1110.125z M1651,1099h5l-2.125,3 H1652l-1-1.188V1099z"/><g><path fill="#FFF000" d="M2050.375,1129.25l-4.25,0.375l-0.21-1.87l-26.785-8.977l-1.463,1.222l-4.917-0.833l-3.333-0.417 l0.5-0.833l5.865-0.261c0,0-38.448-13.906-49.782-19.322l-15.083-6.333H1827h-16h-8l-13.25,2.5l-0.625,1.375l-4.25,0.125 l-0.75-1H1783l-1.5,0.875l-3.25-0.125l-0.375-0.75H1774l-1.625,0.875l-3.625-0.25l-1-0.625H1763l-0.188,1l-1.5-0.125 l-0.25-0.875H1756l-0.938,0.938l-8.938,0.125l-1.063,0.625l-0.125-0.563l-7.031-0.245l-0.469,1.12H1744v2l-7.45-0.098 l-0.949,2.115L1739,1101v2l-4.29,0.003l-0.522,0.997H1739l-0.25,1h-4.936l-4.901,11H1734l0.958,2H1728l-3.162,6.955 l3.162,1.003V1127h-3l-0.644-0.925l-1.481,3.3c0,0-29.25,58-29.875,67.5c0,0,6.75,7.25,21.125,24.625l12.5,13.625l2.125,1.5 l2.25-1.5l2.875-0.125l18-42.125l19.375-42.625c0,0,9.75-22.125,11.125-25.75c0,0,1.625-4.75,2.625-5.25V1118h-5l-1.063-1.188 l-0.875,0.313l-0.188,0.875H1777v-2l3.875,0.125l1.25,0.75l3.75-0.063c0,0,0.313-0.938,1.188-2.688L1785,1114l0.875-1 l1.938-0.063c0,0,3.75-11.125,7.938-12.125l20.5,8.25l19.938,7.938l13.813,0.063V1118l-4,0.063l-0.25,0.875L1844,1118h-3 l0.188,0.938c0,0,9.281,3.438,15.906,7.75l13.906,7.438V1132l1,0.25v2.75c0,0,47.625,21.625,108.25,40 c0,0,49.5,14.5,57.375,17.125c0,0,44.75-38.25,48.25-48.875L2050.375,1129.25z M1716,1159v-1h2v0.021l1,0.979H1716z M1730,1159 v-1h1.208l0.792,1H1730z M1731.125,1133.083l-2.125-0.292V1132h1l0.833-0.958l0.333,0.958H1732L1731.125,1133.083z M1772.042,1113h0.917l1.292,1h-3.167L1772.042,1113z M1765.917,1107h0.917l1.208,0.5l-0.958,0.5H1766l-0.896-0.5 L1765.917,1107z M1758.958,1113h1l0.958-0.833l-0.833,1.875l-1.958-0.292L1758.958,1113z M1755,1107v1h-2l-1-1H1755z M1746,1113h1.042v1.042h-1.958L1746,1113z M1741,1107l0.958,1l-2.792-0.208L1739,1107H1741z M1736,1125h2.083l1.792,1 l0.292,0.833L1736,1127V1125z M1742.125,1159h-1l-0.125-1.167l1.125,0.167V1159z M1743,1132v1h-3v-1h1l1.208-1.167l0.792,0.208 V1132z M1739,1118v-2l1.917-0.833L1741,1116h8l-1,2H1739z M1749,1127v-3h0.917l3.083,2v0.833L1749,1127z M1756,1159h-3l1-1h2 V1159z M1754,1133v-1l2.083-0.083L1757,1133H1754z M1766,1127h-4.313l1.313-2h1l0.167,1H1766V1127z M1768,1154h-1v-1h1V1154z M1768,1133v-1l0.875,0.063l0.208,0.938H1768z M1771.083,1117l-1.083,1h-19v-2l3,0.208l1-1.208v1h17.125l0.875,1h2v1h-3v-1 H1771.083z M1779,1126l-1.292,1.917l-0.917-0.917H1775v-1h1l1-1v0.75L1779,1126z M1780.792,1107.792H1779V1107h2 L1780.792,1107.792z M1806,1096v-2h1v1.042l1.042,0.958H1806z M1819,1108.917h-1V1107h1V1108.917z M1820,1096h-1v-1h2 L1820,1096z M1833,1108.917h-2V1108h2V1108.917z M1833.875,1095.75H1832V1095h1l0.875-1V1095.75z M1837,1114.125v-1.208 l0.958,0.25l1.208,0.75L1837,1114.125z M1843.958,1108.917h-1.917V1108l1.042-0.042l0.875-0.958V1108.917z M1843.958,1096v-2 l2,2H1843.958z M1972,1108h1v3l-1-0.167V1108z M1966,1114l1,0.583V1115h-2l-1-1H1966z M1958,1109l1-1h1v1l-2,1.833V1109z M1948,1108l-0.5,2l-0.5-2H1948z M1935,1108l-0.833,1.75L1934,1108H1935z M1926.938,1114l1.125,0.5l-1.031,0.5l-1.031-0.5 L1926.938,1114z M1922,1096l1.042-1H1924v1h-0.958l-1.042,2V1096z M1921,1108h1l1,0.833l-0.833,0.917L1921,1109V1108z M1909,1096h1v1l-1,0.208V1096z M1908,1108h2v1h-2V1108z M1894.917,1108l0.083-1h2v2l-1,0.125l-1,0.625l-0.792-0.75 L1894.917,1108z M1869,1108.208V1108h1v1.125h-1V1108.208z M1857.833,1119H1857l-2.042-1l-0.958-1h5L1857.833,1119z M1857.125,1097H1856v-2h3L1857.125,1097z M1864,1118h-1v-1h1V1118z M1869,1128h-1l-1,1h-1l-0.083-0.958l-0.917,0.042V1126h3 l1,1V1128z M1872,1119l-1.5-0.25l-0.5-0.75h-2v-1h4V1119z M1872,1096h-0.792l-0.333,1l-1.875,1v-2l2.188-1.917L1872,1094V1096z M1878,1128v-2h2l1,0.917l1,0.354l1,0.729H1878z M1882.792,1110H1882v-2h2L1882.792,1110z M1885,1096h-0.979l-1.021,1h-1v-1 l2.104-2H1885V1096z M1894.833,1128.708l-3.625,0.292l-0.208-3c0.167,0.125,1.563,0,1.563,0l0.479,1H1895L1894.833,1128.708z M1902,1123.958h-1.917V1123l0.792-0.917H1902V1123.958z M1902,1119h-6l-0.792-1H1894v-1h3v1h5V1119z M1905.792,1128.625 l-0.708,0.375l-1.083-1.25V1127h4L1905.792,1128.625z M1911,1133.813h-1V1133h1V1133.813z M1916,1119h-8v-1h8V1119z M1921,1128 l-1,1l-1-0.25l-2-0.75v-1h4V1128z M1929,1119h-9v-2h2l0.958,0.792L1929,1118V1119z M1930.5,1127h1.375v1H1930L1930.5,1127z M1933,1148.813l-1.125-0.375l1.125-0.375l1,0.188L1933,1148.813z M1938,1120v2.083l-1.104,1.708l-1.833,0.292L1935,1125h-1 l-1-1v-7.917l4.115-2.938l0.948-0.188L1938,1118h4.958l0.167,1.073l-4.042-0.073L1938,1120z M1945.792,1128.104L1945,1129h-1 l-1-1v-1h3L1945.792,1128.104z M1951,1160h-3v-1h3V1160z M1948,1133.406l0.75-0.406h1.25v0.813l-1,0.188L1948,1133.406z M1949,1119l-0.417,0.906L1948,1119h-3v-1h8l0.167,1H1949z M1957,1129h-2l-0.833-1l0.833-1h2l1,1.167L1957,1129z M1960.406,1160l-0.469-0.5l0.438-0.5l0.5,0.5L1960.406,1160z M1971,1130h-2l-2-2v-1h4V1130z M1974.125,1119l-0.542,0.906 L1972.5,1119l-11.375-0.047l-0.625,0.953l-1.125-0.906H1957v-1h3l0.583-1l0.458,1H1980l-0.208,0.953L1974.125,1119z M1980,1124 l0.833,0.167l0.208,1.708h-0.75L1980,1124z M1984,1130l-2.958-2.208L1981,1127h3V1130z M1984,1118h-1v-1h1V1118z M1984,1109.417l1.333-1.417h0.542c0,0,0.042,2.063,0.167,2.063S1984,1111,1984,1111V1109.417z M1987.75,1134.188l-1.875,0.813 H1985l0.125-1l1.188-1H1988L1987.75,1134.188z M1988.042,1120H1987l-0.953-1l-1.023-0.047L1985,1118h13v1h-9L1988.042,1120z M1993.917,1128l-0.917-1h4l2,2.208V1130l-5-0.167L1993.917,1128z M2000.938,1136H2000l-1-1l-0.063-1.031l1.031-0.953 l1.891,1.898L2000.938,1136z M2006,1119h-1l-0.125,1l-0.917-0.094l-1.083-0.953l-1.75,0.094l-0.708,0.953H1999v-1v-1h7V1119z M2011,1130h-3v-3h2l1,1V1130z M2020,1127h2l2,0.917V1130l-4-0.25V1127z M2027,1136h-1l-2-1v-1h3V1136z M2037,1129l-1.292,1 H2033v-3h4V1129z M2040,1134.188h-2V1133h2V1134.188z M2053,1162h-2v-2h2V1162z"/><polygon fill="#FFF000" points="1731,1236 1733,1236 1733,1237.063 1732,1238 1730,1238 &#9;&#9;&#9;&#9;&#9;"/></g><path fill="#FFF000" d="M2496.25,949c0,0-2.25,6.25-29.5,5l-47.125,4l-10.375-0.125L2399.125,956l-6.875,0.125 c0,0-53.125,5.375-74.25,6l-131,6.125l-22.375,47.688l-37.892,74.996L2180,1090l17.875-20.875l9.625,0.094 c0,0,13.625-28.297,16.625-33.672c0,0,7.313-14.398,7.938-16.648c0,0,2.906-6.637,6.531-7.387l92.016-7.631L2448,997.125V998 l-54.125,18l-74.125,24l-98.75,29h150c0,0,13.375-5.5,22.5-7.875l17.5-5.375l-1.875-2.5l2.625-0.125l1.5,1.75l119.75-43 L2545.125,946L2496.25,949z M2357,1049h-1.75l-0.75-0.917l-4.417-0.083l-1.083,1h-1.167l-0.833-1h-29v-1h36.417l2.583,1V1049z M2386,1052h-3v-1h3V1052z M2396,1052h-6v-1h6V1052z M2404,1052h-1.583l-0.667-1h2.25V1052z"/><path fill="#FFF000" d="M2212.167,1071l-5.167,2v-2h-6.917L2182,1092h-56l-54.375,19.75L2072,1116h-0.75l-1.625-3.125 l-6.125,1.375l-0.125,1.75c1.25,3.25,30.375,23.875,30.375,23.875l1.5-3l13.75,0.25l-2.75,2.75L2100,1140v2.625l1.688,1.75 l0.188,6.5l-3.875-0.125l-2.75,5c1-1,6.75-0.75,6.75-0.75v4.75l-1.813-0.125l-5.813-2.125 c-2.614,3.984-12.841,28.578-26.042,57.25c-1.038,2.254-4.31,7.548-5.375,9.833c-0.73,1.569-0.397,4.14-1.167,5.667 c-12.583,24.958-23.042,46.375-23.042,46.375l-39.875,85l-33.875,70.25c2.75-0.25,4-1.625,4-1.625 c3.375-5.875,13.125-9.625,13.125-9.625c6-3.125,7.5-8.625,7.5-8.625l20.625-44c5.125-10.125,9.75-14,9.75-14h2.375 c4.75-6,9-6.625,9-6.625l3.375-0.625c3.625-5.125,18.125-15.875,18.125-15.875L2083,1311.25c1.875-1.5,2.875-3.25,2.875-3.25 l21-43.25l47-94.875c5.5-11.5,18.375-35.125,18.375-35.125l70.583-23l1.5-1.667l0.667,0.833l57.5-17.917 c27.917-6.833,62.5-22,62.5-22H2212.167z M2081.083,1258H2080v-1h1.083V1258z M2109.083,1257H2108v-1h1.083V1257z M2225.917,1090H2224v-1h1.917V1090z M2257.917,1099l2.083-4.625V1094h6.583l1.583,2.708L2271,1099H2257.917z"/><polygon fill="#FFF000" points="2409.34,1064.25 2438,1049.833 2438,1053 2439.5,1054 2457.917,1048.083 2456.833,1069 &#10;&#9;&#9;&#9;&#9;&#9;2407,1069 &#9;&#9;&#9;&#9;"/><path fill="#FFF000" d="M2632,960.25c-0.125-6.125,7-11.625,7-11.625l-3.25-7.25L2642,923v-6l-3.125,2.375L2633,921h-1.875 l-9.5,15.75l-45,71.5l-40.25,64l-6.125,5.625l-21.375,12.875l-40,27.625L2430,1144h-2v-2.875l4.906-4.188l0.469-2.75 l-1.438-1.438L2457,1071h-51l-18.522,42.756l13.022,0.369l-2.375,3.375l-4.375-0.625l-7.417-0.708L2365,1171v3l10.875,9.125 c10.125,8.625,26.5,19.125,26.5,19.125c5.25-2.25,24.875-19.125,24.875-19.125c2.5-1.5,24.25-14.875,24.25-14.875l38.625-27.25 c8.375-6.5,10.875-5.875,10.875-5.875c-1.375,4.375-20.75,43-20.75,43c0.75,2.25,5.125,2.75,5.125,2.75 c6.125,0.5,17.875,9.875,17.875,9.875c22.5,15,22.5,12.125,22.5,12.125l40-74.75l-38.625-0.25L2526,1126h17.625l1.5,0.813 l4.75-0.063L2551,1126h13.125l0.625,0.813l1.875,0.313l8.125-16l-38.875-0.375l2.5-1.625l2-0.125l0.625,1h4.875l1.375-0.875 l1.875-0.25l1.125,1.25L2565,1110l2.25-1.25l9-0.5l32.75-59c3.875-5.25,13.25-25.5,13.25-25.5c2.75-5,6.625-7.25,6.625-7.25 c-0.125-2.25,15.5-29.25,15.5-29.25C2640.375,983.125,2632,960.25,2632,960.25z M2434,1088h1.958l0.042,1h1.958l1.042,1h-5V1088 z M2411,1088h1h3l1.042,0.875l-5.042,0.167V1088z M2421,1116h-7l-1.125-1.042l-5.833-0.042l-0.083-1l-3.958,0.042l0.125-0.958 l0.917-1l-0.125-3.042l-2.708-0.208L2402,1108h11v1l-0.917,2H2416l2.167,3H2421V1116z M2423,1130.958h-1V1130h1V1130.958z M2421,1089v-1h9.917l-1,1.042l-1.083-0.042l0.167,1h-1v-1H2421z M2462,1130.979l-1.208,0.979H2460V1130h2V1130.979z M2474,1130.75l-0.792,0.229L2473,1130h1V1130.75z M2501.25,1131.958L2501,1130h1L2501.25,1131.958z M2511,1135h1v1.75h-1V1135z M2511,1143h0.875l0.125,1l0.75,1.813L2512,1148h-1V1143z M2511,1152h2l-1,1h-1V1152z M2524,1162h-4l-0.875,2.063l2.688,3 l0.375,0.938H2518l-1,1h-3l-1.031,0.875l-2.969-2.25V1163l1-0.063l-0.063-5.875l2.031,1.688l9.922,0.469l1.109,0.719V1162z M2533,1175h-2v-1h2V1175z M2531,1153h-16l-1-1v-1h21L2531,1153z M2517,1145h6.75l0.438,1.875L2523,1148h-3.875L2517,1145z M2550.703,1142.914l-1.641-0.914H2546l-0.438,0.914l-0.594-1.039l-28.969,0.188v-2.094l36.031,0.359L2550.703,1142.914z M2558,1134l-1.938,2.75l-15.063,0.375l-1.25-1.125H2538l-0.938,1H2535l-1.125-1H2533l-0.5,1.125l-9.5-0.188l-0.813-1.375 L2523,1134H2558z"/><path fill="#FFF000" d="M2681.188,960.063c0,0-20.219,35.188-27.469,51.188c0,0-17.672,34.5-23.172,41.75l-30.471,55.479 l6.811-0.792l0.988,1.313H2612v-1l1.125-0.125l1,1.125H2627l1-1.125l4.875,0.25l1.25,0.875H2662l18.75-31.75l7.75,32.75h3.5 l1.5-1.125l12.125,0.25l1.625,0.875H2781l31.875-57.875l-6.625-0.125l-11,2l-41-0.125L2731.125,1094 c0,0-18.375-81.625-31.5-115.75L2683,978c0,0,0.75-5.5-3.125-8l0.125-1.75l4-6.5l0.375-3.625L2681.188,960.063z"/><path fill="#FFF000" d="M2836.875,973L2821,974h-20.125c-12.375,16-45.063,77.25-45.063,77.25l6.813-0.5L2764,1052h15.625 l1-0.75L2782,1052h3l14-0.75l15.125-1.5L2856,973H2836.875z M2778,1048h-11v-1h11V1048z"/><path fill="#FFF000" d="M2598.792,1111c0,0-22.708,42-30.125,59H2571l1.167-1H2576h4c0,0,24.417-5.167,50.083-7.083l1.917-1 l17.083-31.083l-21.917-1l-2.083-1.75l26.167-0.167l8.667-14.833l-44.917-0.396l-0.25-0.688H2598.792z"/><path fill="#FFF000" d="M2759.749,1148.877c0,0,17.251-31.877,19.251-35.877h-49l-7.167-0.104l-1.5-0.896H2717l0.167,1H2716v-1 h-3l-1.25,1l-4.833-0.083L2706,1112h-5l-0.75,0.917l-1.417-0.917l-9.875,0.146l14.938,58.844l44.01-0.953l9.755-18.102 l-9.497-0.176l0.585-0.838C2748.749,1150.921,2752.833,1149.627,2759.749,1148.877z M2744.5,1152l-0.5-1h1L2744.5,1152z"/><path fill="#FFF000" d="M3262.375,861.625l-64.75,33l-53.875,25.5l-58.875,28.376l-161.292,79.168l-1.417,0.086l41.832-78.495 l-55.92,2.51l-4.589-0.896l-3.762-6.042l-1.44-0.583l-37.297,69.083l-19.056,36.697l5.65-0.03l1.417,1l7.917-0.167L2858,1050 h3.167l1.083,1l4.583-0.167L2867,1050h2.25l0.75,0.875l25.75,0.208l6.917,5L2903,1058l4.5,0.083l4.5,2.917l3.167,0.083 l7.417,5.083l3.5,3.583l3.917,0.333l7.083,3.917l-0.083,3h-2.167l-1.25-0.958l-21.417-11.792l-2.667-0.5l-2.25-1.583 l-1.917-0.25l-0.25-0.75L2902.5,1061l-0.417-0.75l-2.083-2.083l-2-0.25l-3-2.917h-1.917l-1.25-0.958l-5.75,0.042L2885,1055 h-7.917l-1.083-1h-1.833l-1.167,1.042l-6.833-0.208l-1.5-0.833l-25.583,0.167L2813,1103v0.833l3,6.167h42.417l1.583-1h2.667 l1.333,1h14l9.167-17c3.917-6.583,9.583-15,9.583-15l27.917,15c15.083,8.083,31,18.083,31,18.083l1.667-1.167l2.583-0.083 l-0.75-3.833l3.833,4h38.333l0.917,1l2.667-0.167l0.833-0.75l1.333-0.083l0.917,0.833l12.083,0.25l2.333,1.75L3025,1111h4.917 l0.917-1l4.083,0.083L3036,1111h9.167l-0.167-0.875c-3.667,0.167,2.5-5.042,2.5-5.042c5.083-3.167,10.583-6,10.583-6 l-0.083-0.917l-16.75-11L3015.417,1072l-15.833-9.75L2983,1053h-6.917l-0.083-2h3.25l-2.083-3.125l79.167-41.542L3120.25,973 c2.083-1.167,4.5-3.333,4.5-3.333c3.5-4.25,10.333-8.75,10.333-8.75l14.75-7.083L3210,924 c6.875-3.125,10.875-9.188,10.875-9.188L3233,895.938c9-14.188,20.563-18.25,20.563-18.25l10.688-14.625 C3265.438,859.688,3262.375,861.625,3262.375,861.625z M2923,1048h-8v-1h9L2923,1048z M2942,1073v1h-1l-0.063-1H2940v-1h3l1,1 H2942z M2993,1072h2v1h-2V1072z M2993,1076h2v-2h1l1.063,2H2999v2h-7L2993,1076z M2988,1073h0.813v1H2988V1073z"/><path fill="#FFF000" d="M2877,1111h-12.625l-1.375,1h-46c4.625,9.563,3.938,14,3.938,14l1.563,1l1.438-1.125l0.063,2.188 l-18.188,35.75L2804,1166v1.75l30,22.25h0.938c1.125-4,12.063-23.844,12.063-23.844l17.313-30.719L2862,1137h-27l-0.188-0.813 L2861,1135h3.688l3.313-6h-31.813l-0.188-2h32.875L2877,1111z M2839,1150l0.125-1l-4.167-0.125l0.042,0.917l-1.875,0.292 l-1.25,1.917H2819l1.958-1.875l0.125-3.917l-0.979-0.699l2.823-0.421l0.953,0.727l3.081,0.239l1.206-1.053H2832l1,1h2v2h5v1h2 l1,1H2839z M2837,1141l1-1h2v1l5-0.167l1.167-0.833H2854v2l-1.125,0.958l-28.625-0.229l3.833-1.729H2837z"/><path fill="#FFF000" d="M3355.5,1304.083l-10.417-6.25c-3.25-1.75-24.167-13.667-24.167-13.667l-1.917-0.083l-8,2.917h-5 l-29.083-16.708l-1.25,0.542L3271,1271v1h-1.75l-1.417-0.75l-3.667-0.5l1.667-4.5l2-0.75l-62.167-34.25L3204,1232v-1.583 l-69.583-37.917l-13.542-7.542l-40.833-22.833l-0.917-2.25L3074,1134h-26.917l0.042,0.896l-4.042,0.146L3042,1136h-2 l-1.238-0.896l-4.762-0.271l-2-1.833h8.125l-0.125-3h-11h-28l-1-1h16.042l3.958-5h47.833l-14.833-9h-24v-1h-34.958l-0.208-1.167 L2990,1113v1h-0.708l-0.198-0.781l-28.906-0.031l14.438,7.813c3.75,7.125,8.375,9,8.375,9l252.333,134.917L3241,1265v0.75 l-1.833,0.833l5.917,3.333l0.75,0.167l0.167-3.917l-1.833-0.25L3245,1265l4,0.083l1.083,0.833l2.75,0.25l-1.833,3l-0.083,1.667 L3250,1271v-1h-2.917l-0.083,0.917l75,40.083h1.917l1.083-1h29.833l1.083-2.708L3355.5,1304.083z M3254,1260.75h-1.667 L3252,1260h2V1260.75z M3255,1265h2v1.167l-2-0.583V1265z M3259,1270h-1.333l-0.667,1h-1v-1l1-1h2V1270z"/><path fill="#FFF000" d="M3327,1312h30c0,0,4,4.167,6,5v1l-1,1.75l0.083,3.167l0.917,3.833v2.25l4.667,4H3366l-39-20.333V1312z"/></g></g></g></g><g id="group-1" stroke-width="0" transform="matrix(1, 0, 0, 1, -10.210543, 193.585953)"/><g id="group-2" stroke-linecap="round" stroke-linejoin="round" transform="matrix(1, 0, 0, 1, -10.210543, 193.585953)"/></svg>